<?xml version="1.0" encoding="UTF-8"?>
<svg width="14px" height="14px" viewBox="0 0 14 14" version="1.1" xmlns="http://www.w3.org/2000/svg" xmlns:xlink="http://www.w3.org/1999/xlink">
    <!-- Generator: Sketch 48.2 (47327) - http://www.bohemiancoding.com/sketch -->
    <title>close</title>
    <desc>Created with Sketch.</desc>
    <defs></defs>
    <g id="Case" stroke="none" stroke-width="1" fill="none" fill-rule="evenodd" transform="translate(-1328.000000, -74.000000)">
        <path d="M1333.00518,79.0051758 L1333.00518,73.9948242 C1333.00518,72.8931132 1333.89829,72 1335,72 C1336.10171,72 1336.99482,72.8931132 1336.99482,73.9948242 L1336.99482,79.0051758 L1342.00518,79.0051758 C1343.10689,79.0051758 1344,79.898289 1344,81 C1344,82.101711 1343.10689,82.9948242 1342.00518,82.9948242 L1336.99482,82.9948242 L1336.99482,88.0051758 C1336.99482,89.1068868 1336.10171,90 1335,90 C1333.89829,90 1333.00518,89.1068868 1333.00518,88.0051758 L1333.00518,82.9948242 L1327.99482,82.9948242 C1326.89311,82.9948242 1326,82.101711 1326,81 C1326,79.898289 1326.89311,79.0051758 1327.99482,79.0051758 L1333.00518,79.0051758 Z" id="close" fill="#29292B" fill-rule="nonzero" transform="translate(1335.000000, 81.000000) rotate(-315.000000) translate(-1335.000000, -81.000000) "></path>
    </g>
</svg>