<?xml version="1.0" encoding="UTF-8"?>
<svg width="75px" height="64px" viewBox="0 0 75 64" version="1.1" xmlns="http://www.w3.org/2000/svg" xmlns:xlink="http://www.w3.org/1999/xlink">
    <!-- Generator: Sketch 48.2 (47327) - http://www.bohemiancoding.com/sketch -->
    <title>contact-box</title>
    <desc>Created with Sketch.</desc>
    <defs></defs>
    <g id="Kontakte" stroke="none" stroke-width="1" fill="none" fill-rule="evenodd" transform="translate(-486.000000, -385.000000)" fill-opacity="0.0529325181">
        <path d="M537.143369,385 C533.359857,385 530.197611,387.775 529.632258,391.4 L509,391.4 C513.510394,394.587501 516.467622,399.85 516.467622,405.8 L516.467622,433 L548.276463,433 C549.158663,433 549.866905,432.287501 549.866905,431.4 L549.866905,415.4 L561,415.4 L561,413.8 C561,411.762501 560.217205,410.062501 559.117562,408.85625 C558.017921,407.65 556.657347,406.88125 555.40239,406.28125 C554.141219,405.68125 552.942175,405.25 552.202867,404.88125 C551.886021,404.725 551.724492,404.60625 551.62509,404.53125 L551.62509,402.08125 C553.190681,400.69375 554.302749,398.787501 554.302749,396.55 L554.302749,392.56875 C554.302749,388.387501 550.867144,385 546.686021,385 C544.766308,385 543.026762,385.737501 541.684827,386.912501 C540.66595,385.937501 539.17491,385 537.143369,385 Z M536.519952,388 C537.650545,388 538.490932,388.68125 539.041112,389.30625 C538.636035,390.24375 538.394197,391.275 538.394197,392.375 L538.394197,396.35 C538.394197,398.587501 539.476421,400.49375 541,401.88125 L541,404.31875 C540.903265,404.39375 540.746071,404.512501 540.437727,404.66875 C539.712213,405.037501 538.545345,405.48125 537.318017,406.087501 C536.090689,406.69375 534.778718,407.46875 533.708586,408.675 C532.934704,409.54375 532.336155,410.68125 532.051995,412 L526,412 C526.350666,409.975 527.112455,408.84375 528.273277,408.13125 C529.016929,407.68125 529.8815,407.33125 530.758163,406.89375 C531.628779,406.45625 532.614269,405.912501 533.230955,404.78125 L533.230955,404.76875 L535.292624,400.79375 L534.113665,399.99375 C532.977026,399.21875 532.203145,397.85 532.203145,396.35 L532.203145,392.375 C532.203145,389.91875 534.077388,388 536.519952,388 Z M546.5,388 C549.002655,388 550.923009,389.91875 550.923009,392.36875 L550.923009,396.35 C550.923009,397.85 550.130089,399.21875 548.971682,399.987501 L548.253098,400.462501 L548.253098,404.64375 C548.253098,405.46875 548.70531,406.187501 549.157522,406.612501 C549.615929,407.037501 550.09292,407.30625 550.600886,407.55 C551.610619,408.05 552.756638,408.462501 553.834513,408.975 C554.918584,409.49375 555.90354,410.1 556.560177,410.81875 C556.832743,411.125 556.826549,411.637501 557,412 L536,412 C536.173451,411.64375 536.167257,411.14375 536.439823,410.837501 C537.102656,410.112501 538.087612,409.49375 539.171681,408.975 C540.255752,408.45625 541.395575,408.03125 542.40531,407.53125 C542.90708,407.287501 543.384071,407.025 543.830088,406.60625 C544.282302,406.187501 544.746902,405.475 544.746902,404.64375 L544.746902,400.46875 L544.034514,399.99375 C542.869912,399.21875 542.076992,397.85 542.076992,396.35 L542.076992,392.375 C542.076992,389.91875 543.997345,388 546.5,388 Z M499.5,391 C491.986902,391.423222 486,397.75891 486,405.50955 L486,431.382915 C486,432.279893 486.713465,433 487.588235,433 L513,433 L513,405.50955 C513,397.75891 507.013098,391.423222 499.5,391 Z M495.571429,407 L503.428571,407 C504.294084,407 505,407.673829 505,408.5 C505,409.326171 504.294084,410 503.428571,410 L495.571429,410 C494.705916,410 494,409.326171 494,408.5 C494,407.673829 494.705916,407 495.571429,407 Z M518,436 L518,449 L528,449 L528,436 L518,436 Z" id="contact-box" fill="#7B7F84" fill-rule="nonzero"></path>
    </g>
</svg>