<?xml version="1.0" encoding="UTF-8"?>
<svg width="21px" height="21px" viewBox="0 0 21 21" version="1.1" xmlns="http://www.w3.org/2000/svg" xmlns:xlink="http://www.w3.org/1999/xlink">
    <!-- Generator: Sketch 49.3 (51167) - http://www.bohemiancoding.com/sketch -->
    <title>social-instagram</title>
    <desc>Created with Sketch.</desc>
    <defs></defs>
    <g id="Page-1" stroke="none" stroke-width="1" fill="none" fill-rule="evenodd">
        <g id="bit.Design" transform="translate(-95.000000, -2667.000000)" fill="#FFFFFF" fill-rule="nonzero">
            <g id="Group-13" transform="translate(78.000000, 2650.000000)">
                <g id="icons8-instagram_new" transform="translate(17.000000, 17.000000)">
                    <path d="M5.83333333,0 C2.61132783,0 0,2.61132783 0,5.83333333 L0,15.1666667 C0,18.3886722 2.61132783,21 5.83333333,21 L15.1666667,21 C18.3886722,21 21,18.3886722 21,15.1666667 L21,5.83333333 C21,2.61132783 18.3886722,0 15.1666667,0 L5.83333333,0 Z M17.5,2.33333333 C18.1425778,2.33333333 18.6666667,2.85742217 18.6666667,3.5 C18.6666667,4.14257783 18.1425778,4.66666667 17.5,4.66666667 C16.8574222,4.66666667 16.3333333,4.14257783 16.3333333,3.5 C16.3333333,2.85742217 16.8574222,2.33333333 17.5,2.33333333 Z M10.5,4.66666667 C13.7220055,4.66666667 16.3333333,7.2779945 16.3333333,10.5 C16.3333333,13.7220055 13.7220055,16.3333333 10.5,16.3333333 C7.2779945,16.3333333 4.66666667,13.7220055 4.66666667,10.5 C4.66666667,7.2779945 7.2779945,4.66666667 10.5,4.66666667 Z M10.5,7 C8.56770833,7 7,8.56770833 7,10.5 C7,12.4322917 8.56770833,14 10.5,14 C12.4322917,14 14,12.4322917 14,10.5 C14,8.56770833 12.4322917,7 10.5,7 Z" id="social-instagram"></path>
                </g>
            </g>
        </g>
    </g>
</svg>