<?xml version="1.0" encoding="UTF-8"?>
<svg width="21px" height="21px" viewBox="0 0 21 21" version="1.1" xmlns="http://www.w3.org/2000/svg" xmlns:xlink="http://www.w3.org/1999/xlink">
    <!-- Generator: Sketch 49.2 (51160) - http://www.bohemiancoding.com/sketch -->
    <title>social-xing</title>
    <desc>Created with Sketch.</desc>
    <defs></defs>
    <g id="Page-1" stroke="none" stroke-width="1" fill="none" fill-rule="evenodd">
        <g id="Alle_Artikel" transform="translate(-157.000000, -486.000000)" fill="#FFFFFF" fill-rule="nonzero">
            <g id="Group-13-Copy" transform="translate(140.000000, 469.000000)">
                <g id="icons8-xing" transform="translate(17.000000, 17.000000)">
                    <path d="M18.9,0 L2.1,0 C0.9433599,0 0,0.9433599 0,2.1 L0,18.9 C0,20.0566412 0.9433599,21 2.1,21 L18.9,21 C20.0566412,21 21,20.0566412 21,18.9 L21,2.1 C21,0.9433599 20.0566412,0 18.9,0 Z M6.7183599,13.7566412 L4.40917995,13.7566412 C4.2,13.7566412 4.0933599,13.5433599 4.2,13.3341799 L6.61582005,8.925 C6.61582005,8.8183599 6.61582005,8.71582005 6.61582005,8.71582005 L5.04082005,5.98417995 C4.93417995,5.775 5.04082005,5.56582005 5.25,5.56582005 L7.55917995,5.56582005 C7.66582005,5.56582005 7.7683599,5.56582005 7.7683599,5.6683599 L9.55664115,8.71582005 C9.55664115,8.8183599 9.55664115,8.925 9.55664115,8.925 L6.93164115,13.65 C6.93164115,13.7566412 6.825,13.7566412 6.7183599,13.7566412 Z M16.8,3.5683599 L12.1816411,12.075 C12.1816411,12.1816412 12.1816411,12.2841799 12.1816411,12.2841799 L15.225,17.5341799 C15.3316411,17.7433599 15.225,17.9566411 15.01582,17.9566411 L12.6,17.9566411 C12.4933599,17.9566411 12.39082,17.9566411 12.39082,17.85 L9.24082005,12.3908201 C9.24082005,12.2841799 9.24082005,12.1816412 9.24082005,12.1816412 L14.0683599,3.46582005 C14.0683599,3.15 14.175,3.15 14.2816411,3.15 L16.59082,3.15 C16.6933599,3.15 16.9066411,3.35917995 16.8,3.5683599 Z" id="social-xing"></path>
                </g>
            </g>
        </g>
    </g>
</svg>