<?xml version="1.0" encoding="UTF-8"?>
<svg width="21px" height="21px" viewBox="0 0 21 21" version="1.1" xmlns="http://www.w3.org/2000/svg" xmlns:xlink="http://www.w3.org/1999/xlink">
    <!-- Generator: Sketch 49.2 (51160) - http://www.bohemiancoding.com/sketch -->
    <title>social-linkedin</title>
    <desc>Created with Sketch.</desc>
    <defs></defs>
    <g id="Page-1" stroke="none" stroke-width="1" fill="none" fill-rule="evenodd">
        <g id="Alle_Artikel" transform="translate(-92.000000, -486.000000)" fill="#FFFFFF" fill-rule="nonzero">
            <g id="Group-13" transform="translate(75.000000, 469.000000)">
                <path d="M35.9,17 L19.1,17 C17.9433599,17 17,17.9433599 17,19.1 L17,35.9 C17,37.0566412 17.9433599,38 19.1,38 L35.9,38 C37.0566412,38 38,37.0566412 38,35.9 L38,19.1 C38,17.9433599 37.0566412,17 35.9,17 Z M23.4066411,33.8 L20.15,33.8 L20.15,24.7683599 L23.4066411,24.7683599 L23.4066411,33.8 Z M21.725,23.7183599 C20.7816411,23.7183599 20.15,23.0908201 20.15,22.25 C20.15,21.40918 20.7816411,20.7816411 21.8316411,20.7816411 C22.775,20.7816411 23.4066411,21.40918 23.4066411,22.25 C23.4066411,23.0908201 22.775,23.7183599 21.725,23.7183599 Z M34.85,33.8 L31.5933599,33.8 L31.5933599,28.86582 C31.5933599,27.5 30.7566412,27.18418 30.44082,27.18418 C30.125,27.18418 29.075,27.3933599 29.075,28.86582 C29.075,29.075 29.075,33.8 29.075,33.8 L25.8183599,33.8 L25.8183599,24.7683599 L29.075,24.7683599 L29.075,26.0316411 C29.4933599,25.2933599 30.3341799,24.7683599 31.90918,24.7683599 C33.4841799,24.7683599 34.7433599,26.0316411 34.7433599,28.86582 L34.7433599,33.8 L34.85,33.8 Z" id="social-linkedin"></path>
            </g>
        </g>
    </g>
</svg>