<?xml version="1.0" encoding="UTF-8"?>
<svg width="21px" height="21px" viewBox="0 0 21 21" version="1.1" xmlns="http://www.w3.org/2000/svg" xmlns:xlink="http://www.w3.org/1999/xlink">
    <!-- Generator: Sketch 49.2 (51160) - http://www.bohemiancoding.com/sketch -->
    <title>social-facebook</title>
    <desc>Created with Sketch.</desc>
    <defs></defs>
    <g id="Page-1" stroke="none" stroke-width="1" fill="none" fill-rule="evenodd">
        <g id="Alle_Artikel" transform="translate(-222.000000, -486.000000)" fill="#FFFFFF" fill-rule="nonzero">
            <g id="Group-13-Copy-2" transform="translate(205.000000, 469.000000)">
                <g id="icons8-facebook" transform="translate(17.000000, 17.000000)">
                    <path d="M18.9,0 L2.1,0 C0.9433599,0 0,0.9433599 0,2.1 L0,18.9 C0,20.0566412 0.9433599,21 2.1,21 L18.9,21 C20.0566412,21 21,20.0566412 21,18.9 L21,2.1 C21,0.9433599 20.0566412,0 18.9,0 Z M17.2183599,5.6683599 L15.75,5.6683599 C14.8066412,5.6683599 14.7,5.98417995 14.7,6.7183599 L14.7,8.08417995 L16.9066411,8.08417995 L16.8,10.5 L14.8066412,10.5 L14.8066412,17.85 L11.4433599,17.85 L11.4433599,10.5 L10.18418,10.5 L10.18418,7.98164115 L11.4433599,7.98164115 L11.4433599,6.40664115 C11.4433599,4.30664115 12.28418,3.15 14.7,3.15 L17.2183599,3.15 L17.2183599,5.6683599 Z" id="social-facebook"></path>
                </g>
            </g>
        </g>
    </g>
</svg>