<?xml version="1.0" encoding="UTF-8"?><!DOCTYPE svg PUBLIC "-//W3C//DTD SVG 1.1//EN" "http://www.w3.org/Graphics/SVG/1.1/DTD/svg11.dtd"><svg xmlns="http://www.w3.org/2000/svg"><symbol id="ico-arrow" viewBox="0 0 9 14">
    <title>
        arrow
    </title>
    <path d="M.77 12.27l.96.96 6-6 .457-.48-.458-.48-6-6-.958.96 5.52 5.52z" fill-rule="nonzero"/>
</symbol><symbol id="ico-close" viewBox="0 0 14 14">
    <title>
        close
    </title>
    <path d="M7 4.179L10.543.636a1.995 1.995 0 1 1 2.821 2.821L9.821 7l3.543 3.543a1.995 1.995 0 0 1-2.821 2.821L7 9.821l-3.543 3.543a1.995 1.995 0 1 1-2.821-2.821L4.179 7 .636 3.457A1.995 1.995 0 0 1 3.457.636L7 4.179z" fill-rule="nonzero"/>
</symbol><symbol id="ico-contact-box" viewBox="0 0 75 64">
    <title>
        contact-box
    </title>
    <path d="M51.143 0c-3.783 0-6.945 2.775-7.51 6.4H23c4.51 3.188 7.468 8.45 7.468 14.4V48h31.808a1.59 1.59 0 0 0 1.59-1.6v-16H75v-1.6c0-2.037-.783-3.737-1.882-4.944-1.1-1.206-2.46-1.975-3.716-2.575-1.26-.6-2.46-1.031-3.2-1.4a3.307 3.307 0 0 1-.577-.35v-2.45c1.566-1.387 2.678-3.293 2.678-5.531V7.569C68.303 3.388 64.867 0 60.686 0c-1.92 0-3.66.738-5.001 1.913C54.665.938 53.175 0 51.143 0zm-.623 3c1.13 0 1.97.681 2.521 1.306a7.705 7.705 0 0 0-.647 3.069v3.975c0 2.238 1.082 4.144 2.606 5.531v2.438a3.205 3.205 0 0 1-.562.35c-.726.369-1.893.812-3.12 1.419-1.227.606-2.54 1.38-3.61 2.587-.773.869-1.372 2.006-1.656 3.325H40c.35-2.025 1.112-3.156 2.273-3.869.744-.45 1.608-.8 2.485-1.237.87-.438 1.856-.981 2.473-2.113v-.012l2.062-3.975-1.18-.8a4.45 4.45 0 0 1-1.91-3.644V7.375C46.203 4.919 48.077 3 50.52 3zm9.98 0c2.503 0 4.423 1.919 4.423 4.369v3.981c0 1.5-.793 2.869-1.951 3.638l-.719.475v4.18c0 .826.452 1.545.905 1.97.458.425.935.693 1.443.937 1.01.5 2.156.913 3.234 1.425 1.084.519 2.069 1.125 2.725 1.844.273.306.267.819.44 1.181H50c.173-.356.167-.856.44-1.162.663-.725 1.648-1.344 2.732-1.863 1.084-.519 2.224-.944 3.233-1.444.502-.243.98-.506 1.425-.925.452-.418.917-1.131.917-1.962v-4.175l-.712-.475a4.421 4.421 0 0 1-1.958-3.644V7.375C56.077 4.919 57.997 3 60.5 3zm-47 3C5.987 6.423 0 12.759 0 20.51v25.873C0 47.28.713 48 1.588 48H27V20.51C27 12.759 21.013 6.423 13.5 6zM9.571 22h7.858c.865 0 1.571.674 1.571 1.5s-.706 1.5-1.571 1.5H9.57C8.706 25 8 24.326 8 23.5S8.706 22 9.571 22zM32 51v13h10V51H32z" fill-rule="nonzero"/>
</symbol><symbol id="ico-page-back" viewBox="0 0 15 24">
    <title>
        page-back
    </title>
    <path d="M5.594 12l8.586-8.766a1 1 0 0 0-.008-1.406L12.637.293a1 1 0 0 0-1.418.004L.293 11.293A.993.993 0 0 0 0 12c0 .258.098.512.293.707l10.926 10.996a1 1 0 0 0 1.418.004l1.535-1.535a1 1 0 0 0 .008-1.406L5.594 12z" fill-rule="nonzero"/>
</symbol><symbol id="ico-phone" viewBox="0 0 18 18">
    <title>
        Shape
    </title>
    <path d="M17 12h-4l-2.563 2.563C7.716 13.03 5 10.457 3.415 7.663c-.004-.02-.016-.047-.016-.062L6 5V1c0-.602-.398-1-1-1H1C.398 0 0 .398 0 1v2c0 7.098 8.941 15 15 15h2c.602 0 1-.398 1-1v-4c0-.602-.398-1-1-1z" fill-rule="nonzero"/>
</symbol><symbol id="ico-social-facebook" viewBox="0 0 21 21">
    <title>
        social-facebook
    </title>
    <path d="M18.9 0H2.1C.943 0 0 .943 0 2.1v16.8C0 20.057.943 21 2.1 21h16.8c1.157 0 2.1-.943 2.1-2.1V2.1C21 .943 20.057 0 18.9 0zm-1.682 5.668H15.75c-.943 0-1.05.316-1.05 1.05v1.366h2.207L16.8 10.5h-1.993v7.35h-3.364V10.5h-1.259V7.982h1.26V6.407c0-2.1.84-3.257 3.256-3.257h2.518v2.518z" fill-rule="nonzero"/>
</symbol><symbol id="ico-social-linkedin" viewBox="0 0 21 21">
    <title>
        social-linkedin
    </title>
    <path d="M18.9 0H2.1C.943 0 0 .943 0 2.1v16.8C0 20.057.943 21 2.1 21h16.8c1.157 0 2.1-.943 2.1-2.1V2.1C21 .943 20.057 0 18.9 0zM6.407 16.8H3.15V7.768h3.257V16.8zM4.725 6.718c-.943 0-1.575-.627-1.575-1.468 0-.84.632-1.468 1.682-1.468.943 0 1.575.627 1.575 1.468 0 .84-.632 1.468-1.682 1.468zM17.85 16.8h-3.257v-4.934c0-1.366-.836-1.682-1.152-1.682-.316 0-1.366.21-1.366 1.682V16.8H8.818V7.768h3.257v1.264c.418-.739 1.26-1.264 2.834-1.264 1.575 0 2.834 1.264 2.834 4.098V16.8h.107z" fill-rule="nonzero"/>
</symbol><symbol id="ico-social-xing" viewBox="0 0 21 21">
    <title>
        social-xing
    </title>
    <path d="M18.9 0H2.1C.943 0 0 .943 0 2.1v16.8C0 20.057.943 21 2.1 21h16.8c1.157 0 2.1-.943 2.1-2.1V2.1C21 .943 20.057 0 18.9 0zM6.718 13.757H4.41c-.209 0-.316-.214-.209-.423l2.416-4.409v-.21L5.04 5.986c-.107-.21 0-.42.209-.42h2.31c.106 0 .208 0 .208.103l1.789 3.048v.209L6.932 13.65c0 .107-.107.107-.214.107zM16.8 3.568l-4.618 8.507v.21l3.043 5.25c.107.208 0 .422-.21.422H12.6c-.107 0-.21 0-.21-.107l-3.15-5.46v-.208l4.828-8.716c0-.316.107-.316.214-.316h2.309c.102 0 .316.21.209.418z" fill-rule="nonzero"/>
</symbol></svg>