
<svg width="388px" viewBox="0 0 388 417" version="1.1" xmlns="http://www.w3.org/2000/svg" xmlns:xlink="http://www.w3.org/1999/xlink">
    <defs>
        <linearGradient x1="115.775243%" y1="-166.475199%" x2="30.4476185%" y2="100%" id="linearGradient-1">
            <stop stop-color="#505053" offset="0%"></stop>
            <stop stop-color="#747476" offset="46.3388871%"></stop>
            <stop stop-color="#515154" offset="100%"></stop>
        </linearGradient>
        <linearGradient x1="24.4266727%" y1="-5.92806599%" x2="61.4518843%" y2="85.821301%" id="linearGradient-2">
            <stop stop-color="#F5FBFD" offset="0%"></stop>
            <stop stop-color="#FFFFFF" offset="100%"></stop>
        </linearGradient>
    </defs>
    <g id="Page-1" stroke="none" stroke-width="1" fill="none" fill-rule="evenodd">
        <g id="Artikel_vorlage" transform="translate(-963.000000, -4201.000000)">
            <g id="blog-cta" transform="translate(963.000000, 4201.000000)">
                <g id="Group-12" transform="translate(174.000000, 45.000000)" stroke="#6AC7DC" stroke-width="4">
                    <path d="M0,9.5 L19,9.5" id="Path-4"></path>
                    <path d="M10,0 L10,19" id="Path-4-Copy"></path>
                </g>
                <path d="M185.244241,0 L107.164393,33.5593727 C106.467798,33.8579168 106.023816,34.5698282 106.000851,35.3353249 C105.977885,36.1008215 106.42187,36.7668041 107.103154,37.1112771 L134.415791,50.7677371 L185.244241,0 Z M188,2.7557879 L137.232789,53.5847647 L150.889108,80.8976848 C151.225923,81.5636674 151.922518,82 152.665042,82 L152.726281,82 C153.491769,81.9770346 154.13478,81.5330475 154.440975,80.8364451 L188,2.7557879 Z" id="Shape-Copy-4" fill="url(#linearGradient-1)" fill-rule="nonzero"></path>
                <path d="M374.960553,29 L5.50956858,187.793129 C2.21348395,189.205753 0.112688864,192.574309 0.00402449149,196.196415 C-0.104639881,199.818521 1.99616447,202.969756 5.2198031,204.599701 L134.455206,269.218073 L374.960553,29 Z M388,42.0395818 L147.784418,282.547423 L212.40212,411.784167 C213.99583,414.935402 217.291915,417 220.805319,417 L221.095084,417 C224.717153,416.891335 227.75969,414.790518 229.208518,411.494399 L388,42.0395818 Z" id="Shape-Copy-5" fill="url(#linearGradient-2)" fill-rule="nonzero"></path>
            </g>
        </g>
    </g>
</svg>
