<?xml version="1.0" encoding="UTF-8"?>
<svg width="452px" height="361px" viewBox="0 0 452 361" version="1.1" xmlns="http://www.w3.org/2000/svg" xmlns:xlink="http://www.w3.org/1999/xlink">
    <!-- Generator: Sketch 48.2 (47327) - http://www.bohemiancoding.com/sketch -->
    <title>heroDesign</title>
    <desc>Created with Sketch.</desc>
    <defs>
        <linearGradient x1="0%" y1="0%" x2="101.999998%" y2="100.999999%" id="linearGradient-1">
            <stop stop-color="#3023AE" offset="0%"></stop>
            <stop stop-color="#C86DD7" offset="100%"></stop>
        </linearGradient>
        <linearGradient x1="49.3796359%" y1="3.17283163%" x2="30.4476185%" y2="100%" id="linearGradient-2">
            <stop stop-color="#F9F9F9" offset="0%"></stop>
            <stop stop-color="#E2E2E2" offset="100%"></stop>
        </linearGradient>
        <linearGradient x1="50%" y1="0%" x2="50%" y2="100%" id="linearGradient-3">
            <stop stop-color="#FAFBFF" offset="0%"></stop>
            <stop stop-color="#F4F6FF" offset="100%"></stop>
        </linearGradient>
        <linearGradient x1="118.676586%" y1="-175.535993%" x2="30.4476185%" y2="100%" id="linearGradient-4">
            <stop stop-color="#F9F9F9" offset="0%"></stop>
            <stop stop-color="#EEEEEE" offset="47.1933708%"></stop>
            <stop stop-color="#E2E2E2" offset="100%"></stop>
        </linearGradient>
        <linearGradient x1="-11.1946856%" y1="189.911771%" x2="108.336256%" y2="-73.3909528%" id="linearGradient-5">
            <stop stop-color="#3CAAC4" offset="0%"></stop>
            <stop stop-color="#7CD2E6" offset="55.7896205%"></stop>
            <stop stop-color="#B4EC51" offset="100%"></stop>
        </linearGradient>
        <path d="M38.5109368,5.43368545e-07 L53.3465697,0 L66.1693766,5.44854279 L77.0218735,18.8121696 L38.5109368,70.2966132 L0,18.8121696 L10.8524969,5.44854279 L23.6753038,0 L38.5109368,5.43368545e-07 Z" id="path-6"></path>
    </defs>
    <g id="bit.Design" stroke="none" stroke-width="1" fill="none" fill-rule="evenodd" transform="translate(-819.000000, -98.000000)">
        <g id="heroDesign" transform="translate(822.000000, 98.000000)">
            <path d="M96.6439554,240.086599 L234.971017,111.12147 L217.423241,127.481618 C209.739993,134.644865 209.319663,146.679027 216.484408,154.360669 C223.649152,162.042312 235.685827,162.462554 243.369075,155.299306 L260.91685,138.939159 L122.589789,267.904288 L133.339778,257.881855 C141.023025,250.718607 141.443355,238.684446 134.278611,231.002803 C127.113867,223.32116 115.077192,222.900918 107.393944,230.064166 L96.6439554,240.086599 Z M45.0490736,132.167005 L111.611854,70.109173 C119.295101,62.9459253 131.331776,63.3661675 138.496521,71.0478102 C145.661265,78.7294528 145.240935,90.7636142 137.557687,97.9268619 L70.9949074,159.984694 C63.3116599,167.147941 51.2749845,166.727699 44.1102403,159.046057 C36.9454962,151.364414 37.3658262,139.330253 45.0490736,132.167005 Z M200.724076,299.073138 L220.093716,281.014429 C227.776964,273.851182 239.813639,274.271424 246.978383,281.953067 C254.143127,289.634709 253.722797,301.668871 246.03955,308.832118 L226.66991,326.890827 C218.986663,334.054075 206.949987,333.633833 199.785243,325.95219 C192.620499,318.270547 193.040829,306.236386 200.724076,299.073138 Z M261.113719,242.770647 L314.005093,193.458946 C321.68834,186.295698 333.725015,186.71594 340.88976,194.397583 C348.054504,202.079225 347.634174,214.113387 339.950926,221.276634 L287.059553,270.588336 C279.376305,277.751584 267.33963,277.331342 260.174886,269.649699 C253.010142,261.968057 253.430472,249.933895 261.113719,242.770647 Z M59.9481328,222.291343 L211.664237,80.671079 C219.347485,73.5078313 231.38416,73.9280735 238.548904,81.6097162 C245.713648,89.2913589 245.293318,101.32552 237.610071,108.488768 L85.8939666,250.109032 C78.2107192,257.272279 66.1740437,256.852037 59.0092996,249.170395 C51.8445554,241.488752 52.2648854,229.454591 59.9481328,222.291343 Z M134.638482,256.670552 L278.464626,122.579011 C286.147874,115.415763 298.184549,115.836005 305.349293,123.517648 C312.514037,131.199291 312.093707,143.233452 304.41046,150.3967 L160.584316,284.488241 C152.901068,291.651489 140.864393,291.231247 133.699649,283.549604 C126.534904,275.867962 126.955234,263.8338 134.638482,256.670552 Z" id="Combined-Shape" fill="#F4F4F4" transform="translate(192.500000, 198.500000) rotate(-105.000000) translate(-192.500000, -198.500000) "></path>
            <circle id="Oval-2" fill="#F4F4F4" cx="395.5" cy="198.5" r="53.5"></circle>
            <circle id="Oval-2-Copy-6" fill="#F4F4F4" cx="62" cy="32" r="32"></circle>
            <circle id="Oval-2-Copy-3" fill="#F4F4F4" cx="275.5" cy="63.5" r="16.5"></circle>
            <circle id="Oval-2-Copy" fill="#F4F4F4" cx="29.5" cy="120.5" r="16.5"></circle>
            <circle id="Oval-2-Copy-2" fill="#F4F4F4" cx="29.5" cy="223.5" r="16.5"></circle>
            <circle id="Oval" stroke="url(#linearGradient-1)" stroke-width="2" cx="288.5" cy="77.5" r="14.5"></circle>
            <polygon id="Star" stroke="url(#linearGradient-1)" stroke-width="2" points="18 237.021286 6.8753882 243 9 230.336881 -2.44249065e-15 221.36881 12.4376941 219.521286 18 208 23.5623059 219.521286 36 221.36881 27 230.336881 29.1246118 243"></polygon>
            <g id="icons8-imac" transform="translate(67.000000, 101.000000)" fill-rule="nonzero">
                <path d="M144.252533,176.167105 C160.29585,176.167105 53.3404063,176.167105 69.3837228,176.167105 C85.4270393,176.167105 85.4270393,149.415804 85.4270393,149.415804 L128.209217,149.415804 C128.209217,149.415804 128.209217,176.167105 144.252533,176.167105 Z" id="Shape" fill="url(#linearGradient-2)"></path>
                <path d="M202.335679,0 L10.6492463,0 C4.79216083,0 0,4.79566007 0,10.6570224 L0,127.884269 L212.984926,127.884269 L212.984926,10.6570224 C212.984926,4.79566007 208.192765,0 202.335679,0 Z" id="Shape" fill="#515151"></path>
                <rect id="Rectangle-path" fill="url(#linearGradient-3)" x="10.4212808" y="10.4395321" width="192.142364" height="106.352734"></rect>
                <g id="icons8-design" transform="translate(74.251625, 31.971067)">
                    <rect id="Rectangle-path" fill="#D8D5D5" transform="translate(32.240837, 32.623538) rotate(-45.000000) translate(-32.240837, -32.623538) " x="22.1452216" y="-2.60988303" width="20.1912315" height="70.4668419"></rect>
                    <g id="Group" transform="translate(14.980591, 5.219766)" fill="#F9FAFF">
                        <polygon id="Rectangle-path" points="4.34833182 14.7949417 2.07277939 12.5154039 9.314725 5.26077511 11.5902774 7.54031284"></polygon>
                        <polygon id="Rectangle-path" points="31.938219 27.922613 34.2149092 30.2032905 30.1917325 34.2335132 27.9150423 31.9528357"></polygon>
                        <rect id="Rectangle-path" transform="translate(3.661084, 3.627079) rotate(45.000000) translate(-3.661084, -3.627079) " x="2.05202521" y="0.777281675" width="3.21811711" height="5.69959562"></rect>
                        <polygon id="Rectangle-path" points="41.6409466 37.6415465 43.916499 39.9210843 39.8933223 43.951307 37.6177699 41.6717692"></polygon>
                        <polygon id="Rectangle-path" points="14.1893398 10.1433903 16.4648922 12.4229281 12.4417156 16.4531508 10.1661631 14.1736131"></polygon>
                        <polygon id="Rectangle-path" points="29.5229618 40.0162471 36.7659316 32.7626443 39.0411622 35.0425044 31.7981924 42.2961073"></polygon>
                    </g>
                    <path d="M62.4826818,8.76063898 L56.3860121,2.65496466 C55.4592382,1.72489482 53.9496821,1.72489482 53.0212383,2.65496466 L50.1524137,5.53215913 L59.6121874,15.0068274 L62.4826818,12.1329785 C63.4111256,11.2012359 63.4111256,9.69405439 62.4826818,8.76063898" id="Shape" fill="#EBEBEB"></path>
                    <rect id="Rectangle-path" fill="#EBEBEB" transform="translate(29.961182, 35.233421) rotate(-45.000000) translate(-29.961182, -35.233421) " x="0.651330048" y="28.7087134" width="58.6197043" height="13.0494152"></rect>
                    <rect id="Rectangle-path" fill="#D8D5D5" transform="translate(52.757734, 12.396944) rotate(134.979744) translate(-52.757734, -12.396944) " x="49.5010837" y="5.87223683" width="6.51330048" height="13.0494152"></rect>
                    <polygon id="Shape" fill="#D8D5D5" points="4.41650121 51.5451899 1.3026601 63.9421343 13.677931 60.8212023"></polygon>
                </g>
                <path d="M0,127.884269 L212.984926,127.884269 L212.984926,138.561063 C212.984926,144.4333 208.192765,149.237857 202.335679,149.237857 L10.6492463,149.237857 C4.79216083,149.237857 0,144.4333 0,138.561063 L0,127.884269 Z M149.089448,175.929843 L63.8954777,175.929843 L63.8954777,186.606637 L149.089448,186.606637 L149.089448,175.929843 Z" id="Shape" fill="url(#linearGradient-4)"></path>
                <ellipse id="Oval" fill="#515151" cx="106.166798" cy="138.323801" rx="5.21064039" ry="5.21976607"></ellipse>
            </g>
            <g id="4" transform="translate(236.000000, 205.000000)">
                <mask id="mask-7" fill="white">
                    <use xlink:href="#path-6"></use>
                </mask>
                <use id="Mask" fill="url(#linearGradient-5)" xlink:href="#path-6"></use>
                <polyline id="Path-230" stroke="#FFFFFF" stroke-width="3" mask="url(#mask-7)" points="10.2695831 5.08056177 22.255832 11.7161022 54.764588 11.7161022 67.2190896 4.68644088"></polyline>
                <polyline id="Path-230" stroke="#FFFFFF" stroke-width="3" mask="url(#mask-7)" points="54.6155103 11.7161022 66.1929926 26.712713 79.3558697 17.234761"></polyline>
                <polyline id="Path-230-Copy" stroke="#FFFFFF" stroke-width="3" mask="url(#mask-7)" transform="translate(10.036184, 19.214408) scale(-1, 1) translate(-10.036184, -19.214408) " points="-2.33399617 11.7161022 9.24348608 26.712713 22.4063632 17.234761"></polyline>
                <path d="M66.2854912,26.712713 L37.8107379,71.7025455" id="Path-230" stroke="#FFFFFF" stroke-width="3" mask="url(#mask-7)"></path>
                <path d="M39.2111356,26.712713 L10.7363824,71.7025455" id="Path-230-Copy-2" stroke="#FFFFFF" stroke-width="3" mask="url(#mask-7)" transform="translate(24.973759, 49.207629) scale(-1, 1) translate(-24.973759, -49.207629) "></path>
                <path d="M11.2031816,26.712713 L65.8186919,26.712713" id="Path-229" stroke="#FFFFFF" stroke-width="3" mask="url(#mask-7)"></path>
            </g>
        </g>
    </g>
</svg>