<?xml version="1.0" encoding="UTF-8"?>
<svg width="574px" viewBox="0 0 574 427" version="1.1" xmlns="http://www.w3.org/2000/svg" xmlns:xlink="http://www.w3.org/1999/xlink">
    <!-- Generator: Sketch 48.2 (47327) - http://www.bohemiancoding.com/sketch -->
    <title>heroDevImage</title>
    <desc>Created with Sketch.</desc>
    <defs>
        <linearGradient x1="-11.1946856%" y1="189.911771%" x2="108.336256%" y2="-73.3909528%" id="linearGradient-1">
            <stop stop-color="#3CAAC4" offset="0%"></stop>
            <stop stop-color="#7CD2E6" offset="55.7896205%"></stop>
            <stop stop-color="#B4EC51" offset="100%"></stop>
        </linearGradient>
        <linearGradient x1="0%" y1="0%" x2="101.999998%" y2="100.999999%" id="linearGradient-2">
            <stop stop-color="#3023AE" offset="0%"></stop>
            <stop stop-color="#C86DD7" offset="100%"></stop>
        </linearGradient>
        <linearGradient x1="-11.1946856%" y1="189.911771%" x2="91.3077113%" y2="-93.6581096%" id="linearGradient-3">
            <stop stop-color="#3CAAC4" offset="0%"></stop>
            <stop stop-color="#7CD2E6" offset="55.7896205%"></stop>
            <stop stop-color="#B4EC51" offset="100%"></stop>
        </linearGradient>
        <linearGradient x1="5.06178243%" y1="5.01215716%" x2="99.1296219%" y2="98.1577637%" id="linearGradient-4">
            <stop stop-color="#281C94" offset="0%"></stop>
            <stop stop-color="#4133BF" offset="100%"></stop>
        </linearGradient>
        <linearGradient x1="0%" y1="100%" x2="108.336256%" y2="-73.3909528%" id="linearGradient-5">
            <stop stop-color="#3CAAC4" offset="0%"></stop>
            <stop stop-color="#7CD2E6" offset="55.7896205%"></stop>
            <stop stop-color="#B4EC51" offset="100%"></stop>
        </linearGradient>
    </defs>
    <g id="bit.Development" stroke="none" stroke-width="1" fill="none" fill-rule="evenodd" transform="translate(-760.000000, -50.000000)">
        <g id="heroDevImage" transform="translate(760.000000, 50.000000)">
            <g id="Group-4">
                <path class="fade" d="M124.729996,290.43459 L280.903973,143.896499 L261.092189,162.485902 C252.417651,170.625224 251.94309,184.299176 260.032227,193.02753 C268.121365,201.755883 281.711008,202.233388 290.385546,194.094067 L310.197331,175.504663 L154.023354,322.042754 L166.160303,310.654651 C174.834841,302.51533 175.309401,288.841377 167.220264,280.113024 C159.131127,271.38467 145.541483,270.907165 136.866945,279.046487 L124.729996,290.43459 Z M66.9046969,167.576206 L142.217233,97.2210513 C150.910453,89.1000554 164.529363,89.5764852 172.635921,98.2851871 C180.74248,106.993889 180.266897,120.637055 171.573677,128.758051 L96.2611413,199.113205 C87.5679219,207.234201 73.9490112,206.757771 65.8424529,198.049069 C57.7358947,189.340368 58.2114775,175.697202 66.9046969,167.576206 Z M242.579914,356.789446 L264.397481,336.363052 C273.051734,328.260628 286.6096,328.735968 294.679822,337.424754 C302.750043,346.113541 302.276592,359.725506 293.622339,367.827931 L271.804772,388.254325 C263.150519,396.356749 249.592653,395.881409 241.522431,387.192623 C233.45221,378.503836 233.925661,364.891871 242.579914,356.789446 Z M310.914467,293.327042 L370.52942,237.530511 C379.189366,229.425247 392.75615,229.900754 400.83168,238.592586 C408.907211,247.284417 408.433448,260.901154 399.773502,269.006418 L340.158549,324.802948 C331.498603,332.908213 317.931819,332.432706 309.856288,323.740874 C301.780758,315.049042 302.254521,301.432306 310.914467,293.327042 Z M83.9887248,270.054242 L255.685969,109.425498 C264.381107,101.300789 278.003023,101.777437 286.11137,110.490121 C294.219717,119.202805 293.744029,132.852209 285.048891,140.976918 L113.351647,301.605662 C104.656509,309.730372 91.0345935,309.253724 82.9262464,300.54104 C74.8178993,291.828356 75.2935871,278.178952 83.9887248,270.054242 Z M168.153448,309.100383 L330.26337,157.012452 C338.923344,148.887826 352.490171,149.364469 360.565727,158.077063 C368.641284,166.789657 368.16752,180.43892 359.507546,188.563545 L197.397624,340.651477 C188.737651,348.776102 175.170823,348.299459 167.095267,339.586866 C159.01971,330.874272 159.493475,317.225009 168.153448,309.100383 Z" id="Combined-Shape" fill-opacity="0.120810688" fill="#F4F4F4" transform="translate(233.326001, 242.731065) rotate(-105.000000) translate(-233.326001, -242.731065) "></path>
                <circle class="move-1" id="Oval-2" fill-opacity="0.15" fill="#F4F4F4" cx="397.476341" cy="272.555205" r="17.0347003"></circle>
                <circle class="move-1" id="Oval-2-Copy-3" fill-opacity="0.15" fill="#F4F4F4" cx="337.85489" cy="110.725552" r="17.0347003"></circle>
                <circle class="move-1" id="Oval-2-Copy" fill-opacity="0.15" fill="#F4F4F4" cx="82.3343849" cy="178.864353" r="17.0347003"></circle>
                <circle class="move-1" id="Oval-2-Copy-4" fill-opacity="0.15" fill="#F4F4F4" cx="46.8454259" cy="46.8454259" r="46.8454259"></circle>
                <circle class="move-1" id="Oval-2-Copy-5" fill-opacity="0.15" fill="#F4F4F4" cx="498.974763" cy="202.287066" r="74.5268139"></circle>
                <circle class="move-1" id="Oval-2-Copy-2" fill-opacity="0.15" fill="#F4F4F4" cx="93.6908517" cy="283.911672" r="17.0347003"></circle>
                <circle class="move-1" id="Oval" stroke="url(#linearGradient-1)" stroke-width="2" cx="349.211356" cy="124.921136" r="14.1955836"></circle>
                <polygon class="move-1" id="Star" class="stroke-1" stroke="url(#linearGradient-1)" stroke-width="2" points="80.2050473 296.546182 69.2383559 302.365931 71.3328076 290.039506 62.4605678 281.309883 74.7217016 279.511482 80.2050473 268.29653 85.688393 279.511482 97.9495268 281.309883 89.0772871 290.039506 91.1717388 302.365931"></polygon>
                <g id="icons8-imac" class="anim-base" transform="translate(129.179811, 163.249211)" fill-rule="nonzero">
                    <path d="M144.217875,175.558668 C160.257337,175.558668 53.3275907,175.558668 69.3670526,175.558668 C85.4065145,175.558668 85.4065145,148.89976 85.4065145,148.89976 L128.178413,148.89976 C128.178413,148.89976 128.178413,175.558668 144.217875,175.558668 Z" id="Shape" fill="url(#linearGradient-2)"></path>
                    <path d="M202.287066,0 L10.6466877,0 C4.79100946,0 0,4.77909709 0,10.6202157 L0,127.442589 L212.933754,127.442589 L212.933754,10.6202157 C212.933754,4.77909709 208.142744,0 202.287066,0 Z" id="Shape" fill="url(#linearGradient-2)"></path>
                    <rect id="Rectangle-path" fill="#6359BB" x="10.418777" y="10.4034766" width="192.0962" height="105.985418"></rect>
                    <path d="M20.8375539,23.4078225 L106.792464,23.4078225 L106.792464,33.8112991 L20.8375539,33.8112991 L20.8375539,23.4078225 Z M20.8375539,53.3178178 L176.468035,53.3178178 L176.468035,63.7212945 L20.8375539,63.7212945 L20.8375539,53.3178178 Z M20.8375539,66.3221636 L176.468035,66.3221636 L176.468035,76.7256403 L20.8375539,76.7256403 L20.8375539,66.3221636 Z M20.8375539,79.3265095 L176.468035,79.3265095 L176.468035,89.7299861 L20.8375539,89.7299861 L20.8375539,79.3265095 Z" id="Combined-Shape" fill="url(#linearGradient-3)"></path>
                    <path d="M0,127.442589 L212.933754,127.442589 L212.933754,138.082508 C212.933754,143.934464 208.142744,148.722428 202.287066,148.722428 L10.6466877,148.722428 C4.79100946,148.722428 0,143.934464 0,138.082508 L0,127.442589 Z M149.053628,175.322226 L63.8801262,175.322226 L63.8801262,185.962145 L149.053628,185.962145 L149.053628,175.322226 Z" id="Shape" fill="url(#linearGradient-4)"></path>
                    <ellipse id="Oval" fill-opacity="0.236696105" fill="#FFFFFF" cx="106.14129" cy="137.846066" rx="5.20938848" ry="5.20173832"></ellipse>
                </g>
                <g id="Group-2" class="anim-base" transform="translate(291.009464, 239.905363)">
                    <rect id="Rectangle-4" fill="#6359BC" x="0" y="0" width="69.5583596" height="107.886435" rx="12"></rect>
                    <rect id="Rectangle-2" fill="url(#linearGradient-2)" x="18.6777077" y="89.1516651" width="32.2029443" height="5.81423903" rx="2.90711951"></rect>
                    <rect id="Rectangle-4-Copy" stroke="url(#linearGradient-4)" stroke-width="5" x="2.5" y="2.5" width="64.5583596" height="102.886435" rx="12"></rect>
                    <g id="Group" transform="translate(14.169295, 22.610930)">
                        <g id="Group-3" fill="url(#linearGradient-2)">
                            <ellipse id="Oval-3" cx="12.1325105" cy="12.2221241" rx="12.1325105" ry="12.2221241"></ellipse>
                            <ellipse id="0" cx="12.1325105" cy="12.2221241" rx="12.1325105" ry="12.2221241"></ellipse>
                            <ellipse id="1" cx="12.3991591" cy="12.4907422" rx="12.1325105" ry="12.2221241"></ellipse>
                            <ellipse id="2" cx="12.2658348" cy="12.3564331" rx="11.9991862" ry="12.087815"></ellipse>
                            <ellipse id="3" cx="12.2658348" cy="12.6250513" rx="11.9991862" ry="12.087815"></ellipse>
                            <ellipse id="4" cx="12.2658348" cy="12.6250513" rx="11.9991862" ry="12.087815"></ellipse>
                            <ellipse id="5" cx="12.5324834" cy="12.6250513" rx="11.9991862" ry="12.087815"></ellipse>
                            <ellipse id="6" cx="12.3991591" cy="12.7593603" rx="11.8658619" ry="11.953506"></ellipse>
                            <ellipse id="7" cx="12.3991591" cy="12.7593603" rx="11.8658619" ry="11.953506"></ellipse>
                            <ellipse id="8" cx="12.6658077" cy="13.0279784" rx="11.8658619" ry="11.953506"></ellipse>
                            <ellipse id="9" cx="12.6658077" cy="13.0279784" rx="11.8658619" ry="11.953506"></ellipse>
                            <ellipse id="10" cx="12.6658077" cy="13.2965965" rx="11.8658619" ry="11.953506"></ellipse>
                            <ellipse id="11" cx="12.799132" cy="13.1622875" rx="11.7325377" ry="11.8191969"></ellipse>
                            <ellipse id="12" cx="12.799132" cy="13.1622875" rx="11.7325377" ry="11.8191969"></ellipse>
                            <ellipse id="13" cx="12.799132" cy="13.4309056" rx="11.7325377" ry="11.8191969"></ellipse>
                            <ellipse id="14" cx="12.799132" cy="13.4309056" rx="11.7325377" ry="11.8191969"></ellipse>
                            <ellipse id="15" cx="12.9324563" cy="13.5652146" rx="11.5992134" ry="11.6848879"></ellipse>
                            <ellipse id="16" cx="12.9324563" cy="13.5652146" rx="11.5992134" ry="11.6848879"></ellipse>
                            <ellipse id="17" cx="12.9324563" cy="13.5652146" rx="11.5992134" ry="11.6848879"></ellipse>
                            <ellipse id="18" cx="13.1991049" cy="13.8338328" rx="11.5992134" ry="11.6848879"></ellipse>
                            <ellipse id="19" cx="13.0657806" cy="13.6995237" rx="11.4658891" ry="11.5505788"></ellipse>
                            <ellipse id="20" cx="13.0657806" cy="13.9681418" rx="11.4658891" ry="11.5505788"></ellipse>
                            <ellipse id="21" cx="13.3324292" cy="13.9681418" rx="11.4658891" ry="11.5505788"></ellipse>
                            <ellipse id="22" cx="13.3324292" cy="13.9681418" rx="11.4658891" ry="11.5505788"></ellipse>
                            <ellipse id="23" cx="13.3324292" cy="14.2367599" rx="11.4658891" ry="11.5505788"></ellipse>
                            <ellipse id="24" cx="13.1991049" cy="14.1024509" rx="11.3325648" ry="11.4162698"></ellipse>
                            <ellipse id="25" cx="13.4657534" cy="14.371069" rx="11.3325648" ry="11.4162698"></ellipse>
                            <ellipse id="26" cx="13.4657534" cy="14.371069" rx="11.3325648" ry="11.4162698"></ellipse>
                            <ellipse id="27" cx="13.4657534" cy="14.371069" rx="11.3325648" ry="11.4162698"></ellipse>
                            <ellipse id="28" cx="13.5990777" cy="14.505378" rx="11.1992405" ry="11.2819607"></ellipse>
                            <ellipse id="29" cx="13.5990777" cy="14.505378" rx="11.1992405" ry="11.2819607"></ellipse>
                            <ellipse id="30" cx="13.5990777" cy="14.7739961" rx="11.1992405" ry="11.2819607"></ellipse>
                            <ellipse id="31" cx="13.8657263" cy="14.7739961" rx="11.1992405" ry="11.2819607"></ellipse>
                            <ellipse id="32" cx="13.8657263" cy="15.0426143" rx="11.1992405" ry="11.2819607"></ellipse>
                            <ellipse id="33" cx="13.732402" cy="14.9083052" rx="11.0659162" ry="11.1476516"></ellipse>
                            <ellipse id="34" cx="13.732402" cy="14.9083052" rx="11.0659162" ry="11.1476516"></ellipse>
                            <ellipse id="35" cx="13.9990506" cy="15.1769233" rx="11.0659162" ry="11.1476516"></ellipse>
                            <ellipse id="36" cx="13.9990506" cy="15.1769233" rx="11.0659162" ry="11.1476516"></ellipse>
                            <ellipse id="37" cx="13.8657263" cy="15.3112324" rx="10.9325919" ry="11.0133426"></ellipse>
                            <ellipse id="38" cx="14.1323749" cy="15.3112324" rx="10.9325919" ry="11.0133426"></ellipse>
                            <ellipse id="39" cx="14.1323749" cy="15.3112324" rx="10.9325919" ry="11.0133426"></ellipse>
                            <ellipse id="40" cx="14.1323749" cy="15.5798505" rx="10.9325919" ry="11.0133426"></ellipse>
                            <ellipse id="41" cx="14.1323749" cy="15.5798505" rx="10.9325919" ry="11.0133426"></ellipse>
                            <ellipse id="42" cx="14.2656992" cy="15.7141595" rx="10.7992676" ry="10.8790335"></ellipse>
                            <ellipse id="43" cx="14.2656992" cy="15.7141595" rx="10.7992676" ry="10.8790335"></ellipse>
                            <ellipse id="44" cx="14.2656992" cy="15.7141595" rx="10.7992676" ry="10.8790335"></ellipse>
                            <ellipse id="45" cx="14.5323478" cy="15.9827777" rx="10.7992676" ry="10.8790335"></ellipse>
                            <ellipse id="46" cx="14.3990235" cy="15.8484686" rx="10.6659433" ry="10.7447245"></ellipse>
                            <ellipse id="47" cx="14.3990235" cy="16.1170867" rx="10.6659433" ry="10.7447245"></ellipse>
                            <ellipse id="48" cx="14.6656721" cy="16.1170867" rx="10.6659433" ry="10.7447245"></ellipse>
                            <ellipse id="49" cx="14.6656721" cy="16.1170867" rx="10.6659433" ry="10.7447245"></ellipse>
                            <ellipse id="50" cx="14.6656721" cy="16.3857048" rx="10.6659433" ry="10.7447245"></ellipse>
                            <ellipse id="51" cx="14.5323478" cy="16.2513958" rx="10.532619" ry="10.6104154"></ellipse>
                            <ellipse id="52" cx="14.7989964" cy="16.5200139" rx="10.532619" ry="10.6104154"></ellipse>
                            <ellipse id="53" cx="14.7989964" cy="16.5200139" rx="10.532619" ry="10.6104154"></ellipse>
                            <ellipse id="54" cx="14.7989964" cy="16.788632" rx="10.532619" ry="10.6104154"></ellipse>
                            <ellipse id="55" cx="14.9323207" cy="16.6543229" rx="10.3992947" ry="10.4761064"></ellipse>
                            <ellipse id="56" cx="14.9323207" cy="16.6543229" rx="10.3992947" ry="10.4761064"></ellipse>
                            <ellipse id="57" cx="14.9323207" cy="16.922941" rx="10.3992947" ry="10.4761064"></ellipse>
                            <ellipse id="58" cx="15.1989692" cy="16.922941" rx="10.3992947" ry="10.4761064"></ellipse>
                            <ellipse id="59" cx="15.0656449" cy="17.0572501" rx="10.2659705" ry="10.3417973"></ellipse>
                            <ellipse id="60" cx="15.0656449" cy="17.0572501" rx="10.2659705" ry="10.3417973"></ellipse>
                            <ellipse id="61" cx="15.0656449" cy="17.0572501" rx="10.2659705" ry="10.3417973"></ellipse>
                            <ellipse id="62" cx="15.3322935" cy="17.3258682" rx="10.2659705" ry="10.3417973"></ellipse>
                            <ellipse id="63" cx="15.3322935" cy="17.3258682" rx="10.2659705" ry="10.3417973"></ellipse>
                            <ellipse id="64" cx="15.1989692" cy="17.4601773" rx="10.1326462" ry="10.2074882"></ellipse>
                            <ellipse id="65" cx="15.4656178" cy="17.4601773" rx="10.1326462" ry="10.2074882"></ellipse>
                            <ellipse id="66" cx="15.4656178" cy="17.4601773" rx="10.1326462" ry="10.2074882"></ellipse>
                            <ellipse id="67" cx="15.4656178" cy="17.7287954" rx="10.1326462" ry="10.2074882"></ellipse>
                            <ellipse id="68" cx="15.3322935" cy="17.5944863" rx="9.99932187" ry="10.0731792"></ellipse>
                            <ellipse id="69" cx="15.5989421" cy="17.8631044" rx="9.99932187" ry="10.0731792"></ellipse>
                            <ellipse id="70" cx="15.5989421" cy="17.8631044" rx="9.99932187" ry="10.0731792"></ellipse>
                            <ellipse id="71" cx="15.5989421" cy="17.8631044" rx="9.99932187" ry="10.0731792"></ellipse>
                            <ellipse id="72" cx="15.8655907" cy="18.1317225" rx="9.99932187" ry="10.0731792"></ellipse>
                            <ellipse id="73" cx="15.7322664" cy="17.9974135" rx="9.86599758" ry="9.93887014"></ellipse>
                            <ellipse id="74" cx="15.7322664" cy="18.2660316" rx="9.86599758" ry="9.93887014"></ellipse>
                            <ellipse id="75" cx="15.998915" cy="18.2660316" rx="9.86599758" ry="9.93887014"></ellipse>
                            <ellipse id="76" cx="15.998915" cy="18.5346497" rx="9.86599758" ry="9.93887014"></ellipse>
                            <ellipse id="77" cx="15.8655907" cy="18.4003407" rx="9.73267328" ry="9.80456108"></ellipse>
                            <ellipse id="78" cx="15.8655907" cy="18.4003407" rx="9.73267328" ry="9.80456108"></ellipse>
                            <ellipse id="79" cx="16.1322393" cy="18.6689588" rx="9.73267328" ry="9.80456108"></ellipse>
                            <ellipse id="80" cx="16.1322393" cy="18.6689588" rx="9.73267328" ry="9.80456108"></ellipse>
                            <ellipse id="81" cx="16.1322393" cy="18.9375769" rx="9.73267328" ry="9.80456108"></ellipse>
                            <ellipse id="82" cx="16.2655636" cy="18.8032678" rx="9.59934899" ry="9.67025202"></ellipse>
                            <ellipse id="83" cx="16.2655636" cy="18.8032678" rx="9.59934899" ry="9.67025202"></ellipse>
                            <ellipse id="84" cx="16.2655636" cy="19.0718859" rx="9.59934899" ry="9.67025202"></ellipse>
                            <ellipse id="85" cx="16.5322122" cy="19.0718859" rx="9.59934899" ry="9.67025202"></ellipse>
                            <ellipse id="86" cx="16.3988879" cy="19.206195" rx="9.4660247" ry="9.53594297"></ellipse>
                            <ellipse id="87" cx="16.3988879" cy="19.206195" rx="9.4660247" ry="9.53594297"></ellipse>
                            <ellipse id="88" cx="16.3988879" cy="19.206195" rx="9.4660247" ry="9.53594297"></ellipse>
                            <ellipse id="89" cx="16.6655364" cy="19.4748131" rx="9.4660247" ry="9.53594297"></ellipse>
                            <ellipse id="90" cx="16.6655364" cy="19.4748131" rx="9.4660247" ry="9.53594297"></ellipse>
                            <ellipse id="91" cx="16.5322122" cy="19.6091222" rx="9.33270041" ry="9.40163391"></ellipse>
                            <ellipse id="92" cx="16.7988607" cy="19.6091222" rx="9.33270041" ry="9.40163391"></ellipse>
                            <ellipse id="93" cx="16.7988607" cy="19.8777403" rx="9.33270041" ry="9.40163391"></ellipse>
                            <ellipse id="94" cx="16.7988607" cy="19.8777403" rx="9.33270041" ry="9.40163391"></ellipse>
                            <ellipse id="95" cx="16.932185" cy="19.7434312" rx="9.19937612" ry="9.26732486"></ellipse>
                            <ellipse id="96" cx="16.932185" cy="20.0120493" rx="9.19937612" ry="9.26732486"></ellipse>
                            <ellipse id="97" cx="16.932185" cy="20.0120493" rx="9.19937612" ry="9.26732486"></ellipse>
                            <ellipse id="98" cx="16.932185" cy="20.2806674" rx="9.19937612" ry="9.26732486"></ellipse>
                            <ellipse id="99" cx="17.0655093" cy="20.1463584" rx="9.06605183" ry="9.1330158"></ellipse>
                            <ellipse id="Oval-3-Copy" cx="17.0655093" cy="20.1463584" rx="9.06605183" ry="9.1330158"></ellipse>
                            <ellipse id="0" cx="17.1988336" cy="20.2806674" rx="9.19937612" ry="9.26732486"></ellipse>
                            <ellipse id="1" cx="17.4654822" cy="20.2806674" rx="9.19937612" ry="9.26732486"></ellipse>
                            <ellipse id="2" cx="17.4654822" cy="20.2806674" rx="9.19937612" ry="9.26732486"></ellipse>
                            <ellipse id="3" cx="17.4654822" cy="20.2806674" rx="9.19937612" ry="9.26732486"></ellipse>
                            <ellipse id="4" cx="17.8654551" cy="20.4149765" rx="9.33270041" ry="9.40163391"></ellipse>
                            <ellipse id="5" cx="17.8654551" cy="20.6835946" rx="9.33270041" ry="9.40163391"></ellipse>
                            <ellipse id="6" cx="17.8654551" cy="20.6835946" rx="9.33270041" ry="9.40163391"></ellipse>
                            <ellipse id="7" cx="18.1321037" cy="20.6835946" rx="9.33270041" ry="9.40163391"></ellipse>
                            <ellipse id="8" cx="18.1321037" cy="20.6835946" rx="9.33270041" ry="9.40163391"></ellipse>
                            <ellipse id="9" cx="18.2654279" cy="20.8179037" rx="9.4660247" ry="9.53594297"></ellipse>
                            <ellipse id="10" cx="18.5320765" cy="20.8179037" rx="9.4660247" ry="9.53594297"></ellipse>
                            <ellipse id="11" cx="18.5320765" cy="20.8179037" rx="9.4660247" ry="9.53594297"></ellipse>
                            <ellipse id="12" cx="18.5320765" cy="20.8179037" rx="9.4660247" ry="9.53594297"></ellipse>
                            <ellipse id="13" cx="18.9320494" cy="20.9522127" rx="9.59934899" ry="9.67025202"></ellipse>
                            <ellipse id="14" cx="18.9320494" cy="20.9522127" rx="9.59934899" ry="9.67025202"></ellipse>
                            <ellipse id="15" cx="18.9320494" cy="20.9522127" rx="9.59934899" ry="9.67025202"></ellipse>
                            <ellipse id="16" cx="19.198698" cy="20.9522127" rx="9.59934899" ry="9.67025202"></ellipse>
                            <ellipse id="17" cx="19.3320223" cy="21.0865218" rx="9.73267328" ry="9.80456108"></ellipse>
                            <ellipse id="18" cx="19.3320223" cy="21.0865218" rx="9.73267328" ry="9.80456108"></ellipse>
                            <ellipse id="19" cx="19.5986709" cy="21.0865218" rx="9.73267328" ry="9.80456108"></ellipse>
                            <ellipse id="20" cx="19.5986709" cy="21.0865218" rx="9.73267328" ry="9.80456108"></ellipse>
                            <ellipse id="21" cx="19.7319952" cy="21.2208308" rx="9.86599758" ry="9.93887014"></ellipse>
                            <ellipse id="22" cx="19.9986437" cy="21.2208308" rx="9.86599758" ry="9.93887014"></ellipse>
                            <ellipse id="23" cx="19.9986437" cy="21.2208308" rx="9.86599758" ry="9.93887014"></ellipse>
                            <ellipse id="24" cx="19.9986437" cy="21.2208308" rx="9.86599758" ry="9.93887014"></ellipse>
                            <ellipse id="25" cx="20.3986166" cy="21.3551399" rx="9.99932187" ry="10.0731792"></ellipse>
                            <ellipse id="26" cx="20.3986166" cy="21.3551399" rx="9.99932187" ry="10.0731792"></ellipse>
                            <ellipse id="27" cx="20.3986166" cy="21.3551399" rx="9.99932187" ry="10.0731792"></ellipse>
                            <ellipse id="28" cx="20.6652652" cy="21.3551399" rx="9.99932187" ry="10.0731792"></ellipse>
                            <ellipse id="29" cx="20.7985895" cy="21.4894489" rx="10.1326462" ry="10.2074882"></ellipse>
                            <ellipse id="30" cx="20.7985895" cy="21.4894489" rx="10.1326462" ry="10.2074882"></ellipse>
                            <ellipse id="31" cx="21.0652381" cy="21.4894489" rx="10.1326462" ry="10.2074882"></ellipse>
                            <ellipse id="32" cx="21.0652381" cy="21.4894489" rx="10.1326462" ry="10.2074882"></ellipse>
                            <ellipse id="33" cx="21.1985624" cy="21.623758" rx="10.2659705" ry="10.3417973"></ellipse>
                            <ellipse id="34" cx="21.4652109" cy="21.623758" rx="10.2659705" ry="10.3417973"></ellipse>
                            <ellipse id="35" cx="21.4652109" cy="21.623758" rx="10.2659705" ry="10.3417973"></ellipse>
                            <ellipse id="36" cx="21.4652109" cy="21.623758" rx="10.2659705" ry="10.3417973"></ellipse>
                            <ellipse id="37" cx="21.8651838" cy="21.7580671" rx="10.3992947" ry="10.4761064"></ellipse>
                            <ellipse id="38" cx="21.8651838" cy="21.7580671" rx="10.3992947" ry="10.4761064"></ellipse>
                            <ellipse id="39" cx="21.8651838" cy="21.7580671" rx="10.3992947" ry="10.4761064"></ellipse>
                            <ellipse id="40" cx="22.1318324" cy="21.7580671" rx="10.3992947" ry="10.4761064"></ellipse>
                            <ellipse id="41" cx="22.2651567" cy="21.8923761" rx="10.532619" ry="10.6104154"></ellipse>
                            <ellipse id="42" cx="22.2651567" cy="21.8923761" rx="10.532619" ry="10.6104154"></ellipse>
                            <ellipse id="43" cx="22.5318053" cy="22.1609942" rx="10.532619" ry="10.6104154"></ellipse>
                            <ellipse id="44" cx="22.5318053" cy="22.1609942" rx="10.532619" ry="10.6104154"></ellipse>
                            <ellipse id="45" cx="22.6651296" cy="22.2953033" rx="10.6659433" ry="10.7447245"></ellipse>
                            <ellipse id="46" cx="22.9317781" cy="22.2953033" rx="10.6659433" ry="10.7447245"></ellipse>
                            <ellipse id="47" cx="22.9317781" cy="22.2953033" rx="10.6659433" ry="10.7447245"></ellipse>
                            <ellipse id="48" cx="22.9317781" cy="22.2953033" rx="10.6659433" ry="10.7447245"></ellipse>
                            <ellipse id="49" cx="23.331751" cy="22.4296123" rx="10.7992676" ry="10.8790335"></ellipse>
                            <ellipse id="50" cx="23.331751" cy="22.4296123" rx="10.7992676" ry="10.8790335"></ellipse>
                            <ellipse id="51" cx="23.5983996" cy="22.4296123" rx="10.7992676" ry="10.8790335"></ellipse>
                            <ellipse id="52" cx="23.5983996" cy="22.4296123" rx="10.7992676" ry="10.8790335"></ellipse>
                            <ellipse id="53" cx="23.7317239" cy="22.5639214" rx="10.9325919" ry="11.0133426"></ellipse>
                            <ellipse id="54" cx="23.9983725" cy="22.5639214" rx="10.9325919" ry="11.0133426"></ellipse>
                            <ellipse id="55" cx="23.9983725" cy="22.5639214" rx="10.9325919" ry="11.0133426"></ellipse>
                            <ellipse id="56" cx="23.9983725" cy="22.5639214" rx="10.9325919" ry="11.0133426"></ellipse>
                            <ellipse id="57" cx="24.3983454" cy="22.6982304" rx="11.0659162" ry="11.1476516"></ellipse>
                            <ellipse id="58" cx="24.3983454" cy="22.6982304" rx="11.0659162" ry="11.1476516"></ellipse>
                            <ellipse id="59" cx="24.3983454" cy="22.6982304" rx="11.0659162" ry="11.1476516"></ellipse>
                            <ellipse id="60" cx="24.6649939" cy="22.6982304" rx="11.0659162" ry="11.1476516"></ellipse>
                            <ellipse id="61" cx="24.7983182" cy="22.8325395" rx="11.1992405" ry="11.2819607"></ellipse>
                            <ellipse id="62" cx="24.7983182" cy="22.8325395" rx="11.1992405" ry="11.2819607"></ellipse>
                            <ellipse id="63" cx="25.0649668" cy="22.8325395" rx="11.1992405" ry="11.2819607"></ellipse>
                            <ellipse id="64" cx="25.0649668" cy="22.8325395" rx="11.1992405" ry="11.2819607"></ellipse>
                            <ellipse id="65" cx="25.1982911" cy="22.9668486" rx="11.3325648" ry="11.4162698"></ellipse>
                            <ellipse id="66" cx="25.4649397" cy="22.9668486" rx="11.3325648" ry="11.4162698"></ellipse>
                            <ellipse id="67" cx="25.4649397" cy="22.9668486" rx="11.3325648" ry="11.4162698"></ellipse>
                            <ellipse id="68" cx="25.4649397" cy="22.9668486" rx="11.3325648" ry="11.4162698"></ellipse>
                            <ellipse id="69" cx="25.8649126" cy="23.1011576" rx="11.4658891" ry="11.5505788"></ellipse>
                            <ellipse id="70" cx="25.8649126" cy="23.1011576" rx="11.4658891" ry="11.5505788"></ellipse>
                            <ellipse id="71" cx="25.8649126" cy="23.1011576" rx="11.4658891" ry="11.5505788"></ellipse>
                            <ellipse id="72" cx="26.1315611" cy="23.1011576" rx="11.4658891" ry="11.5505788"></ellipse>
                            <ellipse id="73" cx="26.2648854" cy="23.2354667" rx="11.5992134" ry="11.6848879"></ellipse>
                            <ellipse id="74" cx="26.2648854" cy="23.2354667" rx="11.5992134" ry="11.6848879"></ellipse>
                            <ellipse id="75" cx="26.531534" cy="23.2354667" rx="11.5992134" ry="11.6848879"></ellipse>
                            <ellipse id="76" cx="26.531534" cy="23.2354667" rx="11.5992134" ry="11.6848879"></ellipse>
                            <ellipse id="77" cx="26.6648583" cy="23.3697757" rx="11.7325377" ry="11.8191969"></ellipse>
                            <ellipse id="78" cx="26.9315069" cy="23.3697757" rx="11.7325377" ry="11.8191969"></ellipse>
                            <ellipse id="79" cx="26.9315069" cy="23.3697757" rx="11.7325377" ry="11.8191969"></ellipse>
                            <ellipse id="80" cx="26.9315069" cy="23.3697757" rx="11.7325377" ry="11.8191969"></ellipse>
                            <ellipse id="81" cx="27.3314798" cy="23.7727029" rx="11.8658619" ry="11.953506"></ellipse>
                            <ellipse id="82" cx="27.3314798" cy="23.7727029" rx="11.8658619" ry="11.953506"></ellipse>
                            <ellipse id="83" cx="27.3314798" cy="23.7727029" rx="11.8658619" ry="11.953506"></ellipse>
                            <ellipse id="84" cx="27.5981284" cy="23.7727029" rx="11.8658619" ry="11.953506"></ellipse>
                            <ellipse id="85" cx="27.7314526" cy="23.9070119" rx="11.9991862" ry="12.087815"></ellipse>
                            <ellipse id="86" cx="27.7314526" cy="23.9070119" rx="11.9991862" ry="12.087815"></ellipse>
                            <ellipse id="87" cx="27.9981012" cy="23.9070119" rx="11.9991862" ry="12.087815"></ellipse>
                            <ellipse id="88" cx="27.9981012" cy="23.9070119" rx="11.9991862" ry="12.087815"></ellipse>
                            <ellipse id="89" cx="28.1314255" cy="24.041321" rx="12.1325105" ry="12.2221241"></ellipse>
                            <ellipse id="90" cx="28.3980741" cy="24.041321" rx="12.1325105" ry="12.2221241"></ellipse>
                            <ellipse id="91" cx="28.3980741" cy="24.041321" rx="12.1325105" ry="12.2221241"></ellipse>
                            <ellipse id="92" cx="28.3980741" cy="24.041321" rx="12.1325105" ry="12.2221241"></ellipse>
                            <ellipse id="93" cx="28.798047" cy="24.1756301" rx="12.2658348" ry="12.3564331"></ellipse>
                            <ellipse id="94" cx="28.798047" cy="24.1756301" rx="12.2658348" ry="12.3564331"></ellipse>
                            <ellipse id="95" cx="28.798047" cy="24.1756301" rx="12.2658348" ry="12.3564331"></ellipse>
                            <ellipse id="96" cx="29.0646956" cy="24.1756301" rx="12.2658348" ry="12.3564331"></ellipse>
                            <ellipse id="97" cx="29.1980199" cy="24.3099391" rx="12.3991591" ry="12.4907422"></ellipse>
                            <ellipse id="98" cx="29.1980199" cy="24.3099391" rx="12.3991591" ry="12.4907422"></ellipse>
                            <ellipse id="99" cx="29.4646684" cy="24.3099391" rx="12.3991591" ry="12.4907422"></ellipse>
                            <ellipse id="Oval-3-Copy-2" cx="29.4646684" cy="24.3099391" rx="12.3991591" ry="12.4907422"></ellipse>
                            <ellipse id="0" cx="29.1980199" cy="24.3099391" rx="12.3991591" ry="12.4907422"></ellipse>
                            <ellipse id="1" cx="29.1980199" cy="24.5785572" rx="12.3991591" ry="12.4907422"></ellipse>
                            <ellipse id="2" cx="28.9313713" cy="24.5785572" rx="12.3991591" ry="12.4907422"></ellipse>
                            <ellipse id="3" cx="28.9313713" cy="24.5785572" rx="12.3991591" ry="12.4907422"></ellipse>
                            <ellipse id="4" cx="28.6647227" cy="24.8471753" rx="12.3991591" ry="12.4907422"></ellipse>
                            <ellipse id="5" cx="28.3980741" cy="24.8471753" rx="12.3991591" ry="12.4907422"></ellipse>
                            <ellipse id="6" cx="28.3980741" cy="24.8471753" rx="12.3991591" ry="12.4907422"></ellipse>
                            <ellipse id="7" cx="28.1314255" cy="25.1157935" rx="12.3991591" ry="12.4907422"></ellipse>
                            <ellipse id="8" cx="28.1314255" cy="25.1157935" rx="12.3991591" ry="12.4907422"></ellipse>
                            <ellipse id="9" cx="27.8647769" cy="25.1157935" rx="12.3991591" ry="12.4907422"></ellipse>
                            <ellipse id="10" cx="27.8647769" cy="25.1157935" rx="12.3991591" ry="12.4907422"></ellipse>
                            <ellipse id="11" cx="27.5981284" cy="25.3844116" rx="12.3991591" ry="12.4907422"></ellipse>
                            <ellipse id="12" cx="27.3314798" cy="25.3844116" rx="12.3991591" ry="12.4907422"></ellipse>
                            <ellipse id="13" cx="27.3314798" cy="25.3844116" rx="12.3991591" ry="12.4907422"></ellipse>
                            <ellipse id="14" cx="27.0648312" cy="25.6530297" rx="12.3991591" ry="12.4907422"></ellipse>
                            <ellipse id="15" cx="27.0648312" cy="25.6530297" rx="12.3991591" ry="12.4907422"></ellipse>
                            <ellipse id="16" cx="26.7981826" cy="25.6530297" rx="12.3991591" ry="12.4907422"></ellipse>
                            <ellipse id="17" cx="26.531534" cy="25.9216478" rx="12.3991591" ry="12.4907422"></ellipse>
                            <ellipse id="18" cx="26.531534" cy="25.9216478" rx="12.3991591" ry="12.4907422"></ellipse>
                            <ellipse id="19" cx="26.2648854" cy="25.9216478" rx="12.3991591" ry="12.4907422"></ellipse>
                            <ellipse id="20" cx="26.2648854" cy="26.1902659" rx="12.3991591" ry="12.4907422"></ellipse>
                            <ellipse id="21" cx="25.9982369" cy="26.1902659" rx="12.3991591" ry="12.4907422"></ellipse>
                            <ellipse id="22" cx="25.9982369" cy="26.1902659" rx="12.3991591" ry="12.4907422"></ellipse>
                            <ellipse id="23" cx="25.7315883" cy="26.458884" rx="12.3991591" ry="12.4907422"></ellipse>
                            <ellipse id="24" cx="25.4649397" cy="26.458884" rx="12.3991591" ry="12.4907422"></ellipse>
                            <ellipse id="25" cx="25.4649397" cy="26.458884" rx="12.3991591" ry="12.4907422"></ellipse>
                            <ellipse id="26" cx="25.1982911" cy="26.7275021" rx="12.3991591" ry="12.4907422"></ellipse>
                            <ellipse id="27" cx="25.1982911" cy="26.7275021" rx="12.3991591" ry="12.4907422"></ellipse>
                            <ellipse id="28" cx="24.9316425" cy="26.7275021" rx="12.3991591" ry="12.4907422"></ellipse>
                            <ellipse id="29" cx="24.6649939" cy="26.9961202" rx="12.3991591" ry="12.4907422"></ellipse>
                            <ellipse id="30" cx="24.6649939" cy="26.9961202" rx="12.3991591" ry="12.4907422"></ellipse>
                            <ellipse id="31" cx="24.3983454" cy="26.9961202" rx="12.3991591" ry="12.4907422"></ellipse>
                            <ellipse id="32" cx="24.3983454" cy="26.9961202" rx="12.3991591" ry="12.4907422"></ellipse>
                            <ellipse id="33" cx="24.1316968" cy="27.2647383" rx="12.3991591" ry="12.4907422"></ellipse>
                            <ellipse id="34" cx="24.1316968" cy="27.2647383" rx="12.3991591" ry="12.4907422"></ellipse>
                            <ellipse id="35" cx="23.8650482" cy="27.2647383" rx="12.3991591" ry="12.4907422"></ellipse>
                            <ellipse id="36" cx="23.5983996" cy="27.5333565" rx="12.3991591" ry="12.4907422"></ellipse>
                            <ellipse id="37" cx="23.5983996" cy="27.5333565" rx="12.3991591" ry="12.4907422"></ellipse>
                            <ellipse id="38" cx="23.331751" cy="27.5333565" rx="12.3991591" ry="12.4907422"></ellipse>
                            <ellipse id="39" cx="23.331751" cy="27.8019746" rx="12.3991591" ry="12.4907422"></ellipse>
                            <ellipse id="40" cx="23.0651024" cy="27.8019746" rx="12.3991591" ry="12.4907422"></ellipse>
                            <ellipse id="41" cx="22.7984539" cy="27.8019746" rx="12.3991591" ry="12.4907422"></ellipse>
                            <ellipse id="42" cx="22.7984539" cy="28.0705927" rx="12.3991591" ry="12.4907422"></ellipse>
                            <ellipse id="43" cx="22.5318053" cy="28.0705927" rx="12.3991591" ry="12.4907422"></ellipse>
                            <ellipse id="44" cx="22.5318053" cy="28.0705927" rx="12.3991591" ry="12.4907422"></ellipse>
                            <ellipse id="45" cx="22.2651567" cy="28.3392108" rx="12.3991591" ry="12.4907422"></ellipse>
                            <ellipse id="46" cx="22.2651567" cy="28.3392108" rx="12.3991591" ry="12.4907422"></ellipse>
                            <ellipse id="47" cx="21.9985081" cy="28.3392108" rx="12.3991591" ry="12.4907422"></ellipse>
                            <ellipse id="48" cx="21.7318595" cy="28.6078289" rx="12.3991591" ry="12.4907422"></ellipse>
                            <ellipse id="49" cx="21.7318595" cy="28.6078289" rx="12.3991591" ry="12.4907422"></ellipse>
                            <ellipse id="50" cx="21.4652109" cy="28.6078289" rx="12.3991591" ry="12.4907422"></ellipse>
                            <ellipse id="51" cx="21.4652109" cy="28.6078289" rx="12.3991591" ry="12.4907422"></ellipse>
                            <ellipse id="52" cx="21.1985624" cy="28.876447" rx="12.3991591" ry="12.4907422"></ellipse>
                            <ellipse id="53" cx="20.9319138" cy="28.876447" rx="12.3991591" ry="12.4907422"></ellipse>
                            <ellipse id="54" cx="20.9319138" cy="28.876447" rx="12.3991591" ry="12.4907422"></ellipse>
                            <ellipse id="55" cx="20.6652652" cy="29.1450651" rx="12.3991591" ry="12.4907422"></ellipse>
                            <ellipse id="56" cx="20.6652652" cy="29.1450651" rx="12.3991591" ry="12.4907422"></ellipse>
                            <ellipse id="57" cx="20.3986166" cy="29.1450651" rx="12.3991591" ry="12.4907422"></ellipse>
                            <ellipse id="58" cx="20.3986166" cy="29.4136832" rx="12.3991591" ry="12.4907422"></ellipse>
                            <ellipse id="59" cx="20.131968" cy="29.4136832" rx="12.3991591" ry="12.4907422"></ellipse>
                            <ellipse id="60" cx="19.8653194" cy="29.4136832" rx="12.3991591" ry="12.4907422"></ellipse>
                            <ellipse id="61" cx="19.8653194" cy="29.6823014" rx="12.3991591" ry="12.4907422"></ellipse>
                            <ellipse id="62" cx="19.5986709" cy="29.6823014" rx="12.3991591" ry="12.4907422"></ellipse>
                            <ellipse id="63" cx="19.5986709" cy="29.6823014" rx="12.3991591" ry="12.4907422"></ellipse>
                            <ellipse id="64" cx="19.3320223" cy="29.9509195" rx="12.3991591" ry="12.4907422"></ellipse>
                            <ellipse id="65" cx="19.0653737" cy="29.9509195" rx="12.3991591" ry="12.4907422"></ellipse>
                            <ellipse id="66" cx="19.0653737" cy="29.9509195" rx="12.3991591" ry="12.4907422"></ellipse>
                            <ellipse id="67" cx="18.7987251" cy="30.2195376" rx="12.3991591" ry="12.4907422"></ellipse>
                            <ellipse id="68" cx="18.7987251" cy="30.2195376" rx="12.3991591" ry="12.4907422"></ellipse>
                            <ellipse id="69" cx="18.5320765" cy="30.2195376" rx="12.3991591" ry="12.4907422"></ellipse>
                            <ellipse id="70" cx="18.5320765" cy="30.2195376" rx="12.3991591" ry="12.4907422"></ellipse>
                            <ellipse id="71" cx="18.2654279" cy="30.4881557" rx="12.3991591" ry="12.4907422"></ellipse>
                            <ellipse id="72" cx="17.9987794" cy="30.4881557" rx="12.3991591" ry="12.4907422"></ellipse>
                            <ellipse id="73" cx="17.9987794" cy="30.4881557" rx="12.3991591" ry="12.4907422"></ellipse>
                            <ellipse id="74" cx="17.7321308" cy="30.7567738" rx="12.3991591" ry="12.4907422"></ellipse>
                            <ellipse id="75" cx="17.7321308" cy="30.7567738" rx="12.3991591" ry="12.4907422"></ellipse>
                            <ellipse id="76" cx="17.4654822" cy="30.7567738" rx="12.3991591" ry="12.4907422"></ellipse>
                            <ellipse id="77" cx="17.1988336" cy="31.0253919" rx="12.3991591" ry="12.4907422"></ellipse>
                            <ellipse id="78" cx="17.1988336" cy="31.0253919" rx="12.3991591" ry="12.4907422"></ellipse>
                            <ellipse id="79" cx="16.932185" cy="31.0253919" rx="12.3991591" ry="12.4907422"></ellipse>
                            <ellipse id="80" cx="16.932185" cy="31.29401" rx="12.3991591" ry="12.4907422"></ellipse>
                            <ellipse id="81" cx="16.6655364" cy="31.29401" rx="12.3991591" ry="12.4907422"></ellipse>
                            <ellipse id="82" cx="16.6655364" cy="31.29401" rx="12.3991591" ry="12.4907422"></ellipse>
                            <ellipse id="83" cx="16.3988879" cy="31.5626281" rx="12.3991591" ry="12.4907422"></ellipse>
                            <ellipse id="84" cx="16.1322393" cy="31.5626281" rx="12.3991591" ry="12.4907422"></ellipse>
                            <ellipse id="85" cx="16.1322393" cy="31.5626281" rx="12.3991591" ry="12.4907422"></ellipse>
                            <ellipse id="86" cx="15.8655907" cy="31.8312462" rx="12.3991591" ry="12.4907422"></ellipse>
                            <ellipse id="87" cx="15.8655907" cy="31.8312462" rx="12.3991591" ry="12.4907422"></ellipse>
                            <ellipse id="88" cx="15.5989421" cy="31.8312462" rx="12.3991591" ry="12.4907422"></ellipse>
                            <ellipse id="89" cx="15.3322935" cy="32.0998644" rx="12.3991591" ry="12.4907422"></ellipse>
                            <ellipse id="90" cx="15.3322935" cy="32.0998644" rx="12.3991591" ry="12.4907422"></ellipse>
                            <ellipse id="91" cx="15.0656449" cy="32.0998644" rx="12.3991591" ry="12.4907422"></ellipse>
                            <ellipse id="92" cx="15.0656449" cy="32.0998644" rx="12.3991591" ry="12.4907422"></ellipse>
                            <ellipse id="93" cx="14.7989964" cy="32.3684825" rx="12.3991591" ry="12.4907422"></ellipse>
                            <ellipse id="94" cx="14.7989964" cy="32.3684825" rx="12.3991591" ry="12.4907422"></ellipse>
                            <ellipse id="95" cx="14.5323478" cy="32.3684825" rx="12.3991591" ry="12.4907422"></ellipse>
                            <ellipse id="96" cx="14.2656992" cy="32.6371006" rx="12.3991591" ry="12.4907422"></ellipse>
                            <ellipse id="97" cx="14.2656992" cy="32.6371006" rx="12.3991591" ry="12.4907422"></ellipse>
                            <ellipse id="98" cx="13.9990506" cy="32.6371006" rx="12.3991591" ry="12.4907422"></ellipse>
                            <ellipse id="99" cx="13.9990506" cy="32.9057187" rx="12.3991591" ry="12.4907422"></ellipse>
                            <ellipse id="Oval-3-Copy-3" cx="13.732402" cy="32.9057187" rx="12.3991591" ry="12.4907422"></ellipse>
                        </g>
                        <path d="M32.8470032,38.0394691 L32.8470032,34.2656485 L29.2523495,33.6769477 C29.0649689,33.0249665 28.806842,32.3998319 28.4817933,31.8092136 L30.575488,28.8158526 L27.9139146,26.1484828 L24.967446,28.2731745 C24.3727984,27.9414307 23.7437341,27.6787208 23.0917252,27.4907971 L22.4645729,23.9029827 L18.7016589,23.9029827 L18.1203957,27.4792913 C17.4626506,27.6652975 16.8335858,27.9241725 16.2427626,28.2520809 L13.3020302,26.1465649 L10.6423688,28.8139351 L12.7092945,31.7785322 C12.3765981,32.3787383 12.112735,33.0134612 11.9234419,33.6731128 L8.37276551,34.2656485 L8.37276551,38.0394691 L11.9177061,38.6684391 C12.1069987,39.3300082 12.3689499,39.9647312 12.7035582,40.5649372 L10.6079516,43.5026878 L13.267613,46.1738929 L16.2274662,44.0952235 C16.8240257,44.4250493 17.4550024,44.6858418 18.1089232,44.873766 L18.7035708,48.4519919 L22.4645729,48.4519919 L23.0993734,44.8641782 C23.7552062,44.672419 24.3823585,44.4097085 24.9731823,44.0779653 L27.9521556,46.1738929 L30.613729,43.5026878 L28.4856176,40.5400087 C28.8125783,39.9474729 29.0687927,39.3223378 29.2542614,38.6722741 L32.8470032,38.0394691 Z M20.6098843,39.6138117 C18.7207791,39.6138117 17.1834911,38.072068 17.1834911,36.1774874 C17.1834911,34.2829067 18.7207791,32.741163 20.6098843,32.741163 C22.4989896,32.741163 24.0362776,34.2829067 24.0362776,36.1774874 C24.0362776,38.072068 22.4989896,39.6138117 20.6098843,39.6138117 Z" id="Shape" fill="url(#linearGradient-5)" fill-rule="nonzero"></path>
                    </g>
                </g>
            </g>
        </g>
    </g>
</svg>
