
<svg width="408px" height="352px" viewBox="0 0 408 352" version="1.1" xmlns="http://www.w3.org/2000/svg" xmlns:xlink="http://www.w3.org/1999/xlink">
    <!-- Generator: Sketch 49.2 (51160) - http://www.bohemiancoding.com/sketch -->
    <desc>Created with Sketch.</desc>
    <defs>
        <linearGradient x1="50%" y1="0%" x2="50%" y2="100%" id="linearGradient-1">
            <stop stop-color="#535356" offset="0%"></stop>
            <stop stop-color="#29292B" offset="100%"></stop>
        </linearGradient>
        <linearGradient x1="100%" y1="120.315629%" x2="50%" y2="100%" id="linearGradient-2">
            <stop stop-color="#535356" offset="0%"></stop>
            <stop stop-color="#29292B" offset="100%"></stop>
        </linearGradient>
        <linearGradient x1="0%" y1="0%" x2="297.221557%" y2="180.492136%" id="linearGradient-3">
            <stop stop-color="#3023AE" offset="0%"></stop>
            <stop stop-color="#C86DD7" offset="100%"></stop>
        </linearGradient>
        <linearGradient x1="388.07792%" y1="475.956355%" x2="101.999998%" y2="100.999999%" id="linearGradient-4">
            <stop stop-color="#3023AE" offset="0%"></stop>
            <stop stop-color="#C86DD7" offset="100%"></stop>
        </linearGradient>
        <linearGradient x1="-87.6401223%" y1="399.596816%" x2="101.999998%" y2="100.999999%" id="linearGradient-5">
            <stop stop-color="#3023AE" offset="0%"></stop>
            <stop stop-color="#C86DD7" offset="100%"></stop>
        </linearGradient>
        <linearGradient x1="0%" y1="50%" x2="1416.01061%" y2="630.475665%" id="linearGradient-6">
            <stop stop-color="#3023AE" offset="0%"></stop>
            <stop stop-color="#C86DD7" offset="100%"></stop>
        </linearGradient>
        <linearGradient x1="115.775243%" y1="-166.475199%" x2="30.4476185%" y2="100%" id="linearGradient-7">
            <stop stop-color="#505053" offset="0%"></stop>
            <stop stop-color="#747476" offset="46.3388871%"></stop>
            <stop stop-color="#515154" offset="100%"></stop>
        </linearGradient>
        <path d="M47.205197,6.65187063e-07 L65.3901344,0 L81.1078286,6.67005886 L94.410394,23.029695 L47.205197,86.0565046 L0,23.029695 L13.3025654,6.67005886 L29.0202596,0 L47.205197,6.65187063e-07 Z" id="path-8"></path>
    </defs>
    <g id="Page-1" stroke="none" stroke-width="1" fill="none" fill-rule="evenodd">
        <g id="bit.Design" transform="translate(-851.000000, -174.000000)">
            <g id="Group-7" transform="translate(846.000000, 174.000000)">
                <path class="fade" d="M59.0809602,244.336975 L193.198521,119.543971 L176.18475,135.374855 C168.735316,142.306366 168.327777,153.951213 175.274487,161.384348 C182.221197,168.817484 193.891579,169.224131 201.341013,162.29262 L218.354784,146.461736 L84.2372232,271.25474 L94.6600736,261.556541 C102.109508,254.62503 102.517047,242.980183 95.5703368,235.547048 C88.6236266,228.113912 76.9532453,227.707265 69.5038106,234.638776 L59.0809602,244.336975 Z M28.9803022,139.579884 L93.5174766,79.5296721 C100.966911,72.5981613 112.637293,73.0048083 119.584003,80.4379436 C126.530713,87.871079 126.123174,99.5159257 118.67374,106.447437 L54.1365652,166.497648 C46.6871305,173.429159 35.0167492,173.022512 28.070039,165.589376 C21.1233288,158.156241 21.5308675,146.511394 28.9803022,139.579884 Z M159.993767,301.415253 L178.773959,283.940758 C186.223394,277.009247 197.893775,277.415894 204.840485,284.84903 C211.787195,292.282165 211.379657,303.927012 203.930222,310.858522 L185.15003,328.333017 C177.700595,335.264528 166.030214,334.857881 159.083503,327.424746 C152.136793,319.991611 152.544332,308.346764 159.993767,301.415253 Z M218.545662,246.934193 L269.827471,199.217764 C277.276906,192.286253 288.947287,192.6929 295.893997,200.126036 C302.840707,207.559171 302.433169,219.204018 294.983734,226.135528 L243.701925,273.851957 C236.25249,280.783468 224.582109,280.376821 217.635398,272.943686 C210.688688,265.51055 211.096227,253.865704 218.545662,246.934193 Z M28.789634,228.534269 L175.888789,91.4955335 C183.338224,84.5640226 195.008605,84.9706696 201.955315,92.403805 C208.902025,99.8369404 208.494487,111.481787 201.045052,118.413298 L53.945897,255.452033 C46.4964624,262.383544 34.8260811,261.976897 27.8793709,254.543761 C20.9326606,247.110626 21.3401993,235.465779 28.789634,228.534269 Z M95.9192561,260.384425 L235.368554,130.630852 C242.817989,123.699341 254.48837,124.105988 261.435081,131.539123 C268.381791,138.972259 267.974252,150.617105 260.524817,157.548616 L121.075519,287.302189 C113.626084,294.2337 101.955703,293.827053 95.0089929,286.393918 C88.0622827,278.960782 88.4698214,267.315936 95.9192561,260.384425 Z" id="Combined-Shape" fill="url(#linearGradient-1)" transform="translate(161.886684, 203.931345) rotate(-105.000000) translate(-161.886684, -203.931345) "></path>
                <ellipse class="move-1" id="Oval-2" fill="url(#linearGradient-1)" cx="329.143477" cy="166.083992" rx="16.9283902" ry="16.9417926"></ellipse>
                <ellipse class="move-1" id="Oval-2-Copy-3" fill="url(#linearGradient-1)" cx="259.400174" cy="82.8695713" rx="16.9283902" ry="16.9417926"></ellipse>
                <ellipse class="move-1" id="Oval-2-Copy" fill="url(#linearGradient-1)" cx="22.4027105" cy="136.518581" rx="16.9283902" ry="16.9417926"></ellipse>
                <ellipse class="move-1" id="Oval-2-Copy-6" fill="url(#linearGradient-1)" cx="56.5587301" cy="34.3930835" rx="34.3658758" ry="34.3930835"></ellipse>
                <ellipse class="move-1" id="Oval-2-Copy-7" fill="url(#linearGradient-1)" cx="393.251432" cy="310.969998" rx="18.9549913" ry="18.9699981"></ellipse>
                <ellipse class="move-1" id="Oval-2-Copy-2" fill="url(#linearGradient-1)" cx="22.4027105" cy="236.75752" rx="16.9283902" ry="16.9417926"></ellipse>
                <g id="icons8-imac" class="fade" transform="translate(73.187881, 105.458628)" fill-rule="nonzero">
                    <path d="M139.496031,170.602666 C155.010345,170.602666 51.5815898,170.602666 67.0959031,170.602666 C82.6102163,170.602666 82.6102163,144.696335 82.6102163,144.696335 L123.981718,144.696335 C123.981718,144.696335 123.981718,170.602666 139.496031,170.602666 Z" id="Shape" fill="url(#linearGradient-1)"></path>
                    <path d="M195.663977,0 L10.2981041,0 C4.63414682,0 0,4.64418369 0,10.3204082 L0,123.844898 L205.962081,123.844898 L205.962081,10.3204082 C205.962081,4.64418369 201.327934,0 195.663977,0 Z" id="Shape" fill="#515151"></path>
                    <rect id="Rectangle-path" fill="url(#linearGradient-2)" x="10.0776553" y="10.1097876" width="185.80677" height="102.993461"></rect>
                    <g id="icons8-design" transform="translate(83.523036, 37.086211)">
                        <rect id="Rectangle-path" fill="url(#linearGradient-3)" transform="translate(24.931436, 25.237201) rotate(-45.000000) translate(-24.931436, -25.237201) " x="17.1246229" y="-2.01897611" width="15.6136267" height="54.5123549"></rect>
                        <g id="Group" transform="translate(11.584304, 4.037952)" fill="url(#linearGradient-4)">
                            <polygon id="Rectangle-path" points="3.3625106 11.4452002 1.60285437 9.68177547 7.20296032 4.06967635 8.96261655 5.83310105"></polygon>
                            <polygon id="Rectangle-path" points="24.6974252 21.6006188 26.4579613 23.3649252 23.3468891 26.4826601 21.586353 24.7183537"></polygon>
                            <rect id="Rectangle-path" transform="translate(2.831070, 2.805868) rotate(45.000000) translate(-2.831070, -2.805868) " x="1.58680543" y="0.601296345" width="2.4885297" height="4.40914295"></rect>
                            <polygon id="Rectangle-path" points="32.2004231 29.1190763 33.9600793 30.882501 30.8490071 34.0002358 29.0893509 32.2368111"></polygon>
                            <polygon id="Rectangle-path" points="10.972439 7.84681248 12.7320952 9.61023719 9.621023 12.7279721 7.86136677 10.9645474"></polygon>
                            <polygon id="Rectangle-path" points="22.829737 30.9561179 28.430635 25.3448125 30.1900423 27.1084866 24.5891444 32.719792"></polygon>
                        </g>
                        <path d="M48.3170762,6.7771316 L43.6025978,2.05385074 C42.8859351,1.33435919 41.7186143,1.33435919 41.0006603,2.05385074 L38.7822341,4.27961597 L46.0973588,11.6091126 L48.3170762,9.38593549 C49.0350302,8.66514989 49.0350302,7.49921125 48.3170762,6.7771316" id="Shape" fill="url(#linearGradient-5)"></path>
                        <rect id="Rectangle-path" fill="url(#linearGradient-5)" transform="translate(23.168607, 27.256177) rotate(-45.000000) translate(-23.168607, -27.256177) " x="0.503665379" y="22.2087372" width="45.3298841" height="10.0948805"></rect>
                        <rect id="Rectangle-path" fill="url(#linearGradient-6)" transform="translate(40.796896, 9.590137) rotate(134.979744) translate(-40.796896, -9.590137) " x="38.2785688" y="4.54269624" width="5.03665379" height="10.0948805"></rect>
                        <polygon id="Shape" fill="url(#linearGradient-6)" points="3.41522514 39.8747781 1.00733076 49.4649146 10.5769729 47.0505968"></polygon>
                    </g>
                    <path d="M0,123.844898 L205.962081,123.844898 L205.962081,134.184454 C205.962081,139.87121 201.327934,144.52401 195.663977,144.52401 L10.2981041,144.52401 C4.63414682,144.52401 0,139.87121 0,134.184454 L0,123.844898 Z M144.173457,170.372898 L61.7886243,170.372898 L61.7886243,180.712454 L144.173457,180.712454 L144.173457,170.372898 Z" id="Shape" fill="url(#linearGradient-7)"></path>
                    <ellipse id="Oval" fill="#959595" cx="102.666114" cy="133.954686" rx="5.03882767" ry="5.05489382"></ellipse>
                </g>
                <g id="4" class="fade" transform="translate(227.983337, 196.433741)">
                    <mask id="mask-9" fill="white">
                        <use xlink:href="#path-8"></use>
                    </mask>
                    <use id="Mask" fill="url(#linearGradient-7)" xlink:href="#path-8"></use>
                    <polyline id="Path-230" stroke="#29292B" stroke-width="2.5" mask="url(#mask-9)" points="12.5880525 6.21957968 27.2803266 14.3427508 67.1282856 14.3427508 82.3945256 5.7371003"></polyline>
                    <polyline id="Path-230" stroke="#29292B" stroke-width="2.5" mask="url(#mask-9)" points="66.9455521 14.3427508 81.1367761 32.7014717 97.271315 21.0986451"></polyline>
                    <polyline id="Path-230-Copy" stroke="#29292B" stroke-width="2.5" mask="url(#mask-9)" transform="translate(12.301960, 23.522111) scale(-1, 1) translate(-12.301960, -23.522111) " points="-2.86092103 14.3427508 11.330303 32.7014717 27.4648419 21.0986451"></polyline>
                    <path d="M81.2501572,32.7014717 L46.3469207,87.7776346" id="Path-230" stroke="#29292B" stroke-width="2.5" mask="url(#mask-9)"></path>
                    <path d="M48.0634733,32.7014717 L13.1602367,87.7776346" id="Path-230-Copy-2" stroke="#29292B" stroke-width="2.5" mask="url(#mask-9)" transform="translate(30.611855, 60.239553) scale(-1, 1) translate(-30.611855, -60.239553) "></path>
                    <path d="M13.7324209,32.7014717 L80.677973,32.7014717" id="Path-229" stroke="#29292B" stroke-width="2.5" mask="url(#mask-9)"></path>
                </g>
            </g>
        </g>
    </g>
</svg>
