<?xml version="1.0" encoding="UTF-8"?>
<svg width="493px" viewBox="0 0 493 440" version="1.1" xmlns="http://www.w3.org/2000/svg" xmlns:xlink="http://www.w3.org/1999/xlink">
    <!-- Generator: Sketch 48.2 (47327) - http://www.bohemiancoding.com/sketch -->
    <title>heroMarketing</title>
    <desc>Created with Sketch.</desc>
    <defs>
        <linearGradient x1="0%" y1="0%" x2="101.999998%" y2="100.999999%" id="linearGradient-1">
            <stop stop-color="#3023AE" offset="0%"></stop>
            <stop stop-color="#C86DD7" offset="100%"></stop>
        </linearGradient>
        <linearGradient x1="-11.1946856%" y1="189.911771%" x2="108.336256%" y2="-73.3909528%" id="linearGradient-2">
            <stop stop-color="#328CA1" offset="0%"></stop>
            <stop stop-color="#6DBCCF" offset="56.1623087%"></stop>
            <stop stop-color="#9ECC4D" offset="97.4330357%"></stop>
        </linearGradient>
        <linearGradient x1="-7.78332741%" y1="182.397232%" x2="108.336256%" y2="-73.3909528%" id="linearGradient-3">
            <stop stop-color="#61CDE6" offset="0%"></stop>
            <stop stop-color="#8DE2F6" offset="54.8728476%"></stop>
            <stop stop-color="#D9FFFC" offset="100%"></stop>
        </linearGradient>
        <linearGradient x1="-120.877331%" y1="224.438916%" x2="102.470698%" y2="-65.7695092%" id="linearGradient-4">
            <stop stop-color="#61CDE6" offset="0%"></stop>
            <stop stop-color="#B2EEFD" offset="54.3865593%"></stop>
            <stop stop-color="#FFFFFF" offset="100%"></stop>
        </linearGradient>
        <linearGradient x1="-11.1946856%" y1="189.911771%" x2="118.291945%" y2="-94.3098857%" id="linearGradient-5">
            <stop stop-color="#3CAAC4" offset="0%"></stop>
            <stop stop-color="#7CD2E6" offset="55.7896205%"></stop>
            <stop stop-color="#B4EC51" offset="100%"></stop>
        </linearGradient>
        <linearGradient x1="-7.78332741%" y1="182.397232%" x2="138.0604%" y2="-216.753374%" id="linearGradient-6">
            <stop stop-color="#61CDE6" offset="0%"></stop>
            <stop stop-color="#8DE2F6" offset="54.8728476%"></stop>
            <stop stop-color="#FFFFFF" offset="100%"></stop>
        </linearGradient>
        <linearGradient x1="-4.51906385%" y1="175.206714%" x2="106.195579%" y2="-68.6754699%" id="linearGradient-7">
            <stop stop-color="#317C8E" offset="0%"></stop>
            <stop stop-color="#87D8EB" offset="53.2087054%"></stop>
            <stop stop-color="#FFFFFF" offset="100%"></stop>
        </linearGradient>
        <linearGradient x1="-11.1946856%" y1="189.911771%" x2="253.180739%" y2="-341.200353%" id="linearGradient-8">
            <stop stop-color="#3CAAC4" offset="0%"></stop>
            <stop stop-color="#7CD2E6" offset="55.7896205%"></stop>
            <stop stop-color="#B4EC51" offset="100%"></stop>
        </linearGradient>
        <linearGradient x1="0%" y1="0%" x2="140.451884%" y2="100%" id="linearGradient-9">
            <stop stop-color="#3023AE" offset="0%"></stop>
            <stop stop-color="#C86DD7" offset="100%"></stop>
        </linearGradient>
        <linearGradient x1="-254.2151%" y1="89.7101544%" x2="108.336256%" y2="-73.3909528%" id="linearGradient-10">
            <stop stop-color="#3CAAC4" offset="0%"></stop>
            <stop stop-color="#8DDDEF" offset="50.0411518%"></stop>
            <stop stop-color="#B4EC51" offset="100%"></stop>
        </linearGradient>
    </defs>
    <g id="bit.Marketing" stroke="none" stroke-width="1" fill="none" fill-rule="evenodd" transform="translate(-791.000000, -53.000000)">
        <g id="heroMarketing" transform="translate(772.000000, 53.000000)">
            <path d="M90.3556338,281.364577 L260.26129,122.044355 L238.707544,142.255263 C229.270293,151.104556 228.754006,165.971251 237.554385,175.460956 C246.354764,184.950661 261.139285,185.469817 270.576536,176.620525 L292.130282,156.409616 L122.224625,315.729839 L135.428722,303.348381 C144.865973,294.499088 145.38226,279.632393 136.581881,270.142688 C127.781502,260.652983 112.996982,260.133827 103.559731,268.98312 L90.3556338,281.364577 Z M27.4460142,147.78958 L109.380445,71.2975309 C118.83802,62.4681619 133.654381,62.9861495 142.473713,72.4544885 C151.293044,81.9228275 150.775646,96.7560506 141.31807,105.58542 L59.3836395,182.077469 C49.9260641,190.906838 35.1097035,190.388851 26.2903718,180.920512 C17.4710401,171.452172 17.9884388,156.618949 27.4460142,147.78958 Z M218.567568,353.507393 L242.303456,331.299258 C251.718639,322.490081 266.468587,323.006884 275.248387,332.45357 C284.028188,341.900257 283.513108,356.699558 274.097925,365.508736 L250.362037,387.716871 C240.946854,396.526048 226.196906,396.009245 217.417106,386.562559 C208.637305,377.115872 209.152385,362.316571 218.567568,353.507393 Z M292.910472,284.50933 L357.767102,223.845815 C367.188478,215.03355 381.948129,215.550535 390.733705,225.000532 C399.51928,234.450529 399.003862,249.255018 389.582486,258.067283 L324.725856,318.730798 C315.304479,327.543063 300.544829,327.026078 291.759253,317.576081 C282.973677,308.126084 283.489096,293.321595 292.910472,284.50933 Z M46.0321643,259.206506 L232.82598,84.5665395 C242.285642,75.7331332 257.105272,76.2513576 265.92655,85.7240262 C274.747828,95.1966947 274.230315,110.036701 264.770653,118.870107 L77.976837,293.510073 C68.5171747,302.34348 53.6975447,301.825255 44.8762669,292.352587 C36.0549891,282.879918 36.572502,268.039912 46.0321643,259.206506 Z M137.597116,301.658539 L313.960638,136.304378 C323.382045,127.471063 338.141743,127.989282 346.927347,137.461852 C355.71295,146.934423 355.19753,161.774275 345.776124,170.60759 L169.412601,335.961751 C159.991195,344.795066 145.231497,344.276847 136.445893,334.804277 C127.660289,325.331706 128.175709,310.491854 137.597116,301.658539 Z" id="Combined-Shape" fill-opacity="0.120810688" fill="#F4F4F4" transform="translate(208.500000, 229.500000) rotate(-105.000000) translate(-208.500000, -229.500000) "></path>
            <circle id="Oval-2" fill-opacity="0.15" fill="#F4F4F4" cx="386.5" cy="263.5" r="18.5"></circle>
            <circle id="Oval-2-Copy-3" fill-opacity="0.15" fill="#F4F4F4" cx="321.5" cy="86.5" r="18.5"></circle>
            <circle id="Oval-2-Copy" fill-opacity="0.15" fill="#F4F4F4" cx="43.5" cy="160.5" r="18.5"></circle>
            <circle id="Oval-2-Copy-4" fill-opacity="0.15" fill="#F4F4F4" cx="456" cy="51" r="51"></circle>
            <ellipse id="Oval-2-Copy-5" fill-opacity="0.15" fill="#F4F4F4" cx="449.5" cy="377" rx="62.5" ry="63"></ellipse>
            <circle id="Oval-2-Copy-2" fill-opacity="0.15" fill="#F4F4F4" cx="55.5" cy="274.5" r="18.5"></circle>
            <circle id="Oval" stroke="url(#linearGradient-1)" stroke-width="2" cx="334.5" cy="101.5" r="15.5"></circle>
            <polygon id="Star" stroke="url(#linearGradient-1)" stroke-width="2" points="41.5 288.679645 29.4483372 295 31.75 281.613274 22 272.132742 35.4741686 270.179645 41.5 258 47.5258314 270.179645 61 272.132742 51.25 281.613274 53.5516628 295"></polygon>
            <g id="icons8-imac" transform="translate(94.000000, 143.000000)" fill-rule="nonzero">
                <path d="M156.724556,190.699301 C174.154972,190.699301 57.9521988,190.699301 75.3826148,190.699301 C92.8130307,190.699301 92.8130307,161.741259 92.8130307,161.741259 L139.29414,161.741259 C139.29414,161.741259 139.29414,190.699301 156.724556,190.699301 Z" id="Shape" fill="url(#linearGradient-2)"></path>
                <path d="M219.82955,0 L11.5699763,0 C5.20648935,0 0,5.19125874 0,11.5361305 L0,138.433566 L231.399527,138.433566 L231.399527,11.5361305 C231.399527,5.19125874 226.193037,0 219.82955,0 Z" id="Shape" fill="url(#linearGradient-3)"></path>
                <rect id="Rectangle-path" fill="url(#linearGradient-4)" x="11.322301" y="11.3006993" width="208.754925" height="115.125874"></rect>
                <path d="M95.6451377,47.8015267 L95.6451377,101 L124.345854,101 L124.345854,101.115197 C124.345854,102.271685 125.379529,103.312977 126.527558,103.312977 C126.64236,103.312977 126.872414,103.313429 126.987217,103.19778 L143.173973,95.1023606 C143.633185,94.8710629 145.01037,94.1767175 145.01037,92.9045801 C145.01037,91.6324427 143.633185,90.9380974 143.173973,90.7067997 L136.974169,87.6055137 L136.974169,62.3728302 L122.509457,47.8015267 L95.6451377,47.8015267 Z M122.049797,50.577551 L134.218452,62.8358779 L122.049797,62.8358779 L122.049797,50.577551 Z M118.605711,67.4618321 C124.312561,67.4618321 128.937969,72.1213244 128.937969,77.870229 L118.605711,77.870229 L118.605711,67.4618321 Z M114.013596,72.0877862 L114.013596,82.4961832 L124.345854,82.4961832 C124.345854,88.2450878 119.720447,92.9045801 114.013596,92.9045801 C108.306746,92.9045801 103.681338,88.2450878 103.681338,82.4961832 C103.681338,76.7472786 108.306746,72.0877862 114.013596,72.0877862 Z M126.641911,85.0395548 L142.254652,92.9045801 C142.369455,92.9045801 142.370801,93.0197768 142.485604,93.0197768 C142.370801,93.0197768 142.369455,93.1349746 142.254652,93.1349746 L126.641911,100.884803 L126.641911,85.0395548 Z" id="Shape" fill="url(#linearGradient-5)"></path>
                <path d="M0,138.433566 L231.399527,138.433566 L231.399527,149.9911 C231.399527,156.347743 226.193037,161.548633 219.82955,161.548633 L11.5699763,161.548633 C5.20648935,161.548633 0,156.347743 0,149.9911 L0,138.433566 Z M161.979669,190.442467 L69.419858,190.442467 L69.419858,202 L161.979669,202 L161.979669,190.442467 Z" id="Shape" fill="url(#linearGradient-6)"></path>
                <ellipse id="Oval" fill="#B7F0FD" cx="115.345941" cy="149.734266" rx="5.6611505" ry="5.65034965"></ellipse>
                <g id="icons8-advertising" transform="translate(149.638361, 100.229008)">
                    <g id="Group" transform="translate(29.310607, 6.167939)">
                        <path d="M6.56333203,67.4618321 L0,67.4618321 L0,56.6679389 L10.9388867,56.6679389 L12.0327754,60.7156489 C12.8531919,64.2236641 10.1184702,67.4618321 6.56333203,67.4618321 Z" id="Shape" fill="#90CAF9"></path>
                        <path d="M60.1638769,75.5572519 C60.1638769,75.5572519 27.8941611,56.6679389 10.9388867,56.6679389 L10.9388867,18.889313 C26.8002725,18.889313 60.1638769,0 60.1638769,0 L60.1638769,75.5572519 Z" id="Shape" fill="url(#linearGradient-7)"></path>
                    </g>
                    <g id="Group" transform="translate(0.000000, 29.297710)">
                        <ellipse id="Oval" fill="url(#linearGradient-8)" cx="13.6466388" cy="13.6406342" rx="13.6466388" ry="13.6406342"></ellipse>
                        <path d="M98.255799,5.45625367 L90.0678158,5.45625367 L90.0678158,21.8250147 L98.255799,21.8250147 C102.895656,21.8250147 106.443782,18.2784498 106.443782,13.6406342 C106.443782,9.00281856 102.895656,5.45625367 98.255799,5.45625367 Z" id="Shape" fill="url(#linearGradient-9)"></path>
                        <path d="M39.8481852,66.0206694 C37.3917902,67.6575455 33.0248658,69.2944216 27.2932775,69.840047 C25.6556809,70.1128597 24.0180842,69.0216089 23.4722187,67.1119201 L11.4631766,29.7365825 C11.4631766,29.7365825 35.4812608,12.8221961 35.4812608,32.737522 C35.4812608,47.7422196 39.5752524,55.6537874 41.4857818,58.654727 C42.8504457,60.5644157 42.8504457,63.0197299 41.4857818,64.9294187 C40.9399163,65.475044 40.3940507,65.7478567 39.8481852,66.0206694 Z" id="Shape" fill="url(#linearGradient-8)"></path>
                    </g>
                    <path d="M13.1126398,63.221374 L40.1092513,63.221374 L40.1092513,24.6717557 L13.1126398,24.6717557 C10.1430126,24.6717557 7.71331756,27.1499455 7.71331756,30.1788441 L7.71331756,57.7142857 C7.71331756,60.7431843 10.1430126,63.221374 13.1126398,63.221374 Z" id="Shape" fill="url(#linearGradient-7)"></path>
                    <path d="M93.3311424,86.351145 C90.3615152,86.351145 87.9318201,83.9225191 87.9318201,80.9541985 L87.9318201,5.39694656 C87.9318201,2.42862595 90.3615152,0 93.3311424,0 C96.3007697,0 98.7304647,2.42862595 98.7304647,5.39694656 L98.7304647,80.9541985 C98.7304647,83.9225191 96.3007697,86.351145 93.3311424,86.351145 Z" id="Shape" fill="url(#linearGradient-10)"></path>
                </g>
            </g>
        </g>
    </g>
</svg>
