<?xml version="1.0" encoding="UTF-8"?>
<svg width="481px" viewBox="0 0 481 398" version="1.1" xmlns="http://www.w3.org/2000/svg" xmlns:xlink="http://www.w3.org/1999/xlink">
    <!-- Generator: Sketch 48.2 (47327) - http://www.bohemiancoding.com/sketch -->
    <title>heroOperation</title>
    <desc>Created with Sketch.</desc>
    <defs>
        <linearGradient x1="50%" y1="0%" x2="50%" y2="100%" id="linearGradient-1">
            <stop stop-color="#535356" offset="0%"></stop>
            <stop stop-color="#29292B" offset="100%"></stop>
        </linearGradient>
        <linearGradient x1="100%" y1="120.315629%" x2="50%" y2="100%" id="linearGradient-2">
            <stop stop-color="#535356" offset="0%"></stop>
            <stop stop-color="#29292B" offset="100%"></stop>
        </linearGradient>
        <linearGradient x1="115.775243%" y1="-166.475199%" x2="30.4476185%" y2="100%" id="linearGradient-3">
            <stop stop-color="#505053" offset="0%"></stop>
            <stop stop-color="#747476" offset="46.3388871%"></stop>
            <stop stop-color="#515154" offset="100%"></stop>
        </linearGradient>
        <linearGradient x1="0%" y1="0%" x2="101.999998%" y2="100.999999%" id="linearGradient-4">
            <stop stop-color="#3023AE" offset="0%"></stop>
            <stop stop-color="#C86DD7" offset="100%"></stop>
        </linearGradient>
    </defs>
    <g id="bit.Operation" stroke="none" stroke-width="1" fill="none" fill-rule="evenodd" transform="translate(-800.000000, -85.000000)">
        <g id="heroOperation" transform="translate(733.000000, 53.000000)">
            <g id="Group-7" transform="translate(67.000000, 32.000000)">
                <path class="fade" d="M85.9937644,271.476226 L230.391358,137.193979 L212.073491,154.228641 C204.053062,161.687223 203.614286,174.217542 211.093457,182.215892 C218.572629,190.214242 231.137538,190.651811 239.157967,183.193229 L257.475833,166.158566 L113.07824,300.440813 L124.299996,290.005164 C132.320426,282.546582 132.759202,270.016263 125.28003,262.017913 C117.800859,254.019563 105.23595,253.581995 97.2155202,261.040577 L85.9937644,271.476226 Z M32.134623,159.107203 L101.618534,94.4907817 C109.638964,87.0321996 122.203873,87.469768 129.683044,95.468118 C137.162216,103.466468 136.723439,115.996787 128.70301,123.455369 L59.2190989,188.07179 C51.1986694,195.530372 38.6337602,195.092804 31.1545887,187.094454 C23.6754172,179.096104 24.1141935,166.565785 32.134623,159.107203 Z M194.641478,332.894728 L214.861162,314.091475 C222.881591,306.632893 235.4465,307.070461 242.925672,315.068811 C250.404843,323.067161 249.966067,335.59748 241.945637,343.056062 L221.725954,361.859315 C213.705525,369.317897 201.140615,368.880329 193.661444,360.881979 C186.182272,352.883629 186.621049,340.35331 194.641478,332.894728 Z M257.681342,274.270935 L312.893872,222.926156 C320.914301,215.467574 333.47921,215.905142 340.958382,223.903492 C348.437553,231.901842 347.998777,244.432161 339.978348,251.890743 L284.765818,303.235523 C276.745388,310.694105 264.180479,310.256537 256.701307,302.258187 C249.222136,294.259837 249.660912,281.729517 257.681342,274.270935 Z M47.6875327,252.947287 L206.061752,105.488146 C214.082181,98.0295637 226.64709,98.4671321 234.126262,106.465482 C241.605433,114.463832 241.166657,126.994151 233.146228,134.452733 L74.7720086,281.911875 C66.7515791,289.370457 54.1866699,288.932888 46.7074984,280.934538 C39.2283269,272.936188 39.6671032,260.405869 47.6875327,252.947287 Z M125.655694,288.743921 L275.793699,149.123904 C283.814129,141.665322 296.379038,142.102891 303.85821,150.101241 C311.337381,158.099591 310.898605,170.62991 302.878175,178.088492 L152.74017,317.708509 C144.71974,325.167091 132.154831,324.729522 124.67566,316.731172 C117.196488,308.732822 117.635265,296.202503 125.655694,288.743921 Z" id="Combined-Shape" fill="url(#linearGradient-1)" transform="translate(186.056485, 228.175048) rotate(-105.000000) translate(-186.056485, -228.175048) "></path>
                <ellipse class="move-1" id="Oval-2" fill="url(#linearGradient-1)" cx="316.661088" cy="231.087996" rx="18.2259414" ry="18.2300441"></ellipse>
                <ellipse class="move-1" id="Oval-2-Copy-3" fill="url(#linearGradient-1)" cx="273.389121" cy="89.170962" rx="18.2259414" ry="18.2300441"></ellipse>
                <ellipse class="move-1" id="Oval-2-Copy" fill="url(#linearGradient-1)" cx="18.2259414" cy="146.899435" rx="18.2259414" ry="18.2300441"></ellipse>
                <ellipse class="move-1" id="Oval-2-Copy-6" fill="url(#linearGradient-1)" cx="55" cy="37.0083288" rx="37" ry="37.0083288"></ellipse>
                <ellipse class="move-1" id="Oval-2-Copy-7" fill="url(#linearGradient-1)" cx="417.5" cy="291.514294" rx="63.5" ry="63.514294"></ellipse>
                <ellipse class="move-1" id="Oval-2-Copy-2" fill="url(#linearGradient-1)" cx="18.2259414" cy="254.760529" rx="18.2259414" ry="18.2300441"></ellipse>
                <g id="icons8-imac" class="anim-base" transform="translate(72.903766, 113.477688)" fill-rule="nonzero">
                    <path d="M150.188321,183.575269 C166.891797,183.575269 55.5352885,183.575269 72.2387647,183.575269 C88.942241,183.575269 88.942241,155.699025 88.942241,155.699025 L133.484844,155.699025 C133.484844,155.699025 133.484844,183.575269 150.188321,183.575269 Z" id="Shape" fill="url(#linearGradient-1)"></path>
                    <path d="M210.661506,0 L11.0874477,0 C4.98935146,0 0,4.99732678 0,11.1051706 L0,133.262047 L221.748954,133.262047 L221.748954,11.1051706 C221.748954,4.99732678 216.759603,0 210.661506,0 Z" id="Shape" fill="#515151"></path>
                    <rect id="Rectangle-path" fill="url(#linearGradient-2)" x="10.8501017" y="10.8785345" width="200.048751" height="110.82507"></rect>
                    <path d="M0,133.262047 L221.748954,133.262047 L221.748954,144.387821 C221.748954,150.506997 216.759603,155.513595 210.661506,155.513595 L11.0874477,155.513595 C4.98935146,155.513595 0,150.506997 0,144.387821 L0,133.262047 Z M155.224268,183.32803 L66.5246862,183.32803 L66.5246862,194.453804 L155.224268,194.453804 L155.224268,183.32803 Z" id="Shape" fill="url(#linearGradient-3)"></path>
                    <ellipse id="Oval" fill="#959595" cx="110.535411" cy="144.140582" rx="5.42505086" ry="5.43926724"></ellipse>
                </g>
                <g id="Group-2" class="anim-base" transform="translate(164.033473, 148.418605)">
                    <g id="Group">
                        <g id="Group-3" fill="url(#linearGradient-4)">
                            <ellipse id="Oval-3" cx="16.7264611" cy="16.4234632" rx="16.7264611" ry="16.4234632"></ellipse>
                            <ellipse id="0" cx="16.7264611" cy="16.4234632" rx="16.7264611" ry="16.4234632"></ellipse>
                            <ellipse id="1" cx="17.0940756" cy="16.7844184" rx="16.7264611" ry="16.4234632"></ellipse>
                            <ellipse id="2" cx="16.9102684" cy="16.6039408" rx="16.5426538" ry="16.2429856"></ellipse>
                            <ellipse id="3" cx="16.9102684" cy="16.964896" rx="16.5426538" ry="16.2429856"></ellipse>
                            <ellipse id="4" cx="16.9102684" cy="16.964896" rx="16.5426538" ry="16.2429856"></ellipse>
                            <ellipse id="5" cx="17.2778829" cy="16.964896" rx="16.5426538" ry="16.2429856"></ellipse>
                            <ellipse id="6" cx="17.0940756" cy="17.1453736" rx="16.3588466" ry="16.0625079"></ellipse>
                            <ellipse id="7" cx="17.0940756" cy="17.1453736" rx="16.3588466" ry="16.0625079"></ellipse>
                            <ellipse id="8" cx="17.4616902" cy="17.5063289" rx="16.3588466" ry="16.0625079"></ellipse>
                            <ellipse id="9" cx="17.4616902" cy="17.5063289" rx="16.3588466" ry="16.0625079"></ellipse>
                            <ellipse id="10" cx="17.4616902" cy="17.8672841" rx="16.3588466" ry="16.0625079"></ellipse>
                            <ellipse id="11" cx="17.6454974" cy="17.6868065" rx="16.1750393" ry="15.8820303"></ellipse>
                            <ellipse id="12" cx="17.6454974" cy="17.6868065" rx="16.1750393" ry="15.8820303"></ellipse>
                            <ellipse id="13" cx="17.6454974" cy="18.0477617" rx="16.1750393" ry="15.8820303"></ellipse>
                            <ellipse id="14" cx="17.6454974" cy="18.0477617" rx="16.1750393" ry="15.8820303"></ellipse>
                            <ellipse id="15" cx="17.8293047" cy="18.2282393" rx="15.991232" ry="15.7015527"></ellipse>
                            <ellipse id="16" cx="17.8293047" cy="18.2282393" rx="15.991232" ry="15.7015527"></ellipse>
                            <ellipse id="17" cx="17.8293047" cy="18.2282393" rx="15.991232" ry="15.7015527"></ellipse>
                            <ellipse id="18" cx="18.1969192" cy="18.5891946" rx="15.991232" ry="15.7015527"></ellipse>
                            <ellipse id="19" cx="18.013112" cy="18.408717" rx="15.8074248" ry="15.5210751"></ellipse>
                            <ellipse id="20" cx="18.013112" cy="18.7696722" rx="15.8074248" ry="15.5210751"></ellipse>
                            <ellipse id="21" cx="18.3807265" cy="18.7696722" rx="15.8074248" ry="15.5210751"></ellipse>
                            <ellipse id="22" cx="18.3807265" cy="18.7696722" rx="15.8074248" ry="15.5210751"></ellipse>
                            <ellipse id="23" cx="18.3807265" cy="19.1306274" rx="15.8074248" ry="15.5210751"></ellipse>
                            <ellipse id="24" cx="18.1969192" cy="18.9501498" rx="15.6236175" ry="15.3405975"></ellipse>
                            <ellipse id="25" cx="18.5645338" cy="19.311105" rx="15.6236175" ry="15.3405975"></ellipse>
                            <ellipse id="26" cx="18.5645338" cy="19.311105" rx="15.6236175" ry="15.3405975"></ellipse>
                            <ellipse id="27" cx="18.5645338" cy="19.311105" rx="15.6236175" ry="15.3405975"></ellipse>
                            <ellipse id="28" cx="18.748341" cy="19.4915827" rx="15.4398102" ry="15.1601199"></ellipse>
                            <ellipse id="29" cx="18.748341" cy="19.4915827" rx="15.4398102" ry="15.1601199"></ellipse>
                            <ellipse id="30" cx="18.748341" cy="19.8525379" rx="15.4398102" ry="15.1601199"></ellipse>
                            <ellipse id="31" cx="19.1159555" cy="19.8525379" rx="15.4398102" ry="15.1601199"></ellipse>
                            <ellipse id="32" cx="19.1159555" cy="20.2134931" rx="15.4398102" ry="15.1601199"></ellipse>
                            <ellipse id="33" cx="18.9321483" cy="20.0330155" rx="15.256003" ry="14.9796422"></ellipse>
                            <ellipse id="34" cx="18.9321483" cy="20.0330155" rx="15.256003" ry="14.9796422"></ellipse>
                            <ellipse id="35" cx="19.2997628" cy="20.3939708" rx="15.256003" ry="14.9796422"></ellipse>
                            <ellipse id="36" cx="19.2997628" cy="20.3939708" rx="15.256003" ry="14.9796422"></ellipse>
                            <ellipse id="37" cx="19.1159555" cy="20.5744484" rx="15.0721957" ry="14.7991646"></ellipse>
                            <ellipse id="38" cx="19.4835701" cy="20.5744484" rx="15.0721957" ry="14.7991646"></ellipse>
                            <ellipse id="39" cx="19.4835701" cy="20.5744484" rx="15.0721957" ry="14.7991646"></ellipse>
                            <ellipse id="40" cx="19.4835701" cy="20.9354036" rx="15.0721957" ry="14.7991646"></ellipse>
                            <ellipse id="41" cx="19.4835701" cy="20.9354036" rx="15.0721957" ry="14.7991646"></ellipse>
                            <ellipse id="42" cx="19.6673773" cy="21.1158812" rx="14.8883885" ry="14.618687"></ellipse>
                            <ellipse id="43" cx="19.6673773" cy="21.1158812" rx="14.8883885" ry="14.618687"></ellipse>
                            <ellipse id="44" cx="19.6673773" cy="21.1158812" rx="14.8883885" ry="14.618687"></ellipse>
                            <ellipse id="45" cx="20.0349919" cy="21.4768365" rx="14.8883885" ry="14.618687"></ellipse>
                            <ellipse id="46" cx="19.8511846" cy="21.2963588" rx="14.7045812" ry="14.4382094"></ellipse>
                            <ellipse id="47" cx="19.8511846" cy="21.6573141" rx="14.7045812" ry="14.4382094"></ellipse>
                            <ellipse id="48" cx="20.2187991" cy="21.6573141" rx="14.7045812" ry="14.4382094"></ellipse>
                            <ellipse id="49" cx="20.2187991" cy="21.6573141" rx="14.7045812" ry="14.4382094"></ellipse>
                            <ellipse id="50" cx="20.2187991" cy="22.0182693" rx="14.7045812" ry="14.4382094"></ellipse>
                            <ellipse id="51" cx="20.0349919" cy="21.8377917" rx="14.5207739" ry="14.2577318"></ellipse>
                            <ellipse id="52" cx="20.4026064" cy="22.1987469" rx="14.5207739" ry="14.2577318"></ellipse>
                            <ellipse id="53" cx="20.4026064" cy="22.1987469" rx="14.5207739" ry="14.2577318"></ellipse>
                            <ellipse id="54" cx="20.4026064" cy="22.5597022" rx="14.5207739" ry="14.2577318"></ellipse>
                            <ellipse id="55" cx="20.5864137" cy="22.3792245" rx="14.3369667" ry="14.0772541"></ellipse>
                            <ellipse id="56" cx="20.5864137" cy="22.3792245" rx="14.3369667" ry="14.0772541"></ellipse>
                            <ellipse id="57" cx="20.5864137" cy="22.7401798" rx="14.3369667" ry="14.0772541"></ellipse>
                            <ellipse id="58" cx="20.9540282" cy="22.7401798" rx="14.3369667" ry="14.0772541"></ellipse>
                            <ellipse id="59" cx="20.7702209" cy="22.9206574" rx="14.1531594" ry="13.8967765"></ellipse>
                            <ellipse id="60" cx="20.7702209" cy="22.9206574" rx="14.1531594" ry="13.8967765"></ellipse>
                            <ellipse id="61" cx="20.7702209" cy="22.9206574" rx="14.1531594" ry="13.8967765"></ellipse>
                            <ellipse id="62" cx="21.1378355" cy="23.2816126" rx="14.1531594" ry="13.8967765"></ellipse>
                            <ellipse id="63" cx="21.1378355" cy="23.2816126" rx="14.1531594" ry="13.8967765"></ellipse>
                            <ellipse id="64" cx="20.9540282" cy="23.4620902" rx="13.9693521" ry="13.7162989"></ellipse>
                            <ellipse id="65" cx="21.3216427" cy="23.4620902" rx="13.9693521" ry="13.7162989"></ellipse>
                            <ellipse id="66" cx="21.3216427" cy="23.4620902" rx="13.9693521" ry="13.7162989"></ellipse>
                            <ellipse id="67" cx="21.3216427" cy="23.8230455" rx="13.9693521" ry="13.7162989"></ellipse>
                            <ellipse id="68" cx="21.1378355" cy="23.6425679" rx="13.7855449" ry="13.5358213"></ellipse>
                            <ellipse id="69" cx="21.50545" cy="24.0035231" rx="13.7855449" ry="13.5358213"></ellipse>
                            <ellipse id="70" cx="21.50545" cy="24.0035231" rx="13.7855449" ry="13.5358213"></ellipse>
                            <ellipse id="71" cx="21.50545" cy="24.0035231" rx="13.7855449" ry="13.5358213"></ellipse>
                            <ellipse id="72" cx="21.8730645" cy="24.3644783" rx="13.7855449" ry="13.5358213"></ellipse>
                            <ellipse id="73" cx="21.6892573" cy="24.1840007" rx="13.6017376" ry="13.3553437"></ellipse>
                            <ellipse id="74" cx="21.6892573" cy="24.5449559" rx="13.6017376" ry="13.3553437"></ellipse>
                            <ellipse id="75" cx="22.0568718" cy="24.5449559" rx="13.6017376" ry="13.3553437"></ellipse>
                            <ellipse id="76" cx="22.0568718" cy="24.9059112" rx="13.6017376" ry="13.3553437"></ellipse>
                            <ellipse id="77" cx="21.8730645" cy="24.7254336" rx="13.4179303" ry="13.1748661"></ellipse>
                            <ellipse id="78" cx="21.8730645" cy="24.7254336" rx="13.4179303" ry="13.1748661"></ellipse>
                            <ellipse id="79" cx="22.2406791" cy="25.0863888" rx="13.4179303" ry="13.1748661"></ellipse>
                            <ellipse id="80" cx="22.2406791" cy="25.0863888" rx="13.4179303" ry="13.1748661"></ellipse>
                            <ellipse id="81" cx="22.2406791" cy="25.447344" rx="13.4179303" ry="13.1748661"></ellipse>
                            <ellipse id="82" cx="22.4244863" cy="25.2668664" rx="13.2341231" ry="12.9943884"></ellipse>
                            <ellipse id="83" cx="22.4244863" cy="25.2668664" rx="13.2341231" ry="12.9943884"></ellipse>
                            <ellipse id="84" cx="22.4244863" cy="25.6278217" rx="13.2341231" ry="12.9943884"></ellipse>
                            <ellipse id="85" cx="22.7921008" cy="25.6278217" rx="13.2341231" ry="12.9943884"></ellipse>
                            <ellipse id="86" cx="22.6082936" cy="25.8082993" rx="13.0503158" ry="12.8139108"></ellipse>
                            <ellipse id="87" cx="22.6082936" cy="25.8082993" rx="13.0503158" ry="12.8139108"></ellipse>
                            <ellipse id="88" cx="22.6082936" cy="25.8082993" rx="13.0503158" ry="12.8139108"></ellipse>
                            <ellipse id="89" cx="22.9759081" cy="26.1692545" rx="13.0503158" ry="12.8139108"></ellipse>
                            <ellipse id="90" cx="22.9759081" cy="26.1692545" rx="13.0503158" ry="12.8139108"></ellipse>
                            <ellipse id="91" cx="22.7921008" cy="26.3497321" rx="12.8665085" ry="12.6334332"></ellipse>
                            <ellipse id="92" cx="23.1597154" cy="26.3497321" rx="12.8665085" ry="12.6334332"></ellipse>
                            <ellipse id="93" cx="23.1597154" cy="26.7106874" rx="12.8665085" ry="12.6334332"></ellipse>
                            <ellipse id="94" cx="23.1597154" cy="26.7106874" rx="12.8665085" ry="12.6334332"></ellipse>
                            <ellipse id="95" cx="23.3435226" cy="26.5302097" rx="12.6827013" ry="12.4529556"></ellipse>
                            <ellipse id="96" cx="23.3435226" cy="26.891165" rx="12.6827013" ry="12.4529556"></ellipse>
                            <ellipse id="97" cx="23.3435226" cy="26.891165" rx="12.6827013" ry="12.4529556"></ellipse>
                            <ellipse id="98" cx="23.3435226" cy="27.2521202" rx="12.6827013" ry="12.4529556"></ellipse>
                            <ellipse id="99" cx="23.5273299" cy="27.0716426" rx="12.498894" ry="12.272478"></ellipse>
                            <ellipse id="Oval-3-Copy" cx="23.5273299" cy="27.0716426" rx="12.498894" ry="12.272478"></ellipse>
                            <ellipse id="0" cx="23.7111372" cy="27.2521202" rx="12.6827013" ry="12.4529556"></ellipse>
                            <ellipse id="1" cx="24.0787517" cy="27.2521202" rx="12.6827013" ry="12.4529556"></ellipse>
                            <ellipse id="2" cx="24.0787517" cy="27.2521202" rx="12.6827013" ry="12.4529556"></ellipse>
                            <ellipse id="3" cx="24.0787517" cy="27.2521202" rx="12.6827013" ry="12.4529556"></ellipse>
                            <ellipse id="4" cx="24.6301735" cy="27.4325978" rx="12.8665085" ry="12.6334332"></ellipse>
                            <ellipse id="5" cx="24.6301735" cy="27.7935531" rx="12.8665085" ry="12.6334332"></ellipse>
                            <ellipse id="6" cx="24.6301735" cy="27.7935531" rx="12.8665085" ry="12.6334332"></ellipse>
                            <ellipse id="7" cx="24.997788" cy="27.7935531" rx="12.8665085" ry="12.6334332"></ellipse>
                            <ellipse id="8" cx="24.997788" cy="27.7935531" rx="12.8665085" ry="12.6334332"></ellipse>
                            <ellipse id="9" cx="25.1815953" cy="27.9740307" rx="13.0503158" ry="12.8139108"></ellipse>
                            <ellipse id="10" cx="25.5492098" cy="27.9740307" rx="13.0503158" ry="12.8139108"></ellipse>
                            <ellipse id="11" cx="25.5492098" cy="27.9740307" rx="13.0503158" ry="12.8139108"></ellipse>
                            <ellipse id="12" cx="25.5492098" cy="27.9740307" rx="13.0503158" ry="12.8139108"></ellipse>
                            <ellipse id="13" cx="26.1006316" cy="28.1545083" rx="13.2341231" ry="12.9943884"></ellipse>
                            <ellipse id="14" cx="26.1006316" cy="28.1545083" rx="13.2341231" ry="12.9943884"></ellipse>
                            <ellipse id="15" cx="26.1006316" cy="28.1545083" rx="13.2341231" ry="12.9943884"></ellipse>
                            <ellipse id="16" cx="26.4682461" cy="28.1545083" rx="13.2341231" ry="12.9943884"></ellipse>
                            <ellipse id="17" cx="26.6520534" cy="28.3349859" rx="13.4179303" ry="13.1748661"></ellipse>
                            <ellipse id="18" cx="26.6520534" cy="28.3349859" rx="13.4179303" ry="13.1748661"></ellipse>
                            <ellipse id="19" cx="27.0196679" cy="28.3349859" rx="13.4179303" ry="13.1748661"></ellipse>
                            <ellipse id="20" cx="27.0196679" cy="28.3349859" rx="13.4179303" ry="13.1748661"></ellipse>
                            <ellipse id="21" cx="27.2034752" cy="28.5154635" rx="13.6017376" ry="13.3553437"></ellipse>
                            <ellipse id="22" cx="27.5710897" cy="28.5154635" rx="13.6017376" ry="13.3553437"></ellipse>
                            <ellipse id="23" cx="27.5710897" cy="28.5154635" rx="13.6017376" ry="13.3553437"></ellipse>
                            <ellipse id="24" cx="27.5710897" cy="28.5154635" rx="13.6017376" ry="13.3553437"></ellipse>
                            <ellipse id="25" cx="28.1225115" cy="28.6959411" rx="13.7855449" ry="13.5358213"></ellipse>
                            <ellipse id="26" cx="28.1225115" cy="28.6959411" rx="13.7855449" ry="13.5358213"></ellipse>
                            <ellipse id="27" cx="28.1225115" cy="28.6959411" rx="13.7855449" ry="13.5358213"></ellipse>
                            <ellipse id="28" cx="28.4901261" cy="28.6959411" rx="13.7855449" ry="13.5358213"></ellipse>
                            <ellipse id="29" cx="28.6739333" cy="28.8764188" rx="13.9693521" ry="13.7162989"></ellipse>
                            <ellipse id="30" cx="28.6739333" cy="28.8764188" rx="13.9693521" ry="13.7162989"></ellipse>
                            <ellipse id="31" cx="29.0415479" cy="28.8764188" rx="13.9693521" ry="13.7162989"></ellipse>
                            <ellipse id="32" cx="29.0415479" cy="28.8764188" rx="13.9693521" ry="13.7162989"></ellipse>
                            <ellipse id="33" cx="29.2253551" cy="29.0568964" rx="14.1531594" ry="13.8967765"></ellipse>
                            <ellipse id="34" cx="29.5929696" cy="29.0568964" rx="14.1531594" ry="13.8967765"></ellipse>
                            <ellipse id="35" cx="29.5929696" cy="29.0568964" rx="14.1531594" ry="13.8967765"></ellipse>
                            <ellipse id="36" cx="29.5929696" cy="29.0568964" rx="14.1531594" ry="13.8967765"></ellipse>
                            <ellipse id="37" cx="30.1443914" cy="29.237374" rx="14.3369667" ry="14.0772541"></ellipse>
                            <ellipse id="38" cx="30.1443914" cy="29.237374" rx="14.3369667" ry="14.0772541"></ellipse>
                            <ellipse id="39" cx="30.1443914" cy="29.237374" rx="14.3369667" ry="14.0772541"></ellipse>
                            <ellipse id="40" cx="30.512006" cy="29.237374" rx="14.3369667" ry="14.0772541"></ellipse>
                            <ellipse id="41" cx="30.6958132" cy="29.4178516" rx="14.5207739" ry="14.2577318"></ellipse>
                            <ellipse id="42" cx="30.6958132" cy="29.4178516" rx="14.5207739" ry="14.2577318"></ellipse>
                            <ellipse id="43" cx="31.0634278" cy="29.7788068" rx="14.5207739" ry="14.2577318"></ellipse>
                            <ellipse id="44" cx="31.0634278" cy="29.7788068" rx="14.5207739" ry="14.2577318"></ellipse>
                            <ellipse id="45" cx="31.247235" cy="29.9592845" rx="14.7045812" ry="14.4382094"></ellipse>
                            <ellipse id="46" cx="31.6148496" cy="29.9592845" rx="14.7045812" ry="14.4382094"></ellipse>
                            <ellipse id="47" cx="31.6148496" cy="29.9592845" rx="14.7045812" ry="14.4382094"></ellipse>
                            <ellipse id="48" cx="31.6148496" cy="29.9592845" rx="14.7045812" ry="14.4382094"></ellipse>
                            <ellipse id="49" cx="32.1662714" cy="30.1397621" rx="14.8883885" ry="14.618687"></ellipse>
                            <ellipse id="50" cx="32.1662714" cy="30.1397621" rx="14.8883885" ry="14.618687"></ellipse>
                            <ellipse id="51" cx="32.5338859" cy="30.1397621" rx="14.8883885" ry="14.618687"></ellipse>
                            <ellipse id="52" cx="32.5338859" cy="30.1397621" rx="14.8883885" ry="14.618687"></ellipse>
                            <ellipse id="53" cx="32.7176931" cy="30.3202397" rx="15.0721957" ry="14.7991646"></ellipse>
                            <ellipse id="54" cx="33.0853077" cy="30.3202397" rx="15.0721957" ry="14.7991646"></ellipse>
                            <ellipse id="55" cx="33.0853077" cy="30.3202397" rx="15.0721957" ry="14.7991646"></ellipse>
                            <ellipse id="56" cx="33.0853077" cy="30.3202397" rx="15.0721957" ry="14.7991646"></ellipse>
                            <ellipse id="57" cx="33.6367295" cy="30.5007173" rx="15.256003" ry="14.9796422"></ellipse>
                            <ellipse id="58" cx="33.6367295" cy="30.5007173" rx="15.256003" ry="14.9796422"></ellipse>
                            <ellipse id="59" cx="33.6367295" cy="30.5007173" rx="15.256003" ry="14.9796422"></ellipse>
                            <ellipse id="60" cx="34.004344" cy="30.5007173" rx="15.256003" ry="14.9796422"></ellipse>
                            <ellipse id="61" cx="34.1881513" cy="30.6811949" rx="15.4398102" ry="15.1601199"></ellipse>
                            <ellipse id="62" cx="34.1881513" cy="30.6811949" rx="15.4398102" ry="15.1601199"></ellipse>
                            <ellipse id="63" cx="34.5557658" cy="30.6811949" rx="15.4398102" ry="15.1601199"></ellipse>
                            <ellipse id="64" cx="34.5557658" cy="30.6811949" rx="15.4398102" ry="15.1601199"></ellipse>
                            <ellipse id="65" cx="34.7395731" cy="30.8616726" rx="15.6236175" ry="15.3405975"></ellipse>
                            <ellipse id="66" cx="35.1071876" cy="30.8616726" rx="15.6236175" ry="15.3405975"></ellipse>
                            <ellipse id="67" cx="35.1071876" cy="30.8616726" rx="15.6236175" ry="15.3405975"></ellipse>
                            <ellipse id="68" cx="35.1071876" cy="30.8616726" rx="15.6236175" ry="15.3405975"></ellipse>
                            <ellipse id="69" cx="35.6586094" cy="31.0421502" rx="15.8074248" ry="15.5210751"></ellipse>
                            <ellipse id="70" cx="35.6586094" cy="31.0421502" rx="15.8074248" ry="15.5210751"></ellipse>
                            <ellipse id="71" cx="35.6586094" cy="31.0421502" rx="15.8074248" ry="15.5210751"></ellipse>
                            <ellipse id="72" cx="36.0262239" cy="31.0421502" rx="15.8074248" ry="15.5210751"></ellipse>
                            <ellipse id="73" cx="36.2100312" cy="31.2226278" rx="15.991232" ry="15.7015527"></ellipse>
                            <ellipse id="74" cx="36.2100312" cy="31.2226278" rx="15.991232" ry="15.7015527"></ellipse>
                            <ellipse id="75" cx="36.5776457" cy="31.2226278" rx="15.991232" ry="15.7015527"></ellipse>
                            <ellipse id="76" cx="36.5776457" cy="31.2226278" rx="15.991232" ry="15.7015527"></ellipse>
                            <ellipse id="77" cx="36.761453" cy="31.4031054" rx="16.1750393" ry="15.8820303"></ellipse>
                            <ellipse id="78" cx="37.1290675" cy="31.4031054" rx="16.1750393" ry="15.8820303"></ellipse>
                            <ellipse id="79" cx="37.1290675" cy="31.4031054" rx="16.1750393" ry="15.8820303"></ellipse>
                            <ellipse id="80" cx="37.1290675" cy="31.4031054" rx="16.1750393" ry="15.8820303"></ellipse>
                            <ellipse id="81" cx="37.6804893" cy="31.9445383" rx="16.3588466" ry="16.0625079"></ellipse>
                            <ellipse id="82" cx="37.6804893" cy="31.9445383" rx="16.3588466" ry="16.0625079"></ellipse>
                            <ellipse id="83" cx="37.6804893" cy="31.9445383" rx="16.3588466" ry="16.0625079"></ellipse>
                            <ellipse id="84" cx="38.0481038" cy="31.9445383" rx="16.3588466" ry="16.0625079"></ellipse>
                            <ellipse id="85" cx="38.2319111" cy="32.1250159" rx="16.5426538" ry="16.2429856"></ellipse>
                            <ellipse id="86" cx="38.2319111" cy="32.1250159" rx="16.5426538" ry="16.2429856"></ellipse>
                            <ellipse id="87" cx="38.5995256" cy="32.1250159" rx="16.5426538" ry="16.2429856"></ellipse>
                            <ellipse id="88" cx="38.5995256" cy="32.1250159" rx="16.5426538" ry="16.2429856"></ellipse>
                            <ellipse id="89" cx="38.7833329" cy="32.3054935" rx="16.7264611" ry="16.4234632"></ellipse>
                            <ellipse id="90" cx="39.1509474" cy="32.3054935" rx="16.7264611" ry="16.4234632"></ellipse>
                            <ellipse id="91" cx="39.1509474" cy="32.3054935" rx="16.7264611" ry="16.4234632"></ellipse>
                            <ellipse id="92" cx="39.1509474" cy="32.3054935" rx="16.7264611" ry="16.4234632"></ellipse>
                            <ellipse id="93" cx="39.7023692" cy="32.4859711" rx="16.9102684" ry="16.6039408"></ellipse>
                            <ellipse id="94" cx="39.7023692" cy="32.4859711" rx="16.9102684" ry="16.6039408"></ellipse>
                            <ellipse id="95" cx="39.7023692" cy="32.4859711" rx="16.9102684" ry="16.6039408"></ellipse>
                            <ellipse id="96" cx="40.0699837" cy="32.4859711" rx="16.9102684" ry="16.6039408"></ellipse>
                            <ellipse id="97" cx="40.253791" cy="32.6664487" rx="17.0940756" ry="16.7844184"></ellipse>
                            <ellipse id="98" cx="40.253791" cy="32.6664487" rx="17.0940756" ry="16.7844184"></ellipse>
                            <ellipse id="99" cx="40.6214055" cy="32.6664487" rx="17.0940756" ry="16.7844184"></ellipse>
                            <ellipse id="Oval-3-Copy-2" cx="40.6214055" cy="32.6664487" rx="17.0940756" ry="16.7844184"></ellipse>
                            <ellipse id="0" cx="40.253791" cy="32.6664487" rx="17.0940756" ry="16.7844184"></ellipse>
                            <ellipse id="1" cx="40.253791" cy="33.027404" rx="17.0940756" ry="16.7844184"></ellipse>
                            <ellipse id="2" cx="39.8861765" cy="33.027404" rx="17.0940756" ry="16.7844184"></ellipse>
                            <ellipse id="3" cx="39.8861765" cy="33.027404" rx="17.0940756" ry="16.7844184"></ellipse>
                            <ellipse id="4" cx="39.5185619" cy="33.3883592" rx="17.0940756" ry="16.7844184"></ellipse>
                            <ellipse id="5" cx="39.1509474" cy="33.3883592" rx="17.0940756" ry="16.7844184"></ellipse>
                            <ellipse id="6" cx="39.1509474" cy="33.3883592" rx="17.0940756" ry="16.7844184"></ellipse>
                            <ellipse id="7" cx="38.7833329" cy="33.7493144" rx="17.0940756" ry="16.7844184"></ellipse>
                            <ellipse id="8" cx="38.7833329" cy="33.7493144" rx="17.0940756" ry="16.7844184"></ellipse>
                            <ellipse id="9" cx="38.4157184" cy="33.7493144" rx="17.0940756" ry="16.7844184"></ellipse>
                            <ellipse id="10" cx="38.4157184" cy="33.7493144" rx="17.0940756" ry="16.7844184"></ellipse>
                            <ellipse id="11" cx="38.0481038" cy="34.1102697" rx="17.0940756" ry="16.7844184"></ellipse>
                            <ellipse id="12" cx="37.6804893" cy="34.1102697" rx="17.0940756" ry="16.7844184"></ellipse>
                            <ellipse id="13" cx="37.6804893" cy="34.1102697" rx="17.0940756" ry="16.7844184"></ellipse>
                            <ellipse id="14" cx="37.3128748" cy="34.4712249" rx="17.0940756" ry="16.7844184"></ellipse>
                            <ellipse id="15" cx="37.3128748" cy="34.4712249" rx="17.0940756" ry="16.7844184"></ellipse>
                            <ellipse id="16" cx="36.9452602" cy="34.4712249" rx="17.0940756" ry="16.7844184"></ellipse>
                            <ellipse id="17" cx="36.5776457" cy="34.8321801" rx="17.0940756" ry="16.7844184"></ellipse>
                            <ellipse id="18" cx="36.5776457" cy="34.8321801" rx="17.0940756" ry="16.7844184"></ellipse>
                            <ellipse id="19" cx="36.2100312" cy="34.8321801" rx="17.0940756" ry="16.7844184"></ellipse>
                            <ellipse id="20" cx="36.2100312" cy="35.1931354" rx="17.0940756" ry="16.7844184"></ellipse>
                            <ellipse id="21" cx="35.8424167" cy="35.1931354" rx="17.0940756" ry="16.7844184"></ellipse>
                            <ellipse id="22" cx="35.8424167" cy="35.1931354" rx="17.0940756" ry="16.7844184"></ellipse>
                            <ellipse id="23" cx="35.4748021" cy="35.5540906" rx="17.0940756" ry="16.7844184"></ellipse>
                            <ellipse id="24" cx="35.1071876" cy="35.5540906" rx="17.0940756" ry="16.7844184"></ellipse>
                            <ellipse id="25" cx="35.1071876" cy="35.5540906" rx="17.0940756" ry="16.7844184"></ellipse>
                            <ellipse id="26" cx="34.7395731" cy="35.9150458" rx="17.0940756" ry="16.7844184"></ellipse>
                            <ellipse id="27" cx="34.7395731" cy="35.9150458" rx="17.0940756" ry="16.7844184"></ellipse>
                            <ellipse id="28" cx="34.3719585" cy="35.9150458" rx="17.0940756" ry="16.7844184"></ellipse>
                            <ellipse id="29" cx="34.004344" cy="36.2760011" rx="17.0940756" ry="16.7844184"></ellipse>
                            <ellipse id="30" cx="34.004344" cy="36.2760011" rx="17.0940756" ry="16.7844184"></ellipse>
                            <ellipse id="31" cx="33.6367295" cy="36.2760011" rx="17.0940756" ry="16.7844184"></ellipse>
                            <ellipse id="32" cx="33.6367295" cy="36.2760011" rx="17.0940756" ry="16.7844184"></ellipse>
                            <ellipse id="33" cx="33.2691149" cy="36.6369563" rx="17.0940756" ry="16.7844184"></ellipse>
                            <ellipse id="34" cx="33.2691149" cy="36.6369563" rx="17.0940756" ry="16.7844184"></ellipse>
                            <ellipse id="35" cx="32.9015004" cy="36.6369563" rx="17.0940756" ry="16.7844184"></ellipse>
                            <ellipse id="36" cx="32.5338859" cy="36.9979115" rx="17.0940756" ry="16.7844184"></ellipse>
                            <ellipse id="37" cx="32.5338859" cy="36.9979115" rx="17.0940756" ry="16.7844184"></ellipse>
                            <ellipse id="38" cx="32.1662714" cy="36.9979115" rx="17.0940756" ry="16.7844184"></ellipse>
                            <ellipse id="39" cx="32.1662714" cy="37.3588668" rx="17.0940756" ry="16.7844184"></ellipse>
                            <ellipse id="40" cx="31.7986568" cy="37.3588668" rx="17.0940756" ry="16.7844184"></ellipse>
                            <ellipse id="41" cx="31.4310423" cy="37.3588668" rx="17.0940756" ry="16.7844184"></ellipse>
                            <ellipse id="42" cx="31.4310423" cy="37.719822" rx="17.0940756" ry="16.7844184"></ellipse>
                            <ellipse id="43" cx="31.0634278" cy="37.719822" rx="17.0940756" ry="16.7844184"></ellipse>
                            <ellipse id="44" cx="31.0634278" cy="37.719822" rx="17.0940756" ry="16.7844184"></ellipse>
                            <ellipse id="45" cx="30.6958132" cy="38.0807772" rx="17.0940756" ry="16.7844184"></ellipse>
                            <ellipse id="46" cx="30.6958132" cy="38.0807772" rx="17.0940756" ry="16.7844184"></ellipse>
                            <ellipse id="47" cx="30.3281987" cy="38.0807772" rx="17.0940756" ry="16.7844184"></ellipse>
                            <ellipse id="48" cx="29.9605842" cy="38.4417325" rx="17.0940756" ry="16.7844184"></ellipse>
                            <ellipse id="49" cx="29.9605842" cy="38.4417325" rx="17.0940756" ry="16.7844184"></ellipse>
                            <ellipse id="50" cx="29.5929696" cy="38.4417325" rx="17.0940756" ry="16.7844184"></ellipse>
                            <ellipse id="51" cx="29.5929696" cy="38.4417325" rx="17.0940756" ry="16.7844184"></ellipse>
                            <ellipse id="52" cx="29.2253551" cy="38.8026877" rx="17.0940756" ry="16.7844184"></ellipse>
                            <ellipse id="53" cx="28.8577406" cy="38.8026877" rx="17.0940756" ry="16.7844184"></ellipse>
                            <ellipse id="54" cx="28.8577406" cy="38.8026877" rx="17.0940756" ry="16.7844184"></ellipse>
                            <ellipse id="55" cx="28.4901261" cy="39.1636429" rx="17.0940756" ry="16.7844184"></ellipse>
                            <ellipse id="56" cx="28.4901261" cy="39.1636429" rx="17.0940756" ry="16.7844184"></ellipse>
                            <ellipse id="57" cx="28.1225115" cy="39.1636429" rx="17.0940756" ry="16.7844184"></ellipse>
                            <ellipse id="58" cx="28.1225115" cy="39.5245982" rx="17.0940756" ry="16.7844184"></ellipse>
                            <ellipse id="59" cx="27.754897" cy="39.5245982" rx="17.0940756" ry="16.7844184"></ellipse>
                            <ellipse id="60" cx="27.3872825" cy="39.5245982" rx="17.0940756" ry="16.7844184"></ellipse>
                            <ellipse id="61" cx="27.3872825" cy="39.8855534" rx="17.0940756" ry="16.7844184"></ellipse>
                            <ellipse id="62" cx="27.0196679" cy="39.8855534" rx="17.0940756" ry="16.7844184"></ellipse>
                            <ellipse id="63" cx="27.0196679" cy="39.8855534" rx="17.0940756" ry="16.7844184"></ellipse>
                            <ellipse id="64" cx="26.6520534" cy="40.2465087" rx="17.0940756" ry="16.7844184"></ellipse>
                            <ellipse id="65" cx="26.2844389" cy="40.2465087" rx="17.0940756" ry="16.7844184"></ellipse>
                            <ellipse id="66" cx="26.2844389" cy="40.2465087" rx="17.0940756" ry="16.7844184"></ellipse>
                            <ellipse id="67" cx="25.9168243" cy="40.6074639" rx="17.0940756" ry="16.7844184"></ellipse>
                            <ellipse id="68" cx="25.9168243" cy="40.6074639" rx="17.0940756" ry="16.7844184"></ellipse>
                            <ellipse id="69" cx="25.5492098" cy="40.6074639" rx="17.0940756" ry="16.7844184"></ellipse>
                            <ellipse id="70" cx="25.5492098" cy="40.6074639" rx="17.0940756" ry="16.7844184"></ellipse>
                            <ellipse id="71" cx="25.1815953" cy="40.9684191" rx="17.0940756" ry="16.7844184"></ellipse>
                            <ellipse id="72" cx="24.8139808" cy="40.9684191" rx="17.0940756" ry="16.7844184"></ellipse>
                            <ellipse id="73" cx="24.8139808" cy="40.9684191" rx="17.0940756" ry="16.7844184"></ellipse>
                            <ellipse id="74" cx="24.4463662" cy="41.3293744" rx="17.0940756" ry="16.7844184"></ellipse>
                            <ellipse id="75" cx="24.4463662" cy="41.3293744" rx="17.0940756" ry="16.7844184"></ellipse>
                            <ellipse id="76" cx="24.0787517" cy="41.3293744" rx="17.0940756" ry="16.7844184"></ellipse>
                            <ellipse id="77" cx="23.7111372" cy="41.6903296" rx="17.0940756" ry="16.7844184"></ellipse>
                            <ellipse id="78" cx="23.7111372" cy="41.6903296" rx="17.0940756" ry="16.7844184"></ellipse>
                            <ellipse id="79" cx="23.3435226" cy="41.6903296" rx="17.0940756" ry="16.7844184"></ellipse>
                            <ellipse id="80" cx="23.3435226" cy="42.0512848" rx="17.0940756" ry="16.7844184"></ellipse>
                            <ellipse id="81" cx="22.9759081" cy="42.0512848" rx="17.0940756" ry="16.7844184"></ellipse>
                            <ellipse id="82" cx="22.9759081" cy="42.0512848" rx="17.0940756" ry="16.7844184"></ellipse>
                            <ellipse id="83" cx="22.6082936" cy="42.4122401" rx="17.0940756" ry="16.7844184"></ellipse>
                            <ellipse id="84" cx="22.2406791" cy="42.4122401" rx="17.0940756" ry="16.7844184"></ellipse>
                            <ellipse id="85" cx="22.2406791" cy="42.4122401" rx="17.0940756" ry="16.7844184"></ellipse>
                            <ellipse id="86" cx="21.8730645" cy="42.7731953" rx="17.0940756" ry="16.7844184"></ellipse>
                            <ellipse id="87" cx="21.8730645" cy="42.7731953" rx="17.0940756" ry="16.7844184"></ellipse>
                            <ellipse id="88" cx="21.50545" cy="42.7731953" rx="17.0940756" ry="16.7844184"></ellipse>
                            <ellipse id="89" cx="21.1378355" cy="43.1341505" rx="17.0940756" ry="16.7844184"></ellipse>
                            <ellipse id="90" cx="21.1378355" cy="43.1341505" rx="17.0940756" ry="16.7844184"></ellipse>
                            <ellipse id="91" cx="20.7702209" cy="43.1341505" rx="17.0940756" ry="16.7844184"></ellipse>
                            <ellipse id="92" cx="20.7702209" cy="43.1341505" rx="17.0940756" ry="16.7844184"></ellipse>
                            <ellipse id="93" cx="20.4026064" cy="43.4951058" rx="17.0940756" ry="16.7844184"></ellipse>
                            <ellipse id="94" cx="20.4026064" cy="43.4951058" rx="17.0940756" ry="16.7844184"></ellipse>
                            <ellipse id="95" cx="20.0349919" cy="43.4951058" rx="17.0940756" ry="16.7844184"></ellipse>
                            <ellipse id="96" cx="19.6673773" cy="43.856061" rx="17.0940756" ry="16.7844184"></ellipse>
                            <ellipse id="97" cx="19.6673773" cy="43.856061" rx="17.0940756" ry="16.7844184"></ellipse>
                            <ellipse id="98" cx="19.2997628" cy="43.856061" rx="17.0940756" ry="16.7844184"></ellipse>
                            <ellipse id="99" cx="19.2997628" cy="44.2170162" rx="17.0940756" ry="16.7844184"></ellipse>
                            <ellipse id="Oval-3-Copy-3" cx="18.9321483" cy="44.2170162" rx="17.0940756" ry="16.7844184"></ellipse>
                        </g>
                        <path d="M45.2844545,51.1154865 L45.2844545,46.0444201 L40.3286925,45.2533542 C40.0703605,44.3772554 39.7144945,43.5372315 39.2663667,42.743589 L42.1528346,38.721264 L38.4834619,35.1369894 L34.4213189,37.992041 C33.6015092,37.5462608 32.734251,37.1932447 31.8353603,36.9407224 L30.970738,32.1196015 L25.7830042,32.1196015 L24.9816469,36.9252615 C24.0748479,37.1752072 23.207589,37.5230701 22.3930517,37.9636965 L18.338817,35.1344122 L14.6720802,38.7186874 L17.5216431,42.7023608 C17.0629719,43.508887 16.6991975,44.3617951 16.4382291,45.2482011 L11.5430962,46.0444201 L11.5430962,51.1154865 L16.4303214,51.9606643 C16.6912892,52.8496468 17.0524277,53.7025549 17.5137348,54.5090811 L14.624631,58.4566795 L18.2913679,62.0461079 L22.3719634,59.2528986 C23.194409,59.6961016 24.0643037,60.0465411 24.9658303,60.299064 L25.78564,65.1073004 L30.970738,65.1073004 L31.8459045,60.2861804 C32.7500669,60.0285043 33.6146892,59.6754875 34.4292272,59.2297079 L38.5361828,62.0461079 L42.2055555,58.4566795 L39.2716391,54.4755833 C39.7224028,53.6793643 40.0756323,52.8393397 40.3313283,51.9658174 L45.2844545,51.1154865 Z M28.4137753,53.2310074 C25.8093643,53.2310074 23.6899852,51.1592913 23.6899852,48.6134511 C23.6899852,46.0676108 25.8093643,43.9958947 28.4137753,43.9958947 C31.0181864,43.9958947 33.1375655,46.0676108 33.1375655,48.6134511 C33.1375655,51.1592913 31.0181864,53.2310074 28.4137753,53.2310074 Z" id="Shape" fill="#C16AD5" fill-rule="nonzero"></path>
                    </g>
                    <g id="icons8-settings_filled" transform="translate(11.680514, 32.408967)"></g>
                </g>
                <rect id="Rectangle-6" class="anim-base" fill="url(#linearGradient-1)" x="262.757322" y="221.338782" width="53.1589958" height="44.05594"></rect>
                <g id="icons8-server_filled" class="anim-base" transform="translate(255.163180, 204.627908)" fill="url(#linearGradient-3)" fill-rule="nonzero">
                    <path d="M9.96731172,0 C8.20745924,0 6.9148225,0.678879247 5.98038703,1.41947479 C5.95702564,1.43490485 5.94145272,1.465763 5.91809133,1.48119108 C5.63776069,1.70491216 5.3885779,1.9440633 5.17054295,2.16007033 C5.13160864,2.19864252 5.08488587,2.24493073 5.04595156,2.28350292 C5.03816509,2.29893298 5.05373802,2.32979113 5.04595156,2.34521922 L1.49509676,6.29506211 C2.27379299,6.06362699 3.10699845,5.92476434 3.98692469,5.92476434 L59.8038703,5.92476434 C60.6837965,5.92476434 61.517002,6.05591097 62.2956982,6.29506211 L58.620252,2.16007033 C57.6235209,0.840884028 55.7935842,0 54.0103704,0 L9.96731172,0 Z M3.98692469,9.87460723 C1.67419739,9.87460723 0,11.5332332 0,13.8244501 L0,94.7962294 C0,97.0874464 1.67419739,98.7460723 3.98692469,98.7460723 L59.8038703,98.7460723 C62.1165976,98.7460723 63.790795,97.0874464 63.790795,94.7962294 L63.790795,13.8244501 C63.790795,11.5332332 62.1165976,9.87460723 59.8038703,9.87460723 L3.98692469,9.87460723 Z M13.9542364,19.7492145 L49.8365586,19.7492145 C51.0357518,19.7492145 51.8300209,20.5360982 51.8300209,21.7241359 L51.8300209,31.5987431 C51.8300209,32.7867828 51.0357518,33.5736646 49.8365586,33.5736646 L13.9542364,33.5736646 C12.7550452,33.5736646 11.9607741,32.7867828 11.9607741,31.5987431 L11.9607741,21.7241359 C11.9607741,20.5360982 12.7550452,19.7492145 13.9542364,19.7492145 Z M13.9542364,37.5235075 L49.8365586,37.5235075 C51.0357518,37.5235075 51.8300209,38.3103912 51.8300209,39.4984289 L51.8300209,49.3730362 C51.8300209,50.5610758 51.0357518,51.3479576 49.8365586,51.3479576 L13.9542364,51.3479576 C12.7550452,51.3479576 11.9607741,50.5610758 11.9607741,49.3730362 L11.9607741,39.4984289 C11.9607741,38.3103912 12.7550452,37.5235075 13.9542364,37.5235075 Z M31.8953975,63.1974863 C34.0913218,63.1974863 35.8823222,64.9718308 35.8823222,67.1473292 C35.8823222,69.3228296 34.0913218,71.0971721 31.8953975,71.0971721 C29.6994751,71.0971721 27.9084728,69.3228296 27.9084728,67.1473292 C27.9084728,64.9718308 29.6994751,63.1974863 31.8953975,63.1974863 Z M31.8953975,77.0219364 C34.0913218,77.0219364 35.8823222,78.7962809 35.8823222,80.9717793 C35.8823222,83.1472797 34.0913218,84.9216222 31.8953975,84.9216222 C29.6994751,84.9216222 27.9084728,83.1472797 27.9084728,80.9717793 C27.9084728,78.7962809 29.6994751,77.0219364 31.8953975,77.0219364 Z" id="Shape"></path>
                </g>
            </g>
        </g>
    </g>
</svg>
