<?xml version="1.0" encoding="UTF-8"?>
<svg width="437px" viewBox="0 0 437 402" version="1.1" xmlns="http://www.w3.org/2000/svg" xmlns:xlink="http://www.w3.org/1999/xlink">
    <!-- Generator: Sketch 48.2 (47327) - http://www.bohemiancoding.com/sketch -->
    <title>heroConsulting</title>
    <desc>Created with Sketch.</desc>
    <defs>
        <linearGradient x1="50%" y1="0%" x2="50%" y2="100%" id="linearGradient-1">
            <stop stop-color="#B5EB45" offset="0%"></stop>
            <stop stop-color="#7ED321" offset="100%"></stop>
        </linearGradient>
        <linearGradient x1="50%" y1="0%" x2="50%" y2="100%" id="linearGradient-2">
            <stop stop-color="#B4EC51" offset="0%"></stop>
            <stop stop-color="#429321" offset="100%"></stop>
        </linearGradient>
        <linearGradient x1="2.70368299%" y1="2.67717631%" x2="100%" y2="76.2077724%" id="linearGradient-3">
            <stop stop-color="#3B3B3E" offset="0%"></stop>
            <stop stop-color="#28282A" offset="100%"></stop>
        </linearGradient>
        <linearGradient x1="2.70368299%" y1="2.67717631%" x2="97.6246016%" y2="74.4125919%" id="linearGradient-4">
            <stop stop-color="#292A2C" offset="0%"></stop>
            <stop stop-color="#5C5C61" offset="100%"></stop>
        </linearGradient>
        <linearGradient x1="2.70368299%" y1="2.67717631%" x2="100%" y2="76.2077724%" id="linearGradient-5">
            <stop stop-color="#292A2C" offset="0%"></stop>
            <stop stop-color="#28282A" offset="100%"></stop>
        </linearGradient>
        <linearGradient x1="-11.1946856%" y1="189.911771%" x2="108.336256%" y2="-73.3909528%" id="linearGradient-6">
            <stop stop-color="#3CAAC4" offset="0%"></stop>
            <stop stop-color="#7CD2E6" offset="55.7896205%"></stop>
            <stop stop-color="#B4EC51" offset="100%"></stop>
        </linearGradient>
    </defs>
    <g id="bit.Consulting" stroke="none" stroke-width="1" fill="none" fill-rule="evenodd" transform="translate(-777.000000, -80.000000)">
        <g id="heroConsulting" transform="translate(743.000000, 35.000000)">
            <path d="M315.978222,157.641811 L290.527061,181.33241 C279.383337,191.705276 278.773693,209.131555 289.165384,220.255092 C299.557075,231.37863 317.014978,231.987169 328.158702,221.614303 L353.609863,197.923703 L152.981339,384.673923 L168.573042,370.160763 C179.716766,359.787896 180.326409,342.361617 169.934718,331.23808 C159.543028,320.114542 142.085125,319.506003 130.941401,329.87887 L115.349698,344.39203 L315.978222,157.641811 Z M135.908271,141.207883 L232.450424,51.34395 C243.594148,40.9710834 261.052051,41.5796225 271.443742,52.70316 C281.835432,63.8266976 281.225789,81.2529762 270.082065,91.6258427 L173.539912,181.489776 C162.396188,191.862642 144.938285,191.254103 134.546594,180.130566 C124.154904,169.007028 124.764547,151.580749 135.908271,141.207883 Z M266.306719,429.808524 L294.400298,403.658293 C305.544022,393.285427 323.001925,393.893966 333.393616,405.017503 C343.785307,416.141041 343.175663,433.56732 332.031939,443.940186 L303.93836,470.090416 C292.794636,480.463283 275.336733,479.854744 264.945042,468.731206 C254.553351,457.607669 255.162995,440.18139 266.306719,429.808524 Z M353.8954,348.278714 L430.608648,276.872038 C441.752372,266.499171 459.210275,267.10771 469.601966,278.231248 C479.993657,289.354785 479.384014,306.781064 468.24029,317.153931 L391.527041,388.560606 C380.383317,398.933473 362.925414,398.324934 352.533723,387.201396 C342.142033,376.077859 342.751676,358.65158 353.8954,348.278714 Z M62.1263546,318.623297 L282.174245,113.547588 C293.317969,103.174721 310.775872,103.78326 321.167563,114.906798 C331.559254,126.030335 330.94961,143.456614 319.805886,153.82948 L99.7579958,358.90519 C88.6142718,369.278056 71.1563687,368.669517 60.764678,357.54598 C50.3729872,346.422442 50.9826306,328.996164 62.1263546,318.623297 Z M170.456672,368.406715 L379.061025,174.233104 C390.204749,163.860237 407.662652,164.468777 418.054342,175.592314 C428.446033,186.715852 427.83639,204.14213 416.692666,214.514997 L208.088313,408.688608 C196.944589,419.061474 179.486686,418.452935 169.094996,407.329398 C158.703305,396.20586 159.312948,378.779582 170.456672,368.406715 Z" id="Combined-Shape" fill="#EAF4F7" opacity="0.5" transform="translate(265.183322, 260.717183) rotate(-105.000000) translate(-265.183322, -260.717183) "></path>
            <circle id="Oval-2" fill="#EAF4F7" opacity="0.5" cx="356.5" cy="247.5" r="16.5"></circle>
            <circle id="Oval-2-Copy-3" fill="#EAF4F7" opacity="0.5" cx="356.5" cy="80.5" r="16.5"></circle>
            <circle id="Oval-2-Copy" fill="#EAF4F7" opacity="0.5" cx="50.5" cy="137.5" r="16.5"></circle>
            <circle id="Oval-2-Copy-2" fill="#EAF4F7" opacity="0.5" cx="50.5" cy="235.5" r="16.5"></circle>
            <circle id="Oval" stroke="url(#linearGradient-1)" stroke-width="2" cx="367" cy="97" r="14"></circle>
            <polygon id="Triangle" stroke="url(#linearGradient-2)" stroke-width="2" points="70 252 40 267 40 237"></polygon>
            <g id="Group-8" transform="translate(152.000000, 162.000000)" fill-rule="nonzero">
                <g id="icons8-user-copy" transform="translate(129.000000, 32.000000)">
                    <path d="M121.938399,128.175716 C121.938399,129.341659 120.997129,130.286842 119.836013,130.286842 L2.10238619,130.286842 C0.941270359,130.286842 0,129.341659 0,128.175716 L0,98.3164134 C0.0481385089,90.7674157 4.37092145,83.9041125 11.1426468,80.6251796 L40.7232205,66.4173033 C46.0843053,73.194017 53.1483229,78.028495 60.9691995,78.028495 C68.7900762,78.028495 75.8540938,73.194017 81.2151785,66.4173033 L110.795752,80.6251796 C117.587853,83.9141222 121.914314,90.807856 121.938399,98.3797472 L121.938399,128.175716 Z" id="Shape" fill="url(#linearGradient-3)"></path>
                    <path d="M83.1366146,76.0533988 L61.2786878,86.9011446 L39.4207611,76.0533988 C37.5903619,75.1425865 36.3117267,73.4149964 35.9833097,71.4089881 C35.6548928,69.4029799 36.3166198,67.3624241 37.7622803,65.9232083 L37.8898558,65.7965809 L84.6675199,65.7965809 L84.7950954,65.9232083 C86.2407559,67.3624241 86.9024829,69.4029799 86.574066,71.4089881 C86.245649,73.4149964 84.9670138,75.1425865 83.1366146,76.0533988 Z" id="Shape" fill="#7B7F84"></path>
                    <path d="M34.6675608,48.750123 C34.0164462,48.750123 31.9160767,47.0218438 30.8238846,42.9119114 C29.7316925,38.8019791 30.7188661,36.0198711 31.2229548,35.8934116 C31.2229548,35.8934116 35.2136569,35.1978846 35.2556642,34.3969747 C35.308721,33.2449091 35.4349998,32.097416 35.6337308,30.9614928 C35.7511061,29.7442506 35.6945243,28.5164227 35.4657012,27.3152452 C34.9111077,23.5186599 34.8194165,19.6684225 35.1926532,15.8495879 C35.9067788,8.72570517 40.0655104,4.4893134 46.3456152,4.4893134 C46.822551,4.48780917 47.2864,4.33265636 47.668848,4.0467053 C51.9192683,1.39944138 56.82277,-0.00224873885 61.8253385,2.70800039e-06 L64.0517301,2.70800039e-06 C77.5361024,2.70800039e-06 87.1557947,6.91311963 91.2515152,19.1164571 C89.7182455,18.9478445 90.2223342,20.0227499 89.1511457,21.0765787 C88.0799573,22.1304075 85.412488,22.551939 86.4206654,25.2918939 C87.6409592,28.1745952 88.3516981,31.2485093 88.5210349,34.3758982 C88.5210349,35.176808 92.5117369,33.7646775 92.5537443,33.7646775 C93.0998404,33.9543666 94.0660104,38.759826 92.9528145,42.8908349 C91.8396187,47.0218438 89.7602529,48.7290464 89.1091383,48.7290464 C88.1420012,48.7638531 87.3011382,49.4051265 87.0087688,50.3308662 C83.2701111,62.9768118 73.4823892,75.7281403 61.9723643,75.7281403 C50.4623395,75.7281403 40.5275917,62.9557352 36.788934,50.3308662 C36.5035152,49.3943274 35.6435229,48.7535033 34.6675608,48.750123 Z" id="Shape" fill="#F0E4D2"></path>
                    <path d="M34.5612981,27.3117883 C40.8218188,26.885712 46.2232397,22.7509326 48.2836787,16.807327 C54.5687385,18.9082193 56.6637584,25.210896 85.9940376,23.1100038 C88.9061153,22.8999145 89.3460695,23.9293518 90.1840775,23.1100038 C91.0220855,22.2906558 88.6756631,18.9082193 90.1840775,19.0552817 C86.2244898,6.89111553 76.5035973,0.000188915156 63.0745195,0.000188915156 L60.8537983,0.000188915156 C55.8609163,-0.018597471 50.9624185,1.36410381 46.7124137,3.99188421 C46.3309397,4.2769174 45.8682722,4.43157219 45.3925512,4.43307158 C39.1074913,4.43307158 34.9174514,8.6348561 34.2679953,15.7568809 C33.8957092,19.5634575 33.9871669,23.4013361 34.5403479,27.1857348 L34.5612981,27.3117883 Z" id="Shape" fill="#CDA1A7"></path>
                </g>
                <g id="icons8-user-copy-2" transform="translate(0.000000, 32.000000)">
                    <path d="M121.938399,128.175716 C121.938399,129.341659 120.997129,130.286842 119.836013,130.286842 L2.10238619,130.286842 C0.941270359,130.286842 0,129.341659 0,128.175716 L0,98.3164134 C0.0481385089,90.7674157 4.37092145,83.9041125 11.1426468,80.6251796 L40.7232205,66.4173033 C46.0843053,73.194017 53.1483229,78.028495 60.9691995,78.028495 C68.7900762,78.028495 75.8540938,73.194017 81.2151785,66.4173033 L110.795752,80.6251796 C117.587853,83.9141222 121.914314,90.807856 121.938399,98.3797472 L121.938399,128.175716 Z" id="Shape" fill="url(#linearGradient-4)"></path>
                    <path d="M83.1366146,76.0533988 L61.2786878,86.9011446 L39.4207611,76.0533988 C37.5903619,75.1425865 36.3117267,73.4149964 35.9833097,71.4089881 C35.6548928,69.4029799 36.3166198,67.3624241 37.7622803,65.9232083 L37.8898558,65.7965809 L84.6675199,65.7965809 L84.7950954,65.9232083 C86.2407559,67.3624241 86.9024829,69.4029799 86.574066,71.4089881 C86.245649,73.4149964 84.9670138,75.1425865 83.1366146,76.0533988 Z" id="Shape" fill="#7B7F84"></path>
                    <path d="M34.6675608,48.750123 C34.0164462,48.750123 31.9160767,47.0218438 30.8238846,42.9119114 C29.7316925,38.8019791 30.7188661,36.0198711 31.2229548,35.8934116 C31.2229548,35.8934116 35.2136569,35.1978846 35.2556642,34.3969747 C35.308721,33.2449091 35.4349998,32.097416 35.6337308,30.9614928 C35.7511061,29.7442506 35.6945243,28.5164227 35.4657012,27.3152452 C34.9111077,23.5186599 34.8194165,19.6684225 35.1926532,15.8495879 C35.9067788,8.72570517 40.0655104,4.4893134 46.3456152,4.4893134 C46.822551,4.48780917 47.2864,4.33265636 47.668848,4.0467053 C51.9192683,1.39944138 56.82277,-0.00224873885 61.8253385,2.70800039e-06 L64.0517301,2.70800039e-06 C77.5361024,2.70800039e-06 87.1557947,6.91311963 91.2515152,19.1164571 C89.7182455,18.9478445 90.2223342,20.0227499 89.1511457,21.0765787 C88.0799573,22.1304075 85.412488,22.551939 86.4206654,25.2918939 C87.6409592,28.1745952 88.3516981,31.2485093 88.5210349,34.3758982 C88.5210349,35.176808 92.5117369,33.7646775 92.5537443,33.7646775 C93.0998404,33.9543666 94.0660104,38.759826 92.9528145,42.8908349 C91.8396187,47.0218438 89.7602529,48.7290464 89.1091383,48.7290464 C88.1420012,48.7638531 87.3011382,49.4051265 87.0087688,50.3308662 C83.2701111,62.9768118 73.4823892,75.7281403 61.9723643,75.7281403 C50.4623395,75.7281403 40.5275917,62.9557352 36.788934,50.3308662 C36.5035152,49.3943274 35.6435229,48.7535033 34.6675608,48.750123 Z" id="Shape" fill="#F0E4D2"></path>
                    <path d="M34.5612981,27.3117883 C40.8218188,26.885712 46.2232397,22.7509326 48.2836787,16.807327 C54.5687385,18.9082193 56.6637584,25.210896 85.9940376,23.1100038 C88.9061153,22.8999145 89.3460695,23.9293518 90.1840775,23.1100038 C91.0220855,22.2906558 88.6756631,18.9082193 90.1840775,19.0552817 C86.2244898,6.89111553 76.5035973,0.000188915156 63.0745195,0.000188915156 L60.8537983,0.000188915156 C55.8609163,-0.018597471 50.9624185,1.36410381 46.7124137,3.99188421 C46.3309397,4.2769174 45.8682722,4.43157219 45.3925512,4.43307158 C39.1074913,4.43307158 34.9174514,8.6348561 34.2679953,15.7568809 C33.8957092,19.5634575 33.9871669,23.4013361 34.5403479,27.1857348 L34.5612981,27.3117883 Z" id="Shape" fill="#CDA1A7"></path>
                </g>
                <g id="icons8-user" transform="translate(47.000000, 0.000000)">
                    <path d="M156.077968,158.92133 C156.077968,160.402992 154.873166,161.604116 153.386968,161.604116 L2.69099944,161.604116 C1.20480149,161.604116 3.68777552e-14,160.402992 3.68777552e-14,158.92133 L0,124.499046 C0.0616160347,114.905898 5.59466536,106.18412 14.262297,102.017304 L52.1246592,83.9621574 C58.9867078,92.5738989 68.0284659,98.7174777 78.0389838,98.7174777 C88.0495017,98.7174777 97.0912599,92.5738989 103.953308,83.9621574 L141.815671,102.017304 C150.509383,106.196841 156.047139,114.957289 156.077968,124.57953 L156.077968,158.92133 Z" id="Shape" fill="url(#linearGradient-5)"></path>
                    <path d="M106.624494,96.6398213 L78.6632957,110.705659 L50.7020972,96.6398213 C48.3606054,95.4588074 46.7249437,93.2187103 46.3048247,90.6175996 C45.8847056,88.016489 46.7312031,85.3705818 48.5805277,83.5044082 L48.7437253,83.3402155 L108.582866,83.3402155 L108.746064,83.5044082 C110.595388,85.3705818 111.441886,88.016489 111.021767,90.6175996 C110.601648,93.2187103 108.965986,95.4588074 106.624494,96.6398213 Z" id="Shape" fill="#7B7F84"></path>
                    <polygon id="Shape" fill="url(#linearGradient-6)" points="96.7683399 118.168962 78.0389838 112.778799 59.3096277 118.168962 59.3096277 101.998473 78.0389838 107.388636 96.7683399 101.998473"></polygon>
                    <path d="M43.659124,62.0583098 C42.8221192,62.0583098 40.122104,59.8582315 38.7180961,54.626338 C37.3140882,49.3944444 38.5830953,45.852855 39.231099,45.6918736 C39.231099,45.6918736 44.3611279,44.8064763 44.4151282,43.7869278 C44.4833324,42.3203623 44.6456632,40.8596176 44.901131,39.4136014 C45.0520164,37.864067 44.9792808,36.301057 44.6851297,34.7719728 C43.9722024,29.9389662 43.8543338,25.0376611 44.3341278,20.1763313 C45.2521329,11.1077159 50.5981631,5.714841 58.6712087,5.714841 C59.2843074,5.71292614 59.8805831,5.51541851 60.3722182,5.15140631 C65.8361138,1.78147175 72.1395424,-0.00286261703 78.5703209,3.44725135e-06 L81.4323371,3.44725135e-06 C98.7664349,3.44725135e-06 111.132505,8.80031667 116.397534,24.3350159 C114.426523,24.1203741 115.074527,25.4887155 113.697519,26.8302267 C112.320511,28.1717379 108.891492,28.7083423 110.187499,32.1962713 C111.756181,35.8659148 112.669833,39.7789698 112.887515,43.7600976 C112.887515,44.779646 118.017543,42.9820211 118.071544,42.9820211 C118.773548,43.2234931 120.015555,49.340784 118.584547,54.5995078 C117.153539,59.8582315 114.480524,62.0314796 113.643519,62.0314796 C112.400269,62.0757881 111.319343,62.8921212 110.943504,64.0705766 C106.137476,80.1687105 93.5554055,96.4009956 78.759322,96.4009956 C63.9632385,96.4009956 51.1921665,80.1418803 46.3861393,64.0705766 C46.0192348,62.8783741 44.9137187,62.0626129 43.659124,62.0583098 Z" id="Shape" fill="#FAEFDE"></path>
                    <path d="M44.3672934,34.8287468 C52.4165243,34.2854026 59.3611996,29.0126177 62.0103322,21.4331676 C70.0911133,24.1122834 72.784707,32.149631 110.495019,29.4705151 C114.239114,29.2026035 114.804769,30.5153703 115.882206,29.4705151 C116.959644,28.4256599 113.942819,24.1122834 115.882206,24.2998215 C110.791314,8.78774085 98.2930394,0.000240909825 81.0271037,0.000240909825 L78.1718944,0.000240909825 C71.7524827,-0.0237160087 65.4544219,1.73954286 59.9901369,5.090561 C59.499671,5.45404319 58.9048135,5.65126326 58.2931729,5.65317533 C50.2123918,5.65317533 44.8252044,11.011407 43.9901903,20.0936097 C43.5115374,24.9478613 43.6291257,29.8420301 44.3403575,34.6679998 L44.3672934,34.8287468 Z" id="Shape" fill="#CDA1A7"></path>
                </g>
            </g>
        </g>
    </g>
</svg>
