<?xml version="1.0" encoding="UTF-8"?>
<svg width="428px" viewBox="0 0 428 315" version="1.1" xmlns="http://www.w3.org/2000/svg" xmlns:xlink="http://www.w3.org/1999/xlink">
    <!-- Generator: Sketch 48.2 (47327) - http://www.bohemiancoding.com/sketch -->
    <title>heroSupport</title>
    <desc>Created with Sketch.</desc>
    <defs>
        <linearGradient x1="0%" y1="0%" x2="101.999998%" y2="100.999999%" id="linearGradient-1">
            <stop stop-color="#3023AE" offset="0%"></stop>
            <stop stop-color="#C86DD7" offset="100%"></stop>
        </linearGradient>
        <linearGradient x1="49.3796359%" y1="3.17283163%" x2="30.4476185%" y2="100%" id="linearGradient-2">
            <stop stop-color="#F9F9F9" offset="0%"></stop>
            <stop stop-color="#E2E2E2" offset="100%"></stop>
        </linearGradient>
        <linearGradient x1="50%" y1="0%" x2="50%" y2="100%" id="linearGradient-3">
            <stop stop-color="#FAFBFF" offset="0%"></stop>
            <stop stop-color="#F4F6FF" offset="100%"></stop>
        </linearGradient>
        <linearGradient x1="118.676586%" y1="-175.535993%" x2="30.4476185%" y2="100%" id="linearGradient-4">
            <stop stop-color="#F9F9F9" offset="0%"></stop>
            <stop stop-color="#EEEEEE" offset="47.1933708%"></stop>
            <stop stop-color="#E2E2E2" offset="100%"></stop>
        </linearGradient>
        <linearGradient x1="-9.03011635%" y1="777.976625%" x2="0%" y2="-162.300192%" id="linearGradient-5">
            <stop stop-color="#2BA0BB" offset="0%"></stop>
            <stop stop-color="#3CAAC4" offset="12.0338222%"></stop>
            <stop stop-color="#7CD2E6" offset="55.7896205%"></stop>
            <stop stop-color="#B4EC51" offset="100%"></stop>
        </linearGradient>
        <linearGradient x1="56.2255698%" y1="56.6929681%" x2="108.336256%" y2="-73.3909528%" id="linearGradient-6">
            <stop stop-color="#3CAAC4" offset="0%"></stop>
            <stop stop-color="#7CD2E6" offset="55.7896205%"></stop>
            <stop stop-color="#B4EC51" offset="100%"></stop>
        </linearGradient>
        <linearGradient x1="-11.1946856%" y1="189.911771%" x2="83.3917056%" y2="-47.7824862%" id="linearGradient-7">
            <stop stop-color="#3CAAC4" offset="0%"></stop>
            <stop stop-color="#7CD2E6" offset="55.7896205%"></stop>
            <stop stop-color="#B4EC51" offset="100%"></stop>
        </linearGradient>
    </defs>
    <g id="bit.Support" stroke="none" stroke-width="1" fill="none" fill-rule="evenodd" transform="translate(-826.000000, -132.000000)">
        <g id="heroSupport" transform="translate(827.000000, 101.000000)">
            <path class="fade" d="M85.5028175,224.604868 L223.948387,95.793769 L206.385578,112.134377 C198.695748,119.289069 198.275058,131.308858 205.44594,138.981326 C212.616823,146.653794 224.66381,147.073534 232.35364,139.918842 L249.91645,123.578234 L111.47088,252.389333 L122.230078,242.37887 C129.919908,235.224178 130.340598,223.20439 123.169716,215.531922 C115.998834,207.859454 103.951846,207.439713 96.262016,214.594406 L85.5028175,224.604868 Z M33.8637329,116.814168 L100.483539,54.8304554 C108.173369,47.6757632 120.220357,48.0955035 127.391239,55.7679715 C134.562121,63.4404396 134.141431,75.4602279 126.451601,82.6149202 L59.8317952,144.598633 C52.1419653,151.753325 40.0949778,151.333585 32.9240954,143.661117 C25.753213,135.988649 26.173903,123.968861 33.8637329,116.814168 Z M189.672107,283.520957 L209.058341,265.483817 C216.748171,258.329124 228.795159,258.748865 235.966041,266.421333 C243.136923,274.093801 242.716233,286.113589 235.026403,293.268281 L215.640169,311.305421 C207.950339,318.460114 195.903352,318.040373 188.732469,310.367905 C181.561587,302.695437 181.982277,290.675649 189.672107,283.520957 Z M250.113487,227.285711 L303.050174,178.032905 C310.740004,170.878213 322.786991,171.297953 329.957874,178.970421 C337.128756,186.642889 336.708066,198.662677 329.018236,205.81737 L276.081549,255.070176 C268.391719,262.224868 256.344732,261.805128 249.173849,254.13266 C242.002967,246.460192 242.423657,234.440403 250.113487,227.285711 Z M48.7755566,206.830866 L200.62164,65.3797468 C208.31147,58.2250546 220.358458,58.6447949 227.52934,66.3172629 C234.700223,73.989731 234.279532,86.0095193 226.589703,93.1642116 L74.7436189,234.615331 C67.053789,241.770023 55.0068014,241.350283 47.835919,233.677815 C40.6650366,226.005347 41.0857267,213.985558 48.7755566,206.830866 Z M123.529895,241.169015 L267.479259,107.237626 C275.169089,100.082934 287.216077,100.502674 294.386959,108.175142 C301.557841,115.84761 301.137151,127.867398 293.447321,135.02209 L149.497957,268.953479 C141.808127,276.108172 129.76114,275.688431 122.590257,268.015963 C115.419375,260.343495 115.840065,248.323707 123.529895,241.169015 Z" id="Combined-Shape" fill="#F4F4F4" transform="translate(181.440985, 183.067938) rotate(-105.000000) translate(-181.440985, -183.067938) "></path>
            <circle class="move-1" id="Oval-2" fill="#F4F4F4" cx="324.202338" cy="196.8368" r="16.6675692"></circle>
            <circle class="move-1" id="Oval-2-Copy-6" fill="#F4F4F4" cx="388.232615" cy="255.232615" r="38.2326154"></circle>
            <circle class="move-1" id="Oval-2-Copy-3" fill="#F4F4F4" cx="264.778831" cy="49.0027077" r="16.6675692"></circle>
            <circle class="move-1" id="Oval-2-Copy" fill="#F4F4F4" cx="18.3886769" cy="105.527508" r="16.6675692"></circle>
            <circle class="move-1" id="Oval-2-Copy-2" fill="#F4F4F4" cx="18.3886769" cy="208.431631" r="16.6675692"></circle>
            <circle class="move-1" id="Oval" stroke="url(#linearGradient-1)" stroke-width="2" cx="14.4935385" cy="197.493538" r="14.4935385"></circle>
            <polygon class="move-1" id="Star" stroke="url(#linearGradient-1)" stroke-width="2" points="284.209231 66.0579763 273.012357 71.9998769 275.150769 59.4147294 266.092308 50.5018784 278.610794 48.6657301 284.209231 37.2153846 289.807668 48.6657301 302.326154 50.5018784 293.267692 59.4147294 295.406105 71.9998769"></polygon>
            <g id="icons8-imac" class="anim-base" transform="translate(55.347200, 85.961231)" fill-rule="nonzero">
                <path d="M144.065865,176.007678 C160.088421,176.007678 53.271382,176.007678 69.2939379,176.007678 C85.3164938,176.007678 85.3164938,149.280586 85.3164938,149.280586 L128.04331,149.280586 C128.04331,149.280586 128.04331,176.007678 144.065865,176.007678 Z" id="Shape" fill="url(#linearGradient-2)"></path>
                <path d="M202.07385,0 L10.6354658,0 C4.78595961,0 0,4.79132011 0,10.647378 L0,127.768536 L212.709316,127.768536 L212.709316,10.647378 C212.709316,4.79132011 207.923357,0 202.07385,0 Z" id="Shape" fill="#515151"></path>
                <rect id="Rectangle-path" fill="url(#linearGradient-3)" x="10.4077953" y="10.4300846" width="191.893726" height="106.256487"></rect>
                <path d="M110.309415,39.008 C89.6107428,39.008 79.1143385,55.9908169 79.1143385,89.5122322 C79.1143385,89.8325824 79.2445983,90.123033 79.4841077,90.332328 C79.6815983,90.4989103 79.9379154,90.6056933 80.1900308,90.6056933 C80.2488582,90.6056933 80.2992813,90.6142365 80.3581077,90.6056933 C80.4211368,90.5971512 86.7618385,89.5122322 98.4768,89.5122322 C98.489406,89.5122322 98.4978093,89.5122322 98.5104154,89.5122322 C100.611377,91.5069447 103.082108,92.7926154 106.006646,92.7926154 C108.947992,92.7926154 111.637223,91.5069447 113.939877,89.4780616 C113.986098,89.4823326 114.023915,89.5122322 114.074338,89.5122322 C125.541386,89.5122322 131.562743,90.5629805 131.621569,90.5715226 C131.684598,90.5843369 131.760232,90.6056933 131.823262,90.6056933 C132.071175,90.6056933 132.335897,90.5330809 132.529185,90.3664987 C132.772897,90.1572037 132.898954,89.8368535 132.898954,89.5122322 C132.898954,83.4084988 132.314886,79.3550047 131.789646,76.9374302 C130.650925,77.9625499 129.15504,78.5776217 127.520492,78.5776217 L127.419646,78.5776217 C126.894406,82.2808671 123.776579,85.138388 119.990646,85.138388 L114.914723,85.138388 C114.410492,85.8132591 113.977694,86.3386321 113.637338,86.7102383 C113.578512,86.7743086 113.498675,86.851192 113.435646,86.9152622 C113.154117,87.2099839 112.998646,87.3594808 112.998646,87.3594808 C110.952309,89.3413789 108.557214,90.6056933 106.006646,90.6056933 C100.842483,90.6056933 96.4472709,85.343412 92.3588,74.4088015 C92.2495505,73.9731261 91.8083478,73.759559 91.4848,73.759559 C89.9805121,73.652776 88.7955692,72.358562 88.7955692,70.7183704 C88.7955692,70.0605858 88.9048198,69.1678766 89.3334154,68.8389843 C89.7620121,68.510092 90.6108,68.6339603 90.6108,68.6339603 L90.9469538,68.6339603 C99.8760401,68.6339603 108.372329,59.6684337 111.385108,53.8722361 C114.612185,60.8686789 119.97804,67.3141189 120.192338,67.6430112 C120.406637,67.8608495 120.742791,68.0872298 121.066338,68.0872298 C121.066338,68.0872298 122.595838,68.0872298 123.217723,69.3857148 L123.217723,64.3626281 C123.217723,62.175706 125.369108,62.175706 125.369108,62.175706 L127.520492,62.175706 C128.247425,62.175706 128.953348,62.2910322 129.604646,62.5174126 C128.814685,51.1001418 121.780666,42.954711 112.191877,42.5275778 L111.351492,39.7597545 C111.212829,39.3027217 110.780031,39.008 110.309415,39.008 Z M114.914723,85.138388 C115.368531,84.5318594 115.86856,83.7929181 116.360185,82.9514659 L111.183415,82.9514659 C110.733809,81.6871516 109.557271,80.7645438 108.158031,80.7645438 L106.006646,80.7645438 C104.229232,80.7645438 102.779569,82.2381532 102.779569,84.044927 C102.779569,85.8517008 104.229232,87.3253101 106.006646,87.3253101 L108.158031,87.3253101 C109.557271,87.3253101 110.733809,86.4027024 111.183415,85.138388 L114.914723,85.138388 Z M116.360185,82.9514659 L119.990646,82.9514659 C122.587435,82.9514659 124.768232,81.0678087 125.268262,78.5776217 C125.268262,78.5776217 123.217723,78.5776217 123.217723,76.3906996 L123.217723,72.0168554 C123.217723,73.4392088 120.528492,73.759559 120.528492,73.759559 C120.099897,73.759559 119.662897,74.2080486 119.553646,74.6479961 C119.179675,76.3864286 118.654435,78.0736051 117.973723,79.7052534 C117.877079,79.8974631 117.776232,80.1024871 117.671185,80.3544959 C117.259397,81.3198176 116.813992,82.174084 116.360185,82.9514659 Z M125.369108,64.3626281 L125.369108,76.3906996 L127.520492,76.3906996 C129.886175,76.3906996 131.823262,74.4216158 131.823262,72.0168554 L131.823262,68.7364723 C131.823262,66.331712 129.886175,64.3626281 127.520492,64.3626281 L125.369108,64.3626281 Z" id="Shape" fill="#EBEBEB"></path>
                <path d="M114.914723,85.138388 C115.368531,84.5318594 115.86856,83.7929181 116.360185,82.9514659 L111.183415,82.9514659 C110.733809,81.6871516 109.557271,80.7645438 108.158031,80.7645438 L106.006646,80.7645438 C104.229232,80.7645438 102.779569,82.2381532 102.779569,84.044927 C102.779569,85.8517008 104.229232,87.3253101 106.006646,87.3253101 L108.158031,87.3253101 C109.557271,87.3253101 110.733809,86.4027024 111.183415,85.138388 L114.914723,85.138388 Z M116.360185,82.9514659 L119.990646,82.9514659 C122.587435,82.9514659 124.768232,81.0678087 125.268262,78.5776217 C125.268262,78.5776217 123.217723,78.5776217 123.217723,76.3906996 L123.217723,72.0168554 C123.217723,73.4392088 120.528492,73.759559 120.528492,73.759559 C120.099897,73.759559 119.662897,74.2080486 119.553646,74.6479961 C119.179675,76.3864286 118.654435,78.0736051 117.973723,79.7052534 C117.877079,79.8974631 117.776232,80.1024871 117.671185,80.3544959 C117.259397,81.3198176 116.813992,82.174084 116.360185,82.9514659 Z M125.369108,64.3626281 L125.369108,76.3906996 L127.520492,76.3906996 C129.886175,76.3906996 131.823262,74.4216158 131.823262,72.0168554 L131.823262,68.7364723 C131.823262,66.331712 129.886175,64.3626281 127.520492,64.3626281 L125.369108,64.3626281 Z" id="Shape-Copy-2" fill="#D8D5D5"></path>
                <path d="M0,127.768536 L212.709316,127.768536 L212.709316,138.435668 C212.709316,144.302591 207.923357,149.1028 202.07385,149.1028 L10.6354658,149.1028 C4.78595961,149.1028 0,144.302591 0,138.435668 L0,127.768536 Z M148.896521,175.77063 L63.8127949,175.77063 L63.8127949,186.437762 L148.896521,186.437762 L148.896521,175.77063 Z" id="Shape" fill="url(#linearGradient-4)"></path>
                <ellipse id="Oval" fill="#515151" cx="106.029415" cy="138.198621" rx="5.20389764" ry="5.2150423"></ellipse>
            </g>
            <g id="Group-2" class="anim-base" transform="translate(226.461538, 163.184615)">
                <rect id="Rectangle-4" fill="#F8F9FF" x="0" y="0" width="69.3538462" height="107.569231" rx="12"></rect>
                <rect id="Rectangle-2" fill="url(#linearGradient-5)" x="18.622792" y="88.889544" width="32.1082621" height="5.79714417" rx="2.89857209"></rect>
                <rect id="Rectangle-4-Copy" stroke="url(#linearGradient-6)" stroke-width="5" x="2.5" y="2.5" width="64.3538462" height="102.569231" rx="10"></rect>
                <path d="M38.8789169,24.6843077 C22.7775285,24.6843077 14.6124308,37.8951516 14.6124308,63.9712841 C14.6124308,64.2204829 14.7137592,64.4464228 14.9000723,64.6092323 C15.0536992,64.7388158 15.2530869,64.8218817 15.4492062,64.8218817 C15.4949677,64.8218817 15.5341916,64.8285275 15.5799523,64.8218817 C15.6289823,64.8152369 20.5613808,63.9712841 29.6743877,63.9712841 C29.6841939,63.9712841 29.6907308,63.9712841 29.7005369,63.9712841 C31.3348638,65.5229604 33.2568323,66.5230769 35.5318154,66.5230769 C37.8198731,66.5230769 39.9118115,65.5229604 41.7030338,63.944703 C41.7389892,63.9480254 41.7684069,63.9712841 41.8076308,63.9712841 C50.7277869,63.9712841 55.4117685,64.7886557 55.4575292,64.7953006 C55.5065592,64.8052687 55.5653946,64.8218817 55.6144246,64.8218817 C55.8072754,64.8218817 56.0132008,64.7653969 56.1635585,64.6358135 C56.3531408,64.473004 56.4512,64.2238053 56.4512,63.9712841 C56.4512,59.223222 55.9968569,56.0700303 55.5882754,54.1894118 C54.70247,54.986847 53.5388292,55.4653082 52.2673231,55.4653082 L52.1888754,55.4653082 C51.7802939,58.3460432 49.3549523,60.5688938 46.4098954,60.5688938 L42.4613615,60.5688938 C42.0691231,61.0938724 41.7324515,61.5025573 41.4676908,61.7916278 C41.42193,61.8414677 41.3598254,61.9012749 41.3107954,61.9511148 C41.0917954,62.1803773 40.9708554,62.2966701 40.9708554,62.2966701 C39.3790208,63.8383783 37.5158885,64.8218817 35.5318154,64.8218817 C31.51464,64.8218817 28.0956277,60.7283808 24.9152277,52.2224048 C24.8302431,51.8834953 24.4870338,51.7173625 24.2353477,51.7173625 C23.06517,51.6342966 22.1434092,50.6275344 22.1434092,49.351638 C22.1434092,48.8399508 22.2283946,48.1455169 22.5617969,47.8896733 C22.8952,47.6338298 23.5554677,47.7301863 23.5554677,47.7301863 L23.81696,47.7301863 C30.7628492,47.7301863 37.3720677,40.7559503 39.7156923,36.2471188 C42.2260185,41.6896147 46.4000892,46.7034886 46.5667908,46.9593322 C46.7334923,47.1287874 46.9949846,47.3048875 47.2466708,47.3048875 C47.2466708,47.3048875 48.4364608,47.3048875 48.9202215,48.3149721 L48.9202215,44.4075394 C48.9202215,42.7063442 50.5937723,42.7063442 50.5937723,42.7063442 L52.2673231,42.7063442 C52.8328,42.7063442 53.3819338,42.7960559 53.8885754,42.972156 C53.2740685,34.0907212 47.8023423,27.7544334 40.3432738,27.4221687 L39.6895431,25.2690935 C39.5816777,24.9135701 39.2450062,24.6843077 38.8789169,24.6843077 Z M42.4613615,60.5688938 C42.8143762,60.0970783 43.2033462,59.5222598 43.5857785,58.8676986 L39.5587969,58.8676986 C39.2090508,57.8841951 38.2938277,57.1665034 37.2053662,57.1665034 L35.5318154,57.1665034 C34.1491746,57.1665034 33.0214892,58.3128163 33.0214892,59.7182962 C33.0214892,61.123776 34.1491746,62.2700889 35.5318154,62.2700889 L37.2053662,62.2700889 C38.2938277,62.2700889 39.2090508,61.5523972 39.5587969,60.5688938 L42.4613615,60.5688938 Z M43.5857785,58.8676986 L46.4098954,58.8676986 C48.4299239,58.8676986 50.1263546,57.4024115 50.5153246,55.4653082 C50.5153246,55.4653082 48.9202215,55.4653082 48.9202215,53.764113 L48.9202215,50.3617226 C48.9202215,51.4681638 46.8282831,51.7173625 46.8282831,51.7173625 C46.4948808,51.7173625 46.1549408,52.0662402 46.0699554,52.4084731 C45.7790454,53.7607906 45.3704639,55.0732363 44.8409415,56.342487 C44.7657623,56.4920058 44.6873146,56.6514929 44.6055985,56.8475293 C44.2852708,57.5984479 43.9387931,58.2629773 43.5857785,58.8676986 Z M50.5937723,44.4075394 L50.5937723,53.764113 L52.2673231,53.764113 C54.1075754,53.764113 55.6144246,52.232373 55.6144246,50.3617226 L55.6144246,47.8099298 C55.6144246,45.9392794 54.1075754,44.4075394 52.2673231,44.4075394 L50.5937723,44.4075394 Z" id="Shape-Copy-3" fill="url(#linearGradient-7)" fill-rule="nonzero"></path>
            </g>
        </g>
    </g>
</svg>
