<?xml version="1.0" encoding="UTF-8"?>
<svg viewBox="0 0 1263 497" version="1.1" xmlns="http://www.w3.org/2000/svg" xmlns:xlink="http://www.w3.org/1999/xlink">

    <defs>
        <rect id="path-1" x="0" y="0" width="1363" height="560"></rect>
    </defs>
    <g id="Startsite" stroke="none" stroke-width="1" fill="none" fill-rule="evenodd" transform="translate(-75.000000, -210.000000)">
        <g id="home-title-bg" transform="translate(39.000000, 147.000000)">
            <mask id="mask-2" fill="white">
                <use xlink:href="#path-1"></use>
            </mask>
            <g id="Mask"></g>
            <g id="Group-8" mask="url(#mask-2)">
                <g transform="translate(-430.000000, 48.000000)">
                    <path d="M576.935174,870.627721 L1371.63008,127.162998 C1411.87523,89.5580546 1474.92381,91.7642024 1512.45302,132.090567 C1549.98223,172.416931 1547.78052,235.592738 1507.53537,273.197681 L712.840468,1016.6624 C672.595317,1054.26735 609.546739,1052.0612 572.017528,1011.73484 C546.998054,984.850593 548.637269,937.814888 576.935174,870.627721 Z" id="Combined-Shape-Copy" fill="#FFFFFF" transform="translate(1046.813698, 571.912701) rotate(-10.000000) translate(-1046.813698, -571.912701) "></path>
                    <path d="M96.9351737,848.627721 L891.630077,105.162998 C931.875229,67.5580546 994.923806,69.7642024 1032.45302,110.090567 C1069.98223,150.416931 1067.78052,213.592738 1027.53537,251.197681 L232.840468,994.662405 C192.595317,1032.26735 129.546739,1030.0612 92.0175282,989.734836 C66.9980543,962.850593 68.6372695,915.814888 96.9351737,848.627721 Z" id="Combined-Shape-Copy-5" fill="#FFFFFF" transform="translate(566.813698, 549.912701) rotate(-10.000000) translate(-566.813698, -549.912701) "></path>
                    <path d="M238.935174,985.627721 L1033.63008,242.162998 C1073.87523,204.558055 1136.92381,206.764202 1174.45302,247.090567 C1211.98223,287.416931 1209.78052,350.592738 1169.53537,388.197681 L374.840468,1131.6624 C334.595317,1169.26735 271.546739,1167.0612 234.017528,1126.73484 C208.998054,1099.85059 210.637269,1052.81489 238.935174,985.627721 Z" id="Combined-Shape-Copy-6" fill="#EAF4F7" transform="translate(708.813698, 686.912701) rotate(-10.000000) translate(-708.813698, -686.912701) "></path>
                    <path d="M836.935174,848.627721 L1631.63008,105.162998 C1671.87523,67.5580546 1734.92381,69.7642024 1772.45302,110.090567 C1809.98223,150.416931 1807.78052,213.592738 1767.53537,251.197681 L972.840468,994.662405 C932.595317,1032.26735 869.546739,1030.0612 832.017528,989.734836 C806.998054,962.850593 808.637269,915.814888 836.935174,848.627721 Z" id="Combined-Shape-Copy-2" fill="#EAF4F7" transform="translate(1306.813698, 549.912701) rotate(-10.000000) translate(-1306.813698, -549.912701) "></path>
                </g>
            </g>
        </g>
    </g>
</svg>
