<svg width="428" viewBox="0 0 428 315" xmlns="http://www.w3.org/2000/svg">
    <title>
        heroSupport
    </title>
    <defs>
        <linearGradient x1="0%" y1="0%" x2="102%" y2="101%" id="a">
            <stop stop-color="#3023AE" offset="0%"/>
            <stop stop-color="#C86DD7" offset="100%"/>
        </linearGradient>
        <linearGradient x1="49.38%" y1="3.173%" x2="30.448%" y2="100%" id="b">
            <stop stop-color="#F9F9F9" offset="0%"/>
            <stop stop-color="#E2E2E2" offset="100%"/>
        </linearGradient>
        <linearGradient x1="50%" y1="0%" x2="50%" y2="100%" id="c">
            <stop stop-color="#FAFBFF" offset="0%"/>
            <stop stop-color="#F4F6FF" offset="100%"/>
        </linearGradient>
        <linearGradient x1="118.677%" y1="-175.536%" x2="30.448%" y2="100%" id="d">
            <stop stop-color="#F9F9F9" offset="0%"/>
            <stop stop-color="#EEE" offset="47.193%"/>
            <stop stop-color="#E2E2E2" offset="100%"/>
        </linearGradient>
        <linearGradient x1="-9.03%" y1="777.977%" x2="0%" y2="-162.3%" id="e">
            <stop stop-color="#2BA0BB" offset="0%"/>
            <stop stop-color="#3CAAC4" offset="12.034%"/>
            <stop stop-color="#7CD2E6" offset="55.79%"/>
            <stop stop-color="#B4EC51" offset="100%"/>
        </linearGradient>
        <linearGradient x1="56.226%" y1="56.693%" x2="108.336%" y2="-73.391%" id="f">
            <stop stop-color="#3CAAC4" offset="0%"/>
            <stop stop-color="#7CD2E6" offset="55.79%"/>
            <stop stop-color="#B4EC51" offset="100%"/>
        </linearGradient>
        <linearGradient x1="-11.195%" y1="189.912%" x2="83.392%" y2="-47.782%" id="g">
            <stop stop-color="#3CAAC4" offset="0%"/>
            <stop stop-color="#7CD2E6" offset="55.79%"/>
            <stop stop-color="#B4EC51" offset="100%"/>
        </linearGradient>
    </defs>
    <g transform="translate(1 -31)" fill="none" fill-rule="evenodd">
        <path d="M246.393 264.987L86.14 164.597l20.33 12.735c8.9 5.576 20.62 2.872 26.175-6.04 5.555-8.913 2.842-20.658-6.059-26.234l-20.33-12.735 160.255 100.39-12.454-7.803c-8.901-5.576-20.62-2.871-26.176 6.041-5.555 8.913-2.842 20.658 6.06 26.234l12.453 7.802zm-90.752 77.777l-77.115-48.307c-8.9-5.576-11.613-17.321-6.058-26.233 5.555-8.913 17.274-11.617 26.175-6.041l77.114 48.307c8.901 5.576 11.614 17.321 6.059 26.233-5.555 8.913-17.274 11.617-26.175 6.041zm120.7-193.646l-22.44-14.057c-8.901-5.576-11.614-17.321-6.059-26.234 5.555-8.912 17.274-11.617 26.175-6.04l22.44 14.057c8.902 5.576 11.614 17.32 6.06 26.233-5.556 8.913-17.275 11.617-26.176 6.041zm-69.963-43.827l-61.275-38.385c-8.901-5.576-11.614-17.322-6.059-26.234 5.555-8.912 17.274-11.617 26.175-6.04l61.276 38.385c8.901 5.576 11.614 17.32 6.059 26.233-5.555 8.912-17.275 11.617-26.176 6.041zm32.353 199.772L62.799 195c-8.902-5.576-11.614-17.321-6.06-26.234 5.556-8.912 17.275-11.617 26.176-6.04l175.932 110.061c8.901 5.576 11.614 17.321 6.059 26.234-5.555 8.912-17.274 11.617-26.175 6.04zm13.82-81.095L85.926 119.588c-8.901-5.576-11.614-17.321-6.058-26.234 5.555-8.912 17.274-11.617 26.175-6.04l166.625 104.38c8.9 5.576 11.613 17.32 6.058 26.233s-17.274 11.617-26.175 6.041z" fill="#F4F4F4"/>
        <circle fill="#F4F4F4" cx="324.202" cy="196.837" r="16.668"/>
        <circle fill="#F4F4F4" cx="388.233" cy="255.233" r="38.233"/>
        <circle fill="#F4F4F4" cx="264.779" cy="49.003" r="16.668"/>
        <circle fill="#F4F4F4" cx="18.389" cy="105.528" r="16.668"/>
        <circle fill="#F4F4F4" cx="18.389" cy="208.432" r="16.668"/>
        <circle stroke="url(#a)" stroke-width="2" cx="14.494" cy="197.494" r="14.494"/>
        <path stroke="url(#a)" stroke-width="2" d="M284.21 66.058L273.011 72l2.139-12.585-9.059-8.913 12.519-1.836 5.598-11.45 5.599 11.45 12.518 1.836-9.058 8.913L295.406 72z"/>
        <g transform="translate(55.347 85.961)" fill-rule="nonzero">
            <path d="M144.066 176.008H69.294c16.022 0 16.022-26.727 16.022-26.727h42.727s0 26.727 16.023 26.727z" fill="url(#b)"/>
            <path d="M202.074 0H10.635C4.786 0 0 4.791 0 10.647V127.77h212.71V10.647C212.71 4.791 207.922 0 202.073 0z" fill="#515151"/>
            <path fill="url(#c)" d="M10.408 10.43h191.894v106.256H10.408z"/>
            <path d="M110.31 39.008c-20.7 0-31.196 16.983-31.196 50.504 0 .32.13.611.37.82.198.167.454.274.706.274.059 0 .11.008.168 0 .063-.009 6.404-1.094 18.119-1.094h.033c2.101 1.995 4.572 3.28 7.497 3.28 2.941 0 5.63-1.285 7.933-3.314.046.004.084.034.134.034 11.467 0 17.489 1.051 17.548 1.06.063.012.138.034.201.034.248 0 .513-.073.706-.24.244-.209.37-.53.37-.854 0-6.104-.584-10.157-1.11-12.575a6.355 6.355 0 0 1-4.269 1.64h-.1c-.526 3.704-3.643 6.561-7.43 6.561h-5.075c-.505.675-.937 1.2-1.278 1.572-.058.064-.138.141-.201.205-.282.295-.437.444-.437.444-2.047 1.982-4.442 3.247-6.992 3.247-5.165 0-9.56-5.263-13.648-16.197-.11-.436-.55-.65-.874-.65-1.504-.106-2.69-1.4-2.69-3.04 0-.658.11-1.551.538-1.88.429-.329 1.278-.205 1.278-.205h.336c8.929 0 17.425-8.966 20.438-14.762 3.227 6.997 8.593 13.442 8.807 13.771.215.218.55.444.874.444 0 0 1.53 0 2.152 1.299v-5.023c0-2.187 2.151-2.187 2.151-2.187h2.151c.727 0 1.433.115 2.085.341-.79-11.417-7.824-19.562-17.413-19.99l-.84-2.767a1.08 1.08 0 0 0-1.043-.752zm4.605 46.13c.454-.606.954-1.345 1.445-2.187h-5.177c-.45-1.264-1.626-2.186-3.025-2.186h-2.151c-1.778 0-3.227 1.473-3.227 3.28 0 1.807 1.45 3.28 3.227 3.28h2.151c1.4 0 2.576-.922 3.025-2.187h3.732zm1.445-2.187h3.63c2.597 0 4.778-1.883 5.278-4.373 0 0-2.05 0-2.05-2.187v-4.374c0 1.422-2.69 1.743-2.69 1.743-.428 0-.865.448-.974.888a28.886 28.886 0 0 1-1.58 5.057 9.662 9.662 0 0 0-.303.65c-.412.965-.857 1.82-1.31 2.596zm9.01-18.588V76.39h2.15c2.366 0 4.303-1.97 4.303-4.374v-3.28c0-2.405-1.937-4.374-4.303-4.374h-2.15z" fill="#EBEBEB"/>
            <path d="M114.915 85.138c.454-.606.954-1.345 1.445-2.187h-5.177c-.45-1.264-1.626-2.186-3.025-2.186h-2.151c-1.778 0-3.227 1.473-3.227 3.28 0 1.807 1.45 3.28 3.227 3.28h2.151c1.4 0 2.576-.922 3.025-2.187h3.732zm1.445-2.187h3.63c2.597 0 4.778-1.883 5.278-4.373 0 0-2.05 0-2.05-2.187v-4.374c0 1.422-2.69 1.743-2.69 1.743-.428 0-.865.448-.974.888a28.886 28.886 0 0 1-1.58 5.057 9.662 9.662 0 0 0-.303.65c-.412.965-.857 1.82-1.31 2.596zm9.01-18.588V76.39h2.15c2.366 0 4.303-1.97 4.303-4.374v-3.28c0-2.405-1.937-4.374-4.303-4.374h-2.15z" fill="#D8D5D5"/>
            <path d="M0 127.769h212.71v10.667c0 5.867-4.787 10.667-10.636 10.667H10.635c-5.849 0-10.635-4.8-10.635-10.667v-10.667zm148.897 48.002H63.813v10.667h85.084V175.77z" fill="url(#d)"/>
            <ellipse fill="#515151" cx="106.029" cy="138.199" rx="5.204" ry="5.215"/>
        </g>
        <g transform="translate(226.462 163.185)">
            <rect fill="#F8F9FF" width="69.354" height="107.569" rx="12"/>
            <rect fill="url(#e)" x="18.623" y="88.89" width="32.108" height="5.797" rx="2.899"/>
            <rect stroke="url(#f)" stroke-width="5" x="2.5" y="2.5" width="64.354" height="102.569" rx="10"/>
            <path d="M38.879 24.684c-16.101 0-24.267 13.211-24.267 39.287 0 .25.102.475.288.638.154.13.353.213.55.213.045 0 .084.007.13 0 .049-.007 4.981-.85 14.094-.85h.027c1.634 1.551 3.556 2.551 5.83 2.551 2.289 0 4.38-1 6.172-2.578.036.003.065.026.105.026 8.92 0 13.604.818 13.65.824.049.01.107.027.156.027a.847.847 0 0 0 .55-.186.873.873 0 0 0 .287-.665c0-4.748-.454-7.901-.863-9.782a4.944 4.944 0 0 1-3.32 1.276h-.08c-.408 2.881-2.833 5.104-5.778 5.104H42.46c-.392.525-.729.934-.993 1.223-.046.05-.108.11-.157.16-.22.228-.34.345-.34.345-1.592 1.541-3.455 2.525-5.44 2.525-4.016 0-7.435-4.094-10.616-12.6-.085-.339-.428-.505-.68-.505-1.17-.083-2.092-1.09-2.092-2.365 0-.512.085-1.206.419-1.462.333-.256.993-.16.993-.16h.262c6.946 0 13.555-6.974 15.899-11.483 2.51 5.443 6.684 10.456 6.85 10.712.167.17.429.346.68.346 0 0 1.19 0 1.674 1.01v-3.907c0-1.702 1.674-1.702 1.674-1.702h1.673c.566 0 1.115.09 1.622.266-.615-8.881-6.087-15.218-13.546-15.55l-.653-2.153a.84.84 0 0 0-.811-.585zM42.46 60.57a18.13 18.13 0 0 0 1.125-1.701h-4.027c-.35-.984-1.265-1.701-2.354-1.701h-1.673c-1.383 0-2.51 1.146-2.51 2.551 0 1.406 1.127 2.552 2.51 2.552h1.673c1.089 0 2.004-.718 2.354-1.701h2.902zm1.125-1.701h2.824c2.02 0 3.716-1.466 4.105-3.403 0 0-1.595 0-1.595-1.7v-3.403c0 1.106-2.092 1.355-2.092 1.355-.333 0-.673.35-.758.691a22.47 22.47 0 0 1-1.23 3.934c-.074.15-.153.31-.234.506-.32.75-.667 1.415-1.02 2.02zm7.008-14.46v9.356h1.673c1.84 0 3.347-1.532 3.347-3.402V47.81c0-1.87-1.506-3.402-3.347-3.402h-1.673z" fill="url(#g)" fill-rule="nonzero"/>
        </g>
    </g>
</svg>
