<svg width="574" viewBox="0 0 574 427" xmlns="http://www.w3.org/2000/svg">
    <title>
        heroDevImage
    </title>
    <defs>
        <linearGradient x1="-11.195%" y1="189.912%" x2="108.336%" y2="-73.391%" id="a">
            <stop stop-color="#3CAAC4" offset="0%"/>
            <stop stop-color="#7CD2E6" offset="55.79%"/>
            <stop stop-color="#B4EC51" offset="100%"/>
        </linearGradient>
        <linearGradient x1="0%" y1="0%" x2="102%" y2="101%" id="b">
            <stop stop-color="#3023AE" offset="0%"/>
            <stop stop-color="#C86DD7" offset="100%"/>
        </linearGradient>
        <linearGradient x1="-11.195%" y1="189.912%" x2="91.308%" y2="-93.658%" id="c">
            <stop stop-color="#3CAAC4" offset="0%"/>
            <stop stop-color="#7CD2E6" offset="55.79%"/>
            <stop stop-color="#B4EC51" offset="100%"/>
        </linearGradient>
        <linearGradient x1="5.062%" y1="5.012%" x2="99.13%" y2="98.158%" id="d">
            <stop stop-color="#281C94" offset="0%"/>
            <stop stop-color="#4133BF" offset="100%"/>
        </linearGradient>
        <linearGradient x1="0%" y1="100%" x2="108.336%" y2="-73.391%" id="e">
            <stop stop-color="#3CAAC4" offset="0%"/>
            <stop stop-color="#7CD2E6" offset="55.79%"/>
            <stop stop-color="#B4EC51" offset="100%"/>
        </linearGradient>
    </defs>
    <g fill="none" fill-rule="evenodd">
        <path class="fade" d="M307.51 335.28L125.546 222.355l23.084 14.325c10.107 6.272 23.438 3.192 29.775-6.88 6.337-10.074 3.281-23.324-6.826-29.596l-23.083-14.325L330.46 298.804l-14.141-8.776c-10.107-6.272-23.438-3.191-29.775 6.881-6.338 10.073-3.282 23.323 6.825 29.595l14.142 8.776zm-103.705 87.653l-87.45-54.537c-10.094-6.295-13.16-19.573-6.845-29.657 6.314-10.085 19.615-13.157 29.71-6.861l87.45 54.537c10.094 6.295 13.158 19.573 6.844 29.657-6.313 10.085-19.615 13.156-29.709 6.861zm137.298-218.661l-25.377-15.787c-10.067-6.263-13.116-19.482-6.812-29.526 6.304-10.044 19.574-13.11 29.64-6.847l25.378 15.787c10.066 6.263 13.116 19.481 6.812 29.526-6.304 10.044-19.575 13.11-29.641 6.847zm-78.986-49.58l-69.325-43.143c-10.07-6.267-13.123-19.495-6.817-29.545 6.305-10.05 19.58-13.117 29.651-6.85l69.325 43.143c10.07 6.267 13.123 19.495 6.817 29.545-6.306 10.05-19.581 13.116-29.651 6.85zm36.252 225.216L98.776 255.635c-10.099-6.296-13.164-19.577-6.847-29.664 6.317-10.087 19.625-13.16 29.723-6.864L321.246 343.38c10.098 6.296 13.164 19.577 6.846 29.664-6.317 10.087-19.624 13.16-29.723 6.864zm15.933-91.403L125.439 171.282c-10.09-6.262-13.14-19.49-6.815-29.545 6.326-10.055 19.633-13.13 29.722-6.868l188.863 117.223c10.089 6.262 13.14 19.49 6.814 29.545-6.325 10.055-19.632 13.13-29.721 6.868z" fill-opacity=".121" fill="#F4F4F4"/>
        <circle class="move-1" fill-opacity=".15" fill="#F4F4F4" cx="397.476" cy="272.555" r="17.035"/>
        <circle class="move-1" fill-opacity=".15" fill="#F4F4F4" cx="337.855" cy="110.726" r="17.035"/>
        <circle class="move-1" fill-opacity=".15" fill="#F4F4F4" cx="82.334" cy="178.864" r="17.035"/>
        <circle class="move-1" fill-opacity=".15" fill="#F4F4F4" cx="46.845" cy="46.845" r="46.845"/>
        <circle class="move-1" fill-opacity=".15" fill="#F4F4F4" cx="498.975" cy="202.287" r="74.527"/>
        <circle class="move-1" fill-opacity=".15" fill="#F4F4F4" cx="93.691" cy="283.912" r="17.035"/>
        <circle class="move-1" stroke="url(#a)" stroke-width="2" cx="349.211" cy="124.921" r="14.196"/>
        <path class="stroke-1" stroke="url(#a)" stroke-width="2" d="M80.205 296.546l-10.967 5.82 2.095-12.326-8.872-8.73 12.26-1.799 5.484-11.214 5.483 11.214 12.262 1.799-8.873 8.73 2.095 12.326z"/>
        <g class="anim-base" transform="translate(129.18 163.25)" fill-rule="nonzero">
            <path d="M144.218 175.559h-74.85c16.039 0 16.039-26.66 16.039-26.66h42.771s0 26.66 16.04 26.66z" fill="url(#b)"/>
            <path d="M202.287 0H10.647C4.79 0 0 4.78 0 10.62v116.823h212.934V10.62c0-5.84-4.791-10.62-10.647-10.62z" fill="url(#b)"/>
            <path fill="#6359BB" d="M10.419 10.403h192.096v105.985H10.419z"/>
            <path d="M20.838 23.408h85.954V33.81H20.838V23.408zm0 29.91h155.63V63.72H20.838V53.318zm0 13.004h155.63v10.404H20.838V66.322zm0 13.005h155.63V89.73H20.838V79.327z" fill="url(#c)"/>
            <path d="M0 127.443h212.934v10.64c0 5.851-4.791 10.64-10.647 10.64H10.647C4.79 148.722 0 143.933 0 138.082v-10.64zm149.054 47.88H63.88v10.64h85.174v-10.64z" fill="url(#d)"/>
            <ellipse fill-opacity=".237" fill="#FFF" cx="106.141" cy="137.846" rx="5.209" ry="5.202"/>
        </g>
        <g class="anim-base" transform="translate(291.01 239.905)">
            <rect fill="#6359BC" width="69.558" height="107.886" rx="12"/>
            <rect fill="url(#b)" x="18.678" y="89.152" width="32.203" height="5.814" rx="2.907"/>
            <rect stroke="url(#d)" stroke-width="5" x="2.5" y="2.5" width="64.558" height="102.886" rx="12"/>
            <g fill="url(#b)" transform="translate(14.17 22.61)">
                <ellipse cx="12.133" cy="12.222" rx="12.133" ry="12.222"/>
                <ellipse cx="12.133" cy="12.222" rx="12.133" ry="12.222"/>
                <ellipse cx="12.399" cy="12.491" rx="12.133" ry="12.222"/>
                <ellipse cx="12.266" cy="12.356" rx="11.999" ry="12.088"/>
                <ellipse cx="12.266" cy="12.625" rx="11.999" ry="12.088"/>
                <ellipse cx="12.266" cy="12.625" rx="11.999" ry="12.088"/>
                <ellipse cx="12.532" cy="12.625" rx="11.999" ry="12.088"/>
                <ellipse cx="12.399" cy="12.759" rx="11.866" ry="11.954"/>
                <ellipse cx="12.399" cy="12.759" rx="11.866" ry="11.954"/>
                <ellipse cx="12.666" cy="13.028" rx="11.866" ry="11.954"/>
                <ellipse cx="12.666" cy="13.028" rx="11.866" ry="11.954"/>
                <ellipse cx="12.666" cy="13.297" rx="11.866" ry="11.954"/>
                <ellipse cx="12.799" cy="13.162" rx="11.733" ry="11.819"/>
                <ellipse cx="12.799" cy="13.162" rx="11.733" ry="11.819"/>
                <ellipse cx="12.799" cy="13.431" rx="11.733" ry="11.819"/>
                <ellipse cx="12.799" cy="13.431" rx="11.733" ry="11.819"/>
                <ellipse cx="12.932" cy="13.565" rx="11.599" ry="11.685"/>
                <ellipse cx="12.932" cy="13.565" rx="11.599" ry="11.685"/>
                <ellipse cx="12.932" cy="13.565" rx="11.599" ry="11.685"/>
                <ellipse cx="13.199" cy="13.834" rx="11.599" ry="11.685"/>
                <ellipse cx="13.066" cy="13.7" rx="11.466" ry="11.551"/>
                <ellipse cx="13.066" cy="13.968" rx="11.466" ry="11.551"/>
                <ellipse cx="13.332" cy="13.968" rx="11.466" ry="11.551"/>
                <ellipse cx="13.332" cy="13.968" rx="11.466" ry="11.551"/>
                <ellipse cx="13.332" cy="14.237" rx="11.466" ry="11.551"/>
                <ellipse cx="13.199" cy="14.102" rx="11.333" ry="11.416"/>
                <ellipse cx="13.466" cy="14.371" rx="11.333" ry="11.416"/>
                <ellipse cx="13.466" cy="14.371" rx="11.333" ry="11.416"/>
                <ellipse cx="13.466" cy="14.371" rx="11.333" ry="11.416"/>
                <ellipse cx="13.599" cy="14.505" rx="11.199" ry="11.282"/>
                <ellipse cx="13.599" cy="14.505" rx="11.199" ry="11.282"/>
                <ellipse cx="13.599" cy="14.774" rx="11.199" ry="11.282"/>
                <ellipse cx="13.866" cy="14.774" rx="11.199" ry="11.282"/>
                <ellipse cx="13.866" cy="15.043" rx="11.199" ry="11.282"/>
                <ellipse cx="13.732" cy="14.908" rx="11.066" ry="11.148"/>
                <ellipse cx="13.732" cy="14.908" rx="11.066" ry="11.148"/>
                <ellipse cx="13.999" cy="15.177" rx="11.066" ry="11.148"/>
                <ellipse cx="13.999" cy="15.177" rx="11.066" ry="11.148"/>
                <ellipse cx="13.866" cy="15.311" rx="10.933" ry="11.013"/>
                <ellipse cx="14.132" cy="15.311" rx="10.933" ry="11.013"/>
                <ellipse cx="14.132" cy="15.311" rx="10.933" ry="11.013"/>
                <ellipse cx="14.132" cy="15.58" rx="10.933" ry="11.013"/>
                <ellipse cx="14.132" cy="15.58" rx="10.933" ry="11.013"/>
                <ellipse cx="14.266" cy="15.714" rx="10.799" ry="10.879"/>
                <ellipse cx="14.266" cy="15.714" rx="10.799" ry="10.879"/>
                <ellipse cx="14.266" cy="15.714" rx="10.799" ry="10.879"/>
                <ellipse cx="14.532" cy="15.983" rx="10.799" ry="10.879"/>
                <ellipse cx="14.399" cy="15.848" rx="10.666" ry="10.745"/>
                <ellipse cx="14.399" cy="16.117" rx="10.666" ry="10.745"/>
                <ellipse cx="14.666" cy="16.117" rx="10.666" ry="10.745"/>
                <ellipse cx="14.666" cy="16.117" rx="10.666" ry="10.745"/>
                <ellipse cx="14.666" cy="16.386" rx="10.666" ry="10.745"/>
                <ellipse cx="14.532" cy="16.251" rx="10.533" ry="10.61"/>
                <ellipse cx="14.799" cy="16.52" rx="10.533" ry="10.61"/>
                <ellipse cx="14.799" cy="16.52" rx="10.533" ry="10.61"/>
                <ellipse cx="14.799" cy="16.789" rx="10.533" ry="10.61"/>
                <ellipse cx="14.932" cy="16.654" rx="10.399" ry="10.476"/>
                <ellipse cx="14.932" cy="16.654" rx="10.399" ry="10.476"/>
                <ellipse cx="14.932" cy="16.923" rx="10.399" ry="10.476"/>
                <ellipse cx="15.199" cy="16.923" rx="10.399" ry="10.476"/>
                <ellipse cx="15.066" cy="17.057" rx="10.266" ry="10.342"/>
                <ellipse cx="15.066" cy="17.057" rx="10.266" ry="10.342"/>
                <ellipse cx="15.066" cy="17.057" rx="10.266" ry="10.342"/>
                <ellipse cx="15.332" cy="17.326" rx="10.266" ry="10.342"/>
                <ellipse cx="15.332" cy="17.326" rx="10.266" ry="10.342"/>
                <ellipse cx="15.199" cy="17.46" rx="10.133" ry="10.207"/>
                <ellipse cx="15.466" cy="17.46" rx="10.133" ry="10.207"/>
                <ellipse cx="15.466" cy="17.46" rx="10.133" ry="10.207"/>
                <ellipse cx="15.466" cy="17.729" rx="10.133" ry="10.207"/>
                <ellipse cx="15.332" cy="17.594" rx="9.999" ry="10.073"/>
                <ellipse cx="15.599" cy="17.863" rx="9.999" ry="10.073"/>
                <ellipse cx="15.599" cy="17.863" rx="9.999" ry="10.073"/>
                <ellipse cx="15.599" cy="17.863" rx="9.999" ry="10.073"/>
                <ellipse cx="15.866" cy="18.132" rx="9.999" ry="10.073"/>
                <ellipse cx="15.732" cy="17.997" rx="9.866" ry="9.939"/>
                <ellipse cx="15.732" cy="18.266" rx="9.866" ry="9.939"/>
                <ellipse cx="15.999" cy="18.266" rx="9.866" ry="9.939"/>
                <ellipse cx="15.999" cy="18.535" rx="9.866" ry="9.939"/>
                <ellipse cx="15.866" cy="18.4" rx="9.733" ry="9.805"/>
                <ellipse cx="15.866" cy="18.4" rx="9.733" ry="9.805"/>
                <ellipse cx="16.132" cy="18.669" rx="9.733" ry="9.805"/>
                <ellipse cx="16.132" cy="18.669" rx="9.733" ry="9.805"/>
                <ellipse cx="16.132" cy="18.938" rx="9.733" ry="9.805"/>
                <ellipse cx="16.266" cy="18.803" rx="9.599" ry="9.67"/>
                <ellipse cx="16.266" cy="18.803" rx="9.599" ry="9.67"/>
                <ellipse cx="16.266" cy="19.072" rx="9.599" ry="9.67"/>
                <ellipse cx="16.532" cy="19.072" rx="9.599" ry="9.67"/>
                <ellipse cx="16.399" cy="19.206" rx="9.466" ry="9.536"/>
                <ellipse cx="16.399" cy="19.206" rx="9.466" ry="9.536"/>
                <ellipse cx="16.399" cy="19.206" rx="9.466" ry="9.536"/>
                <ellipse cx="16.666" cy="19.475" rx="9.466" ry="9.536"/>
                <ellipse cx="16.666" cy="19.475" rx="9.466" ry="9.536"/>
                <ellipse cx="16.532" cy="19.609" rx="9.333" ry="9.402"/>
                <ellipse cx="16.799" cy="19.609" rx="9.333" ry="9.402"/>
                <ellipse cx="16.799" cy="19.878" rx="9.333" ry="9.402"/>
                <ellipse cx="16.799" cy="19.878" rx="9.333" ry="9.402"/>
                <ellipse cx="16.932" cy="19.743" rx="9.199" ry="9.267"/>
                <ellipse cx="16.932" cy="20.012" rx="9.199" ry="9.267"/>
                <ellipse cx="16.932" cy="20.012" rx="9.199" ry="9.267"/>
                <ellipse cx="16.932" cy="20.281" rx="9.199" ry="9.267"/>
                <ellipse cx="17.066" cy="20.146" rx="9.066" ry="9.133"/>
                <ellipse cx="17.066" cy="20.146" rx="9.066" ry="9.133"/>
                <ellipse cx="17.199" cy="20.281" rx="9.199" ry="9.267"/>
                <ellipse cx="17.465" cy="20.281" rx="9.199" ry="9.267"/>
                <ellipse cx="17.465" cy="20.281" rx="9.199" ry="9.267"/>
                <ellipse cx="17.465" cy="20.281" rx="9.199" ry="9.267"/>
                <ellipse cx="17.865" cy="20.415" rx="9.333" ry="9.402"/>
                <ellipse cx="17.865" cy="20.684" rx="9.333" ry="9.402"/>
                <ellipse cx="17.865" cy="20.684" rx="9.333" ry="9.402"/>
                <ellipse cx="18.132" cy="20.684" rx="9.333" ry="9.402"/>
                <ellipse cx="18.132" cy="20.684" rx="9.333" ry="9.402"/>
                <ellipse cx="18.265" cy="20.818" rx="9.466" ry="9.536"/>
                <ellipse cx="18.532" cy="20.818" rx="9.466" ry="9.536"/>
                <ellipse cx="18.532" cy="20.818" rx="9.466" ry="9.536"/>
                <ellipse cx="18.532" cy="20.818" rx="9.466" ry="9.536"/>
                <ellipse cx="18.932" cy="20.952" rx="9.599" ry="9.67"/>
                <ellipse cx="18.932" cy="20.952" rx="9.599" ry="9.67"/>
                <ellipse cx="18.932" cy="20.952" rx="9.599" ry="9.67"/>
                <ellipse cx="19.199" cy="20.952" rx="9.599" ry="9.67"/>
                <ellipse cx="19.332" cy="21.087" rx="9.733" ry="9.805"/>
                <ellipse cx="19.332" cy="21.087" rx="9.733" ry="9.805"/>
                <ellipse cx="19.599" cy="21.087" rx="9.733" ry="9.805"/>
                <ellipse cx="19.599" cy="21.087" rx="9.733" ry="9.805"/>
                <ellipse cx="19.732" cy="21.221" rx="9.866" ry="9.939"/>
                <ellipse cx="19.999" cy="21.221" rx="9.866" ry="9.939"/>
                <ellipse cx="19.999" cy="21.221" rx="9.866" ry="9.939"/>
                <ellipse cx="19.999" cy="21.221" rx="9.866" ry="9.939"/>
                <ellipse cx="20.399" cy="21.355" rx="9.999" ry="10.073"/>
                <ellipse cx="20.399" cy="21.355" rx="9.999" ry="10.073"/>
                <ellipse cx="20.399" cy="21.355" rx="9.999" ry="10.073"/>
                <ellipse cx="20.665" cy="21.355" rx="9.999" ry="10.073"/>
                <ellipse cx="20.799" cy="21.489" rx="10.133" ry="10.207"/>
                <ellipse cx="20.799" cy="21.489" rx="10.133" ry="10.207"/>
                <ellipse cx="21.065" cy="21.489" rx="10.133" ry="10.207"/>
                <ellipse cx="21.065" cy="21.489" rx="10.133" ry="10.207"/>
                <ellipse cx="21.199" cy="21.624" rx="10.266" ry="10.342"/>
                <ellipse cx="21.465" cy="21.624" rx="10.266" ry="10.342"/>
                <ellipse cx="21.465" cy="21.624" rx="10.266" ry="10.342"/>
                <ellipse cx="21.465" cy="21.624" rx="10.266" ry="10.342"/>
                <ellipse cx="21.865" cy="21.758" rx="10.399" ry="10.476"/>
                <ellipse cx="21.865" cy="21.758" rx="10.399" ry="10.476"/>
                <ellipse cx="21.865" cy="21.758" rx="10.399" ry="10.476"/>
                <ellipse cx="22.132" cy="21.758" rx="10.399" ry="10.476"/>
                <ellipse cx="22.265" cy="21.892" rx="10.533" ry="10.61"/>
                <ellipse cx="22.265" cy="21.892" rx="10.533" ry="10.61"/>
                <ellipse cx="22.532" cy="22.161" rx="10.533" ry="10.61"/>
                <ellipse cx="22.532" cy="22.161" rx="10.533" ry="10.61"/>
                <ellipse cx="22.665" cy="22.295" rx="10.666" ry="10.745"/>
                <ellipse cx="22.932" cy="22.295" rx="10.666" ry="10.745"/>
                <ellipse cx="22.932" cy="22.295" rx="10.666" ry="10.745"/>
                <ellipse cx="22.932" cy="22.295" rx="10.666" ry="10.745"/>
                <ellipse cx="23.332" cy="22.43" rx="10.799" ry="10.879"/>
                <ellipse cx="23.332" cy="22.43" rx="10.799" ry="10.879"/>
                <ellipse cx="23.598" cy="22.43" rx="10.799" ry="10.879"/>
                <ellipse cx="23.598" cy="22.43" rx="10.799" ry="10.879"/>
                <ellipse cx="23.732" cy="22.564" rx="10.933" ry="11.013"/>
                <ellipse cx="23.998" cy="22.564" rx="10.933" ry="11.013"/>
                <ellipse cx="23.998" cy="22.564" rx="10.933" ry="11.013"/>
                <ellipse cx="23.998" cy="22.564" rx="10.933" ry="11.013"/>
                <ellipse cx="24.398" cy="22.698" rx="11.066" ry="11.148"/>
                <ellipse cx="24.398" cy="22.698" rx="11.066" ry="11.148"/>
                <ellipse cx="24.398" cy="22.698" rx="11.066" ry="11.148"/>
                <ellipse cx="24.665" cy="22.698" rx="11.066" ry="11.148"/>
                <ellipse cx="24.798" cy="22.833" rx="11.199" ry="11.282"/>
                <ellipse cx="24.798" cy="22.833" rx="11.199" ry="11.282"/>
                <ellipse cx="25.065" cy="22.833" rx="11.199" ry="11.282"/>
                <ellipse cx="25.065" cy="22.833" rx="11.199" ry="11.282"/>
                <ellipse cx="25.198" cy="22.967" rx="11.333" ry="11.416"/>
                <ellipse cx="25.465" cy="22.967" rx="11.333" ry="11.416"/>
                <ellipse cx="25.465" cy="22.967" rx="11.333" ry="11.416"/>
                <ellipse cx="25.465" cy="22.967" rx="11.333" ry="11.416"/>
                <ellipse cx="25.865" cy="23.101" rx="11.466" ry="11.551"/>
                <ellipse cx="25.865" cy="23.101" rx="11.466" ry="11.551"/>
                <ellipse cx="25.865" cy="23.101" rx="11.466" ry="11.551"/>
                <ellipse cx="26.132" cy="23.101" rx="11.466" ry="11.551"/>
                <ellipse cx="26.265" cy="23.235" rx="11.599" ry="11.685"/>
                <ellipse cx="26.265" cy="23.235" rx="11.599" ry="11.685"/>
                <ellipse cx="26.532" cy="23.235" rx="11.599" ry="11.685"/>
                <ellipse cx="26.532" cy="23.235" rx="11.599" ry="11.685"/>
                <ellipse cx="26.665" cy="23.37" rx="11.733" ry="11.819"/>
                <ellipse cx="26.932" cy="23.37" rx="11.733" ry="11.819"/>
                <ellipse cx="26.932" cy="23.37" rx="11.733" ry="11.819"/>
                <ellipse cx="26.932" cy="23.37" rx="11.733" ry="11.819"/>
                <ellipse cx="27.331" cy="23.773" rx="11.866" ry="11.954"/>
                <ellipse cx="27.331" cy="23.773" rx="11.866" ry="11.954"/>
                <ellipse cx="27.331" cy="23.773" rx="11.866" ry="11.954"/>
                <ellipse cx="27.598" cy="23.773" rx="11.866" ry="11.954"/>
                <ellipse cx="27.731" cy="23.907" rx="11.999" ry="12.088"/>
                <ellipse cx="27.731" cy="23.907" rx="11.999" ry="12.088"/>
                <ellipse cx="27.998" cy="23.907" rx="11.999" ry="12.088"/>
                <ellipse cx="27.998" cy="23.907" rx="11.999" ry="12.088"/>
                <ellipse cx="28.131" cy="24.041" rx="12.133" ry="12.222"/>
                <ellipse cx="28.398" cy="24.041" rx="12.133" ry="12.222"/>
                <ellipse cx="28.398" cy="24.041" rx="12.133" ry="12.222"/>
                <ellipse cx="28.398" cy="24.041" rx="12.133" ry="12.222"/>
                <ellipse cx="28.798" cy="24.176" rx="12.266" ry="12.356"/>
                <ellipse cx="28.798" cy="24.176" rx="12.266" ry="12.356"/>
                <ellipse cx="28.798" cy="24.176" rx="12.266" ry="12.356"/>
                <ellipse cx="29.065" cy="24.176" rx="12.266" ry="12.356"/>
                <ellipse cx="29.198" cy="24.31" rx="12.399" ry="12.491"/>
                <ellipse cx="29.198" cy="24.31" rx="12.399" ry="12.491"/>
                <ellipse cx="29.465" cy="24.31" rx="12.399" ry="12.491"/>
                <ellipse cx="29.465" cy="24.31" rx="12.399" ry="12.491"/>
                <ellipse cx="29.198" cy="24.31" rx="12.399" ry="12.491"/>
                <ellipse cx="29.198" cy="24.579" rx="12.399" ry="12.491"/>
                <ellipse cx="28.931" cy="24.579" rx="12.399" ry="12.491"/>
                <ellipse cx="28.931" cy="24.579" rx="12.399" ry="12.491"/>
                <ellipse cx="28.665" cy="24.847" rx="12.399" ry="12.491"/>
                <ellipse cx="28.398" cy="24.847" rx="12.399" ry="12.491"/>
                <ellipse cx="28.398" cy="24.847" rx="12.399" ry="12.491"/>
                <ellipse cx="28.131" cy="25.116" rx="12.399" ry="12.491"/>
                <ellipse cx="28.131" cy="25.116" rx="12.399" ry="12.491"/>
                <ellipse cx="27.865" cy="25.116" rx="12.399" ry="12.491"/>
                <ellipse cx="27.865" cy="25.116" rx="12.399" ry="12.491"/>
                <ellipse cx="27.598" cy="25.384" rx="12.399" ry="12.491"/>
                <ellipse cx="27.331" cy="25.384" rx="12.399" ry="12.491"/>
                <ellipse cx="27.331" cy="25.384" rx="12.399" ry="12.491"/>
                <ellipse cx="27.065" cy="25.653" rx="12.399" ry="12.491"/>
                <ellipse cx="27.065" cy="25.653" rx="12.399" ry="12.491"/>
                <ellipse cx="26.798" cy="25.653" rx="12.399" ry="12.491"/>
                <ellipse cx="26.532" cy="25.922" rx="12.399" ry="12.491"/>
                <ellipse cx="26.532" cy="25.922" rx="12.399" ry="12.491"/>
                <ellipse cx="26.265" cy="25.922" rx="12.399" ry="12.491"/>
                <ellipse cx="26.265" cy="26.19" rx="12.399" ry="12.491"/>
                <ellipse cx="25.998" cy="26.19" rx="12.399" ry="12.491"/>
                <ellipse cx="25.998" cy="26.19" rx="12.399" ry="12.491"/>
                <ellipse cx="25.732" cy="26.459" rx="12.399" ry="12.491"/>
                <ellipse cx="25.465" cy="26.459" rx="12.399" ry="12.491"/>
                <ellipse cx="25.465" cy="26.459" rx="12.399" ry="12.491"/>
                <ellipse cx="25.198" cy="26.728" rx="12.399" ry="12.491"/>
                <ellipse cx="25.198" cy="26.728" rx="12.399" ry="12.491"/>
                <ellipse cx="24.932" cy="26.728" rx="12.399" ry="12.491"/>
                <ellipse cx="24.665" cy="26.996" rx="12.399" ry="12.491"/>
                <ellipse cx="24.665" cy="26.996" rx="12.399" ry="12.491"/>
                <ellipse cx="24.398" cy="26.996" rx="12.399" ry="12.491"/>
                <ellipse cx="24.398" cy="26.996" rx="12.399" ry="12.491"/>
                <ellipse cx="24.132" cy="27.265" rx="12.399" ry="12.491"/>
                <ellipse cx="24.132" cy="27.265" rx="12.399" ry="12.491"/>
                <ellipse cx="23.865" cy="27.265" rx="12.399" ry="12.491"/>
                <ellipse cx="23.598" cy="27.533" rx="12.399" ry="12.491"/>
                <ellipse cx="23.598" cy="27.533" rx="12.399" ry="12.491"/>
                <ellipse cx="23.332" cy="27.533" rx="12.399" ry="12.491"/>
                <ellipse cx="23.332" cy="27.802" rx="12.399" ry="12.491"/>
                <ellipse cx="23.065" cy="27.802" rx="12.399" ry="12.491"/>
                <ellipse cx="22.798" cy="27.802" rx="12.399" ry="12.491"/>
                <ellipse cx="22.798" cy="28.071" rx="12.399" ry="12.491"/>
                <ellipse cx="22.532" cy="28.071" rx="12.399" ry="12.491"/>
                <ellipse cx="22.532" cy="28.071" rx="12.399" ry="12.491"/>
                <ellipse cx="22.265" cy="28.339" rx="12.399" ry="12.491"/>
                <ellipse cx="22.265" cy="28.339" rx="12.399" ry="12.491"/>
                <ellipse cx="21.999" cy="28.339" rx="12.399" ry="12.491"/>
                <ellipse cx="21.732" cy="28.608" rx="12.399" ry="12.491"/>
                <ellipse cx="21.732" cy="28.608" rx="12.399" ry="12.491"/>
                <ellipse cx="21.465" cy="28.608" rx="12.399" ry="12.491"/>
                <ellipse cx="21.465" cy="28.608" rx="12.399" ry="12.491"/>
                <ellipse cx="21.199" cy="28.876" rx="12.399" ry="12.491"/>
                <ellipse cx="20.932" cy="28.876" rx="12.399" ry="12.491"/>
                <ellipse cx="20.932" cy="28.876" rx="12.399" ry="12.491"/>
                <ellipse cx="20.665" cy="29.145" rx="12.399" ry="12.491"/>
                <ellipse cx="20.665" cy="29.145" rx="12.399" ry="12.491"/>
                <ellipse cx="20.399" cy="29.145" rx="12.399" ry="12.491"/>
                <ellipse cx="20.399" cy="29.414" rx="12.399" ry="12.491"/>
                <ellipse cx="20.132" cy="29.414" rx="12.399" ry="12.491"/>
                <ellipse cx="19.865" cy="29.414" rx="12.399" ry="12.491"/>
                <ellipse cx="19.865" cy="29.682" rx="12.399" ry="12.491"/>
                <ellipse cx="19.599" cy="29.682" rx="12.399" ry="12.491"/>
                <ellipse cx="19.599" cy="29.682" rx="12.399" ry="12.491"/>
                <ellipse cx="19.332" cy="29.951" rx="12.399" ry="12.491"/>
                <ellipse cx="19.065" cy="29.951" rx="12.399" ry="12.491"/>
                <ellipse cx="19.065" cy="29.951" rx="12.399" ry="12.491"/>
                <ellipse cx="18.799" cy="30.22" rx="12.399" ry="12.491"/>
                <ellipse cx="18.799" cy="30.22" rx="12.399" ry="12.491"/>
                <ellipse cx="18.532" cy="30.22" rx="12.399" ry="12.491"/>
                <ellipse cx="18.532" cy="30.22" rx="12.399" ry="12.491"/>
                <ellipse cx="18.265" cy="30.488" rx="12.399" ry="12.491"/>
                <ellipse cx="17.999" cy="30.488" rx="12.399" ry="12.491"/>
                <ellipse cx="17.999" cy="30.488" rx="12.399" ry="12.491"/>
                <ellipse cx="17.732" cy="30.757" rx="12.399" ry="12.491"/>
                <ellipse cx="17.732" cy="30.757" rx="12.399" ry="12.491"/>
                <ellipse cx="17.465" cy="30.757" rx="12.399" ry="12.491"/>
                <ellipse cx="17.199" cy="31.025" rx="12.399" ry="12.491"/>
                <ellipse cx="17.199" cy="31.025" rx="12.399" ry="12.491"/>
                <ellipse cx="16.932" cy="31.025" rx="12.399" ry="12.491"/>
                <ellipse cx="16.932" cy="31.294" rx="12.399" ry="12.491"/>
                <ellipse cx="16.666" cy="31.294" rx="12.399" ry="12.491"/>
                <ellipse cx="16.666" cy="31.294" rx="12.399" ry="12.491"/>
                <ellipse cx="16.399" cy="31.563" rx="12.399" ry="12.491"/>
                <ellipse cx="16.132" cy="31.563" rx="12.399" ry="12.491"/>
                <ellipse cx="16.132" cy="31.563" rx="12.399" ry="12.491"/>
                <ellipse cx="15.866" cy="31.831" rx="12.399" ry="12.491"/>
                <ellipse cx="15.866" cy="31.831" rx="12.399" ry="12.491"/>
                <ellipse cx="15.599" cy="31.831" rx="12.399" ry="12.491"/>
                <ellipse cx="15.332" cy="32.1" rx="12.399" ry="12.491"/>
                <ellipse cx="15.332" cy="32.1" rx="12.399" ry="12.491"/>
                <ellipse cx="15.066" cy="32.1" rx="12.399" ry="12.491"/>
                <ellipse cx="15.066" cy="32.1" rx="12.399" ry="12.491"/>
                <ellipse cx="14.799" cy="32.368" rx="12.399" ry="12.491"/>
                <ellipse cx="14.799" cy="32.368" rx="12.399" ry="12.491"/>
                <ellipse cx="14.532" cy="32.368" rx="12.399" ry="12.491"/>
                <ellipse cx="14.266" cy="32.637" rx="12.399" ry="12.491"/>
                <ellipse cx="14.266" cy="32.637" rx="12.399" ry="12.491"/>
                <ellipse cx="13.999" cy="32.637" rx="12.399" ry="12.491"/>
                <ellipse cx="13.999" cy="32.906" rx="12.399" ry="12.491"/>
                <ellipse cx="13.732" cy="32.906" rx="12.399" ry="12.491"/>
            </g>
            <path d="M32.847 38.04v-3.774l-3.595-.59a9.06 9.06 0 0 0-.77-1.867l2.093-2.993-2.661-2.668-2.947 2.125a8.922 8.922 0 0 0-1.875-.782l-.627-3.588h-3.763l-.582 3.576a8.8 8.8 0 0 0-1.877.773l-2.941-2.105-2.66 2.667 2.067 2.965a9.063 9.063 0 0 0-.786 1.894l-3.55.593v3.773l3.545.63c.189.661.45 1.296.786 1.896l-2.096 2.938 2.66 2.67 2.96-2.078c.596.33 1.227.59 1.88.779l.596 3.578h3.76l.635-3.588a8.953 8.953 0 0 0 1.874-.786l2.98 2.096 2.66-2.671-2.127-2.963a8.931 8.931 0 0 0 .768-1.868l3.593-.633zM20.61 39.613a3.436 3.436 0 0 1-3.427-3.437 3.436 3.436 0 0 1 3.427-3.436 3.436 3.436 0 0 1 3.426 3.436 3.436 3.436 0 0 1-3.426 3.437z" fill="url(#e)" fill-rule="nonzero" transform="translate(14.17 22.61)"/>
        </g>
    </g>
</svg>
