<svg width="408" height="352" viewBox="0 0 408 352" xmlns="http://www.w3.org/2000/svg" xmlns:xlink="http://www.w3.org/1999/xlink">
    <defs>
        <linearGradient x1="50%" y1="0%" x2="50%" y2="100%" id="a">
            <stop stop-color="#535356" offset="0%"/>
            <stop stop-color="#29292B" offset="100%"/>
        </linearGradient>
        <linearGradient x1="100%" y1="120.316%" x2="50%" y2="100%" id="b">
            <stop stop-color="#535356" offset="0%"/>
            <stop stop-color="#29292B" offset="100%"/>
        </linearGradient>
        <linearGradient x1="0%" y1="0%" x2="297.222%" y2="180.492%" id="c">
            <stop stop-color="#3023AE" offset="0%"/>
            <stop stop-color="#C86DD7" offset="100%"/>
        </linearGradient>
        <linearGradient x1="388.078%" y1="475.956%" x2="102%" y2="101%" id="d">
            <stop stop-color="#3023AE" offset="0%"/>
            <stop stop-color="#C86DD7" offset="100%"/>
        </linearGradient>
        <linearGradient x1="-87.64%" y1="399.597%" x2="102%" y2="101%" id="e">
            <stop stop-color="#3023AE" offset="0%"/>
            <stop stop-color="#C86DD7" offset="100%"/>
        </linearGradient>
        <linearGradient x1="0%" y1="50%" x2="1416.011%" y2="630.476%" id="f">
            <stop stop-color="#3023AE" offset="0%"/>
            <stop stop-color="#C86DD7" offset="100%"/>
        </linearGradient>
        <linearGradient x1="115.775%" y1="-166.475%" x2="30.448%" y2="100%" id="g">
            <stop stop-color="#505053" offset="0%"/>
            <stop stop-color="#747476" offset="46.339%"/>
            <stop stop-color="#515154" offset="100%"/>
        </linearGradient>
        <path d="M47.205 0H65.39l15.718 6.67L94.41 23.03 47.205 86.057 0 23.03 13.303 6.67 29.02 0h18.185z" id="h"/>
    </defs>
    <g transform="translate(-5)" fill="none" fill-rule="evenodd">
        <path class="fade" d="M59.081 244.337l134.118-124.793-17.014 15.83c-7.45 6.932-7.857 18.577-.91 26.01 6.946 7.433 18.617 7.84 26.066.909l17.014-15.831L84.237 271.255l10.423-9.698c7.45-6.932 7.857-18.577.91-26.01-6.946-7.433-18.617-7.84-26.066-.908l-10.423 9.698zm-30.1-104.757l64.536-60.05c7.45-6.932 19.12-6.525 26.067.908 6.947 7.433 6.54 19.078-.91 26.01l-64.537 60.05c-7.45 6.931-19.12 6.525-26.067-.909-6.947-7.433-6.54-19.078.91-26.01zm131.013 161.835l18.78-17.474c7.45-6.932 19.12-6.525 26.066.908 6.947 7.433 6.54 19.078-.91 26.01l-18.78 17.474c-7.45 6.932-19.12 6.525-26.066-.908-6.947-7.433-6.54-19.078.91-26.01zm58.552-54.48l51.281-47.717c7.45-6.932 19.12-6.525 26.067.908 6.947 7.433 6.54 19.078-.91 26.01l-51.282 47.716c-7.45 6.931-19.12 6.525-26.067-.908-6.946-7.433-6.539-19.078.91-26.01zm-189.756-18.4l147.099-137.04c7.45-6.931 19.12-6.524 26.066.909 6.947 7.433 6.54 19.078-.91 26.01l-147.1 137.038c-7.449 6.932-19.119 6.525-26.066-.908-6.946-7.433-6.539-19.078.91-26.01zm67.13 31.85L235.368 130.63c7.449-6.932 19.12-6.525 26.066.908 6.947 7.433 6.54 19.078-.91 26.01l-139.45 129.753c-7.449 6.932-19.12 6.525-26.066-.908-6.947-7.433-6.54-19.078.91-26.01z" fill="url(#a)" transform="rotate(-105 161.887 203.931)"/>
        <ellipse class="move-1" fill="url(#a)" cx="329.143" cy="166.084" rx="16.928" ry="16.942"/>
        <ellipse class="move-1" fill="url(#a)" cx="259.4" cy="82.87" rx="16.928" ry="16.942"/>
        <ellipse class="move-1" fill="url(#a)" cx="22.403" cy="136.519" rx="16.928" ry="16.942"/>
        <ellipse class="move-1" fill="url(#a)" cx="56.559" cy="34.393" rx="34.366" ry="34.393"/>
        <ellipse class="move-1" fill="url(#a)" cx="393.251" cy="310.97" rx="18.955" ry="18.97"/>
        <ellipse class="move-1" fill="url(#a)" cx="22.403" cy="236.758" rx="16.928" ry="16.942"/>
        <g class="fade" transform="translate(73.188 105.459)" fill-rule="nonzero">
            <path d="M139.496 170.603h-72.4c15.514 0 15.514-25.907 15.514-25.907h41.372s0 25.907 15.514 25.907z" fill="url(#a)"/>
            <path d="M195.664 0H10.298C4.634 0 0 4.644 0 10.32v113.525h205.962V10.32c0-5.676-4.634-10.32-10.298-10.32z" fill="#515151"/>
            <path fill="url(#b)" d="M10.078 10.11h185.807v102.993H10.078z"/>
            <path fill="url(#c)" transform="rotate(-45 111.46 -57.04)" d="M17.125-2.019h15.614v54.512H17.125z"/>
            <g transform="translate(95.107 41.124)" fill="url(#d)">
                <path d="M3.363 11.445l-1.76-1.763 5.6-5.612 1.76 1.763z"/>
                <path d="M24.697 21.6l1.761 1.765-3.111 3.118-1.76-1.765z"/>
                <path d="M3.51.367l1.76 1.76-3.117 3.118-1.76-1.76z"/>
                <path d="M32.2 29.12l1.76 1.763L30.85 34l-1.76-1.763z"/>
                <path d="M10.972 7.847l1.76 1.763-3.111 3.118-1.76-1.763z"/>
                <path d="M22.83 30.956l5.6-5.611 1.76 1.763-5.6 5.612z"/>
            </g>
            <path d="M48.317 6.777l-4.714-4.723a1.838 1.838 0 0 0-2.602 0L38.782 4.28l7.315 7.33 2.22-2.224a1.85 1.85 0 0 0 0-2.609" fill="url(#e)" transform="translate(83.523 37.086)"/>
            <path fill="url(#e)" transform="rotate(-45 109.697 -55.022)" d="M.504 22.209h45.33v10.095H.504z"/>
            <path fill="url(#f)" transform="rotate(134.98 74.874 45.44)" d="M38.279 4.543h5.037v10.095h-5.037z"/>
            <path fill="url(#f)" d="M3.415 39.875l-2.408 9.59 9.57-2.414z" transform="translate(83.523 37.086)"/>
            <path d="M0 123.845h205.962v10.34c0 5.686-4.634 10.339-10.298 10.339H10.298C4.634 144.524 0 139.871 0 134.184v-10.34zm144.173 46.528H61.79v10.34h82.384v-10.34z" fill="url(#g)"/>
            <ellipse fill="#959595" cx="102.666" cy="133.955" rx="5.039" ry="5.055"/>
        </g>
        <g class="fade" transform="translate(227.983 196.434)">
            <mask id="i" fill="#fff">
                <use xlink:href="#h"/>
            </mask>
            <use fill="url(#g)" xlink:href="#h"/>
            <path stroke="#29292B" stroke-width="2.5" mask="url(#i)" d="M12.588 6.22l14.692 8.123h39.848l15.267-8.606"/>
            <path stroke="#29292B" stroke-width="2.5" mask="url(#i)" d="M66.946 14.343L81.136 32.7 97.272 21.1"/>
            <path stroke="#29292B" stroke-width="2.5" mask="url(#i)" transform="matrix(-1 0 0 1 24.604 0)" d="M-2.86 14.343L11.33 32.7 27.465 21.1"/>
            <path d="M81.25 32.701L46.347 87.778" stroke="#29292B" stroke-width="2.5" mask="url(#i)"/>
            <path d="M48.063 32.701L13.16 87.778" stroke="#29292B" stroke-width="2.5" mask="url(#i)" transform="matrix(-1 0 0 1 61.224 0)"/>
            <path d="M13.732 32.701h66.946" stroke="#29292B" stroke-width="2.5" mask="url(#i)"/>
        </g>
    </g>
</svg>
