<svg width="452" viewBox="0 0 452 361" xmlns="http://www.w3.org/2000/svg" xmlns:xlink="http://www.w3.org/1999/xlink">
    <title>
        heroDesign
    </title>
    <defs>
        <linearGradient x1="0%" y1="0%" x2="102%" y2="101%" id="a">
            <stop stop-color="#3023AE" offset="0%"/>
            <stop stop-color="#C86DD7" offset="100%"/>
        </linearGradient>
        <linearGradient x1="49.38%" y1="3.173%" x2="30.448%" y2="100%" id="b">
            <stop stop-color="#F9F9F9" offset="0%"/>
            <stop stop-color="#E2E2E2" offset="100%"/>
        </linearGradient>
        <linearGradient x1="50%" y1="0%" x2="50%" y2="100%" id="c">
            <stop stop-color="#FAFBFF" offset="0%"/>
            <stop stop-color="#F4F6FF" offset="100%"/>
        </linearGradient>
        <linearGradient x1="118.677%" y1="-175.536%" x2="30.448%" y2="100%" id="d">
            <stop stop-color="#F9F9F9" offset="0%"/>
            <stop stop-color="#EEE" offset="47.193%"/>
            <stop stop-color="#E2E2E2" offset="100%"/>
        </linearGradient>
        <linearGradient x1="-11.195%" y1="189.912%" x2="108.336%" y2="-73.391%" id="f">
            <stop stop-color="#3CAAC4" offset="0%"/>
            <stop stop-color="#7CD2E6" offset="55.79%"/>
            <stop stop-color="#B4EC51" offset="100%"/>
        </linearGradient>
        <path d="M38.51 0h14.837l12.822 5.449 10.853 13.363L38.51 70.297 0 18.812 10.852 5.45 23.675 0h14.836z" id="e"/>
    </defs>
    <g transform="translate(3)" fill="none" fill-rule="evenodd">
        <path class="fade" d="M257.479 280.326L97.107 180.091l20.344 12.716c8.908 5.567 20.64 2.859 26.206-6.05 5.566-8.909 2.856-20.644-6.052-26.212l-20.344-12.715 160.372 100.235-12.463-7.79c-8.907-5.567-20.64-2.859-26.206 6.05-5.565 8.909-2.856 20.644 6.052 26.212l12.463 7.79zm-90.889 77.769l-77.17-48.233c-8.908-5.568-11.618-17.303-6.052-26.212 5.565-8.908 17.298-11.617 26.206-6.05l77.17 48.233c8.909 5.568 11.618 17.303 6.053 26.212-5.566 8.909-17.299 11.617-26.207 6.05zm120.928-193.57L265.06 150.49c-8.908-5.567-11.617-17.303-6.052-26.211 5.566-8.91 17.299-11.618 26.207-6.05l22.456 14.035c8.908 5.568 11.617 17.303 6.052 26.212-5.566 8.909-17.299 11.617-26.206 6.05zm-70.014-43.759L156.183 82.44c-8.908-5.568-11.617-17.303-6.052-26.212 5.566-8.908 17.299-11.617 26.206-6.05l61.321 38.327c8.908 5.567 11.617 17.302 6.052 26.211-5.566 8.909-17.299 11.618-26.206 6.05zm32.284 199.612L73.726 210.485c-8.908-5.567-11.617-17.303-6.052-26.211 5.566-8.91 17.299-11.618 26.206-6.05l176.062 109.892c8.908 5.568 11.617 17.303 6.052 26.212-5.566 8.908-17.299 11.617-26.206 6.05zm13.876-81.044L96.917 135.114c-8.908-5.567-11.617-17.302-6.052-26.211 5.566-8.909 17.298-11.618 26.206-6.05l166.748 104.22c8.907 5.567 11.617 17.303 6.051 26.211-5.565 8.91-17.298 11.618-26.206 6.05z" fill="#F4F4F4"/>
        <circle class="move-1" fill="#F4F4F4" cx="395.5" cy="198.5" r="53.5"/>
        <circle class="move-1" fill="#F4F4F4" cx="62" cy="32" r="32"/>
        <circle class="move-1" fill="#F4F4F4" cx="275.5" cy="63.5" r="16.5"/>
        <circle class="move-1" fill="#F4F4F4" cx="29.5" cy="120.5" r="16.5"/>
        <circle class="move-1" fill="#F4F4F4" cx="29.5" cy="223.5" r="16.5"/>
        <circle class="move-1" stroke="url(#a)" stroke-width="2" cx="288.5" cy="77.5" r="14.5"/>
        <path class="move-1" stroke="url(#a)" stroke-width="2" d="M18 237.021L6.875 243 9 230.337l-9-8.968 12.438-1.848L18 208l5.562 11.521L36 221.37l-9 8.968L29.125 243z"/>
        <g class="anim-base" transform="translate(67 101)" fill-rule="nonzero">
            <path d="M144.253 176.167h-74.87c16.044 0 16.044-26.751 16.044-26.751h42.782s0 26.751 16.044 26.751z" fill="url(#b)"/>
            <path d="M202.336 0H10.649C4.792 0 0 4.796 0 10.657v117.227h212.985V10.657c0-5.861-4.792-10.657-10.65-10.657z" fill="#515151"/>
            <path fill="url(#c)" d="M10.421 10.44h192.142v106.353H10.421z"/>
            <path fill="#D8D5D5" d="M74.44 46.82l14.277-14.278 49.828 49.828-14.278 14.277z"/>
            <g fill="#F9FAFF">
                <path d="M93.58 51.986l-2.275-2.28 7.242-7.254 2.275 2.28z"/>
                <path d="M121.17 65.113l2.277 2.281-4.023 4.03-2.277-2.28z"/>
                <path d="M93.77 37.665l2.276 2.275-4.03 4.03-2.276-2.275z"/>
                <path d="M130.873 74.832l2.276 2.28-4.023 4.03-2.276-2.28z"/>
                <path d="M103.422 47.334l2.275 2.28-4.023 4.03-2.276-2.28z"/>
                <path d="M118.755 77.207l7.243-7.254 2.275 2.28-7.243 7.254z"/>
            </g>
            <path d="M136.734 40.732l-6.096-6.106a2.378 2.378 0 0 0-3.365 0l-2.869 2.877 9.46 9.475 2.87-2.874a2.39 2.39 0 0 0 0-3.372" fill="#EBEBEB"/>
            <path fill="#EBEBEB" d="M78.874 83.316l41.45-41.45 9.228 9.227L88.1 92.543z"/>
            <path fill="#D8D5D5" d="M133.927 46.677l-4.604 4.607-9.23-9.224 4.604-4.607z"/>
            <path fill="#D8D5D5" d="M78.668 83.516l-3.114 12.397 12.376-3.12z"/>
            <path d="M0 127.884h212.985v10.677c0 5.872-4.792 10.677-10.65 10.677H10.65C4.792 149.238 0 144.433 0 138.56v-10.677zm149.09 48.046H63.894v10.677h85.194V175.93z" fill="url(#d)"/>
            <ellipse fill="#515151" cx="106.167" cy="138.324" rx="5.211" ry="5.22"/>
        </g>
        <g class="anim-base" transform="translate(236 205)">
            <mask id="g" fill="#fff">
                <use xlink:href="#e"/>
            </mask>
            <use fill="url(#f)" xlink:href="#e"/>
            <path stroke="#FFF" stroke-width="3" mask="url(#g)" d="M10.27 5.08l11.986 6.636h32.509l12.454-7.03"/>
            <path stroke="#FFF" stroke-width="3" mask="url(#g)" d="M54.616 11.716l11.577 14.997 13.163-9.478"/>
            <path stroke="#FFF" stroke-width="3" mask="url(#g)" transform="matrix(-1 0 0 1 20.072 0)" d="M-2.334 11.716L9.243 26.713l13.163-9.478"/>
            <path d="M66.285 26.713l-28.474 44.99" stroke="#FFF" stroke-width="3" mask="url(#g)"/>
            <path d="M39.211 26.713l-28.475 44.99" stroke="#FFF" stroke-width="3" mask="url(#g)" transform="matrix(-1 0 0 1 49.948 0)"/>
            <path d="M11.203 26.713H65.82" stroke="#FFF" stroke-width="3" mask="url(#g)"/>
        </g>
    </g>
</svg>
