<svg width="481" viewBox="0 0 481 398" xmlns="http://www.w3.org/2000/svg">
    <title>
        heroOperation
    </title>
    <defs>
        <linearGradient x1="50%" y1="0%" x2="50%" y2="100%" id="a">
            <stop stop-color="#535356" offset="0%"/>
            <stop stop-color="#29292B" offset="100%"/>
        </linearGradient>
        <linearGradient x1="100%" y1="120.316%" x2="50%" y2="100%" id="b">
            <stop stop-color="#535356" offset="0%"/>
            <stop stop-color="#29292B" offset="100%"/>
        </linearGradient>
        <linearGradient x1="115.775%" y1="-166.475%" x2="30.448%" y2="100%" id="c">
            <stop stop-color="#505053" offset="0%"/>
            <stop stop-color="#747476" offset="46.339%"/>
            <stop stop-color="#515154" offset="100%"/>
        </linearGradient>
        <linearGradient x1="0%" y1="0%" x2="102%" y2="101%" id="d">
            <stop stop-color="#3023AE" offset="0%"/>
            <stop stop-color="#C86DD7" offset="100%"/>
        </linearGradient>
    </defs>
    <g fill="none" fill-rule="evenodd">
        <path class="fade" d="M85.994 271.476L230.39 137.194l-18.318 17.035c-8.02 7.458-8.459 19.989-.98 27.987 7.48 7.998 20.045 8.436 28.065.977l18.318-17.034L113.078 300.44l11.222-10.436c8.02-7.458 8.46-19.989.98-27.987-7.48-7.998-20.044-8.436-28.064-.977l-11.222 10.435zm-53.86-112.369l69.485-64.616c8.02-7.459 20.585-7.021 28.064.977 7.48 7.998 7.04 20.529-.98 27.987l-69.484 64.617c-8.02 7.458-20.585 7.02-28.064-.978-7.48-7.998-7.04-20.528.98-27.987zm162.507 173.788l20.22-18.804c8.02-7.458 20.585-7.02 28.065.978 7.479 7.998 7.04 20.528-.98 27.987l-20.22 18.803c-8.02 7.459-20.585 7.021-28.065-.977-7.479-7.998-7.04-20.529.98-27.987zm63.04-58.624l55.213-51.345c8.02-7.458 20.585-7.02 28.064.977 7.48 7.999 7.04 20.53-.98 27.988l-55.212 51.345c-8.02 7.458-20.586 7.02-28.065-.978-7.479-7.998-7.04-20.528.98-27.987zM47.688 252.947l158.374-147.459c8.02-7.458 20.585-7.02 28.064.977 7.48 7.999 7.04 20.53-.98 27.988L74.772 281.912c-8.02 7.458-20.585 7.02-28.065-.977-7.479-7.999-7.04-20.53.98-27.988zm77.968 35.797l150.138-139.62c8.02-7.459 20.585-7.021 28.064.977 7.48 7.999 7.04 20.529-.98 27.987L152.74 317.708c-8.02 7.46-20.585 7.022-28.064-.977-7.48-7.998-7.04-20.528.98-27.987z" fill="url(#a)" transform="rotate(-105 186.056 228.175)"/>
        <ellipse class="move-1" fill="url(#a)" cx="316.661" cy="231.088" rx="18.226" ry="18.23"/>
        <ellipse class="move-1" fill="url(#a)" cx="273.389" cy="89.171" rx="18.226" ry="18.23"/>
        <ellipse class="move-1" fill="url(#a)" cx="18.226" cy="146.899" rx="18.226" ry="18.23"/>
        <ellipse class="move-1" fill="url(#a)" cx="55" cy="37.008" rx="37" ry="37.008"/>
        <ellipse class="move-1" fill="url(#a)" cx="417.5" cy="291.514" rx="63.5" ry="63.514"/>
        <ellipse class="move-1" fill="url(#a)" cx="18.226" cy="254.761" rx="18.226" ry="18.23"/>
        <g class="anim-base" transform="translate(72.904 113.478)" fill-rule="nonzero">
            <path d="M150.188 183.575h-77.95c16.704 0 16.704-27.876 16.704-27.876h44.543s0 27.876 16.703 27.876z" fill="url(#a)"/>
            <path d="M210.662 0H11.087C4.99 0 0 4.997 0 11.105v122.157h221.749V11.105c0-6.108-4.99-11.105-11.087-11.105z" fill="#515151"/>
            <path fill="url(#b)" d="M10.85 10.879h200.049v110.825H10.85z"/>
            <path d="M0 133.262h221.749v11.126c0 6.119-4.99 11.126-11.087 11.126H11.087C4.99 155.514 0 150.507 0 144.388v-11.126zm155.224 50.066h-88.7v11.126h88.7v-11.126z" fill="url(#c)"/>
            <ellipse fill="#959595" cx="110.535" cy="144.141" rx="5.425" ry="5.439"/>
        </g>
        <g class="anim-base">
            <g fill="url(#d)" transform="translate(164.033 148.419)">
                <ellipse cx="16.726" cy="16.423" rx="16.726" ry="16.423"/>
                <ellipse cx="16.726" cy="16.423" rx="16.726" ry="16.423"/>
                <ellipse cx="17.094" cy="16.784" rx="16.726" ry="16.423"/>
                <ellipse cx="16.91" cy="16.604" rx="16.543" ry="16.243"/>
                <ellipse cx="16.91" cy="16.965" rx="16.543" ry="16.243"/>
                <ellipse cx="16.91" cy="16.965" rx="16.543" ry="16.243"/>
                <ellipse cx="17.278" cy="16.965" rx="16.543" ry="16.243"/>
                <ellipse cx="17.094" cy="17.145" rx="16.359" ry="16.063"/>
                <ellipse cx="17.094" cy="17.145" rx="16.359" ry="16.063"/>
                <ellipse cx="17.462" cy="17.506" rx="16.359" ry="16.063"/>
                <ellipse cx="17.462" cy="17.506" rx="16.359" ry="16.063"/>
                <ellipse cx="17.462" cy="17.867" rx="16.359" ry="16.063"/>
                <ellipse cx="17.645" cy="17.687" rx="16.175" ry="15.882"/>
                <ellipse cx="17.645" cy="17.687" rx="16.175" ry="15.882"/>
                <ellipse cx="17.645" cy="18.048" rx="16.175" ry="15.882"/>
                <ellipse cx="17.645" cy="18.048" rx="16.175" ry="15.882"/>
                <ellipse cx="17.829" cy="18.228" rx="15.991" ry="15.702"/>
                <ellipse cx="17.829" cy="18.228" rx="15.991" ry="15.702"/>
                <ellipse cx="17.829" cy="18.228" rx="15.991" ry="15.702"/>
                <ellipse cx="18.197" cy="18.589" rx="15.991" ry="15.702"/>
                <ellipse cx="18.013" cy="18.409" rx="15.807" ry="15.521"/>
                <ellipse cx="18.013" cy="18.77" rx="15.807" ry="15.521"/>
                <ellipse cx="18.381" cy="18.77" rx="15.807" ry="15.521"/>
                <ellipse cx="18.381" cy="18.77" rx="15.807" ry="15.521"/>
                <ellipse cx="18.381" cy="19.131" rx="15.807" ry="15.521"/>
                <ellipse cx="18.197" cy="18.95" rx="15.624" ry="15.341"/>
                <ellipse cx="18.565" cy="19.311" rx="15.624" ry="15.341"/>
                <ellipse cx="18.565" cy="19.311" rx="15.624" ry="15.341"/>
                <ellipse cx="18.565" cy="19.311" rx="15.624" ry="15.341"/>
                <ellipse cx="18.748" cy="19.492" rx="15.44" ry="15.16"/>
                <ellipse cx="18.748" cy="19.492" rx="15.44" ry="15.16"/>
                <ellipse cx="18.748" cy="19.853" rx="15.44" ry="15.16"/>
                <ellipse cx="19.116" cy="19.853" rx="15.44" ry="15.16"/>
                <ellipse cx="19.116" cy="20.213" rx="15.44" ry="15.16"/>
                <ellipse cx="18.932" cy="20.033" rx="15.256" ry="14.98"/>
                <ellipse cx="18.932" cy="20.033" rx="15.256" ry="14.98"/>
                <ellipse cx="19.3" cy="20.394" rx="15.256" ry="14.98"/>
                <ellipse cx="19.3" cy="20.394" rx="15.256" ry="14.98"/>
                <ellipse cx="19.116" cy="20.574" rx="15.072" ry="14.799"/>
                <ellipse cx="19.484" cy="20.574" rx="15.072" ry="14.799"/>
                <ellipse cx="19.484" cy="20.574" rx="15.072" ry="14.799"/>
                <ellipse cx="19.484" cy="20.935" rx="15.072" ry="14.799"/>
                <ellipse cx="19.484" cy="20.935" rx="15.072" ry="14.799"/>
                <ellipse cx="19.667" cy="21.116" rx="14.888" ry="14.619"/>
                <ellipse cx="19.667" cy="21.116" rx="14.888" ry="14.619"/>
                <ellipse cx="19.667" cy="21.116" rx="14.888" ry="14.619"/>
                <ellipse cx="20.035" cy="21.477" rx="14.888" ry="14.619"/>
                <ellipse cx="19.851" cy="21.296" rx="14.705" ry="14.438"/>
                <ellipse cx="19.851" cy="21.657" rx="14.705" ry="14.438"/>
                <ellipse cx="20.219" cy="21.657" rx="14.705" ry="14.438"/>
                <ellipse cx="20.219" cy="21.657" rx="14.705" ry="14.438"/>
                <ellipse cx="20.219" cy="22.018" rx="14.705" ry="14.438"/>
                <ellipse cx="20.035" cy="21.838" rx="14.521" ry="14.258"/>
                <ellipse cx="20.403" cy="22.199" rx="14.521" ry="14.258"/>
                <ellipse cx="20.403" cy="22.199" rx="14.521" ry="14.258"/>
                <ellipse cx="20.403" cy="22.56" rx="14.521" ry="14.258"/>
                <ellipse cx="20.586" cy="22.379" rx="14.337" ry="14.077"/>
                <ellipse cx="20.586" cy="22.379" rx="14.337" ry="14.077"/>
                <ellipse cx="20.586" cy="22.74" rx="14.337" ry="14.077"/>
                <ellipse cx="20.954" cy="22.74" rx="14.337" ry="14.077"/>
                <ellipse cx="20.77" cy="22.921" rx="14.153" ry="13.897"/>
                <ellipse cx="20.77" cy="22.921" rx="14.153" ry="13.897"/>
                <ellipse cx="20.77" cy="22.921" rx="14.153" ry="13.897"/>
                <ellipse cx="21.138" cy="23.282" rx="14.153" ry="13.897"/>
                <ellipse cx="21.138" cy="23.282" rx="14.153" ry="13.897"/>
                <ellipse cx="20.954" cy="23.462" rx="13.969" ry="13.716"/>
                <ellipse cx="21.322" cy="23.462" rx="13.969" ry="13.716"/>
                <ellipse cx="21.322" cy="23.462" rx="13.969" ry="13.716"/>
                <ellipse cx="21.322" cy="23.823" rx="13.969" ry="13.716"/>
                <ellipse cx="21.138" cy="23.643" rx="13.786" ry="13.536"/>
                <ellipse cx="21.505" cy="24.004" rx="13.786" ry="13.536"/>
                <ellipse cx="21.505" cy="24.004" rx="13.786" ry="13.536"/>
                <ellipse cx="21.505" cy="24.004" rx="13.786" ry="13.536"/>
                <ellipse cx="21.873" cy="24.364" rx="13.786" ry="13.536"/>
                <ellipse cx="21.689" cy="24.184" rx="13.602" ry="13.355"/>
                <ellipse cx="21.689" cy="24.545" rx="13.602" ry="13.355"/>
                <ellipse cx="22.057" cy="24.545" rx="13.602" ry="13.355"/>
                <ellipse cx="22.057" cy="24.906" rx="13.602" ry="13.355"/>
                <ellipse cx="21.873" cy="24.725" rx="13.418" ry="13.175"/>
                <ellipse cx="21.873" cy="24.725" rx="13.418" ry="13.175"/>
                <ellipse cx="22.241" cy="25.086" rx="13.418" ry="13.175"/>
                <ellipse cx="22.241" cy="25.086" rx="13.418" ry="13.175"/>
                <ellipse cx="22.241" cy="25.447" rx="13.418" ry="13.175"/>
                <ellipse cx="22.424" cy="25.267" rx="13.234" ry="12.994"/>
                <ellipse cx="22.424" cy="25.267" rx="13.234" ry="12.994"/>
                <ellipse cx="22.424" cy="25.628" rx="13.234" ry="12.994"/>
                <ellipse cx="22.792" cy="25.628" rx="13.234" ry="12.994"/>
                <ellipse cx="22.608" cy="25.808" rx="13.05" ry="12.814"/>
                <ellipse cx="22.608" cy="25.808" rx="13.05" ry="12.814"/>
                <ellipse cx="22.608" cy="25.808" rx="13.05" ry="12.814"/>
                <ellipse cx="22.976" cy="26.169" rx="13.05" ry="12.814"/>
                <ellipse cx="22.976" cy="26.169" rx="13.05" ry="12.814"/>
                <ellipse cx="22.792" cy="26.35" rx="12.867" ry="12.633"/>
                <ellipse cx="23.16" cy="26.35" rx="12.867" ry="12.633"/>
                <ellipse cx="23.16" cy="26.711" rx="12.867" ry="12.633"/>
                <ellipse cx="23.16" cy="26.711" rx="12.867" ry="12.633"/>
                <ellipse cx="23.344" cy="26.53" rx="12.683" ry="12.453"/>
                <ellipse cx="23.344" cy="26.891" rx="12.683" ry="12.453"/>
                <ellipse cx="23.344" cy="26.891" rx="12.683" ry="12.453"/>
                <ellipse cx="23.344" cy="27.252" rx="12.683" ry="12.453"/>
                <ellipse cx="23.527" cy="27.072" rx="12.499" ry="12.272"/>
                <ellipse cx="23.527" cy="27.072" rx="12.499" ry="12.272"/>
                <ellipse cx="23.711" cy="27.252" rx="12.683" ry="12.453"/>
                <ellipse cx="24.079" cy="27.252" rx="12.683" ry="12.453"/>
                <ellipse cx="24.079" cy="27.252" rx="12.683" ry="12.453"/>
                <ellipse cx="24.079" cy="27.252" rx="12.683" ry="12.453"/>
                <ellipse cx="24.63" cy="27.433" rx="12.867" ry="12.633"/>
                <ellipse cx="24.63" cy="27.794" rx="12.867" ry="12.633"/>
                <ellipse cx="24.63" cy="27.794" rx="12.867" ry="12.633"/>
                <ellipse cx="24.998" cy="27.794" rx="12.867" ry="12.633"/>
                <ellipse cx="24.998" cy="27.794" rx="12.867" ry="12.633"/>
                <ellipse cx="25.182" cy="27.974" rx="13.05" ry="12.814"/>
                <ellipse cx="25.549" cy="27.974" rx="13.05" ry="12.814"/>
                <ellipse cx="25.549" cy="27.974" rx="13.05" ry="12.814"/>
                <ellipse cx="25.549" cy="27.974" rx="13.05" ry="12.814"/>
                <ellipse cx="26.101" cy="28.155" rx="13.234" ry="12.994"/>
                <ellipse cx="26.101" cy="28.155" rx="13.234" ry="12.994"/>
                <ellipse cx="26.101" cy="28.155" rx="13.234" ry="12.994"/>
                <ellipse cx="26.468" cy="28.155" rx="13.234" ry="12.994"/>
                <ellipse cx="26.652" cy="28.335" rx="13.418" ry="13.175"/>
                <ellipse cx="26.652" cy="28.335" rx="13.418" ry="13.175"/>
                <ellipse cx="27.02" cy="28.335" rx="13.418" ry="13.175"/>
                <ellipse cx="27.02" cy="28.335" rx="13.418" ry="13.175"/>
                <ellipse cx="27.203" cy="28.515" rx="13.602" ry="13.355"/>
                <ellipse cx="27.571" cy="28.515" rx="13.602" ry="13.355"/>
                <ellipse cx="27.571" cy="28.515" rx="13.602" ry="13.355"/>
                <ellipse cx="27.571" cy="28.515" rx="13.602" ry="13.355"/>
                <ellipse cx="28.123" cy="28.696" rx="13.786" ry="13.536"/>
                <ellipse cx="28.123" cy="28.696" rx="13.786" ry="13.536"/>
                <ellipse cx="28.123" cy="28.696" rx="13.786" ry="13.536"/>
                <ellipse cx="28.49" cy="28.696" rx="13.786" ry="13.536"/>
                <ellipse cx="28.674" cy="28.876" rx="13.969" ry="13.716"/>
                <ellipse cx="28.674" cy="28.876" rx="13.969" ry="13.716"/>
                <ellipse cx="29.042" cy="28.876" rx="13.969" ry="13.716"/>
                <ellipse cx="29.042" cy="28.876" rx="13.969" ry="13.716"/>
                <ellipse cx="29.225" cy="29.057" rx="14.153" ry="13.897"/>
                <ellipse cx="29.593" cy="29.057" rx="14.153" ry="13.897"/>
                <ellipse cx="29.593" cy="29.057" rx="14.153" ry="13.897"/>
                <ellipse cx="29.593" cy="29.057" rx="14.153" ry="13.897"/>
                <ellipse cx="30.144" cy="29.237" rx="14.337" ry="14.077"/>
                <ellipse cx="30.144" cy="29.237" rx="14.337" ry="14.077"/>
                <ellipse cx="30.144" cy="29.237" rx="14.337" ry="14.077"/>
                <ellipse cx="30.512" cy="29.237" rx="14.337" ry="14.077"/>
                <ellipse cx="30.696" cy="29.418" rx="14.521" ry="14.258"/>
                <ellipse cx="30.696" cy="29.418" rx="14.521" ry="14.258"/>
                <ellipse cx="31.063" cy="29.779" rx="14.521" ry="14.258"/>
                <ellipse cx="31.063" cy="29.779" rx="14.521" ry="14.258"/>
                <ellipse cx="31.247" cy="29.959" rx="14.705" ry="14.438"/>
                <ellipse cx="31.615" cy="29.959" rx="14.705" ry="14.438"/>
                <ellipse cx="31.615" cy="29.959" rx="14.705" ry="14.438"/>
                <ellipse cx="31.615" cy="29.959" rx="14.705" ry="14.438"/>
                <ellipse cx="32.166" cy="30.14" rx="14.888" ry="14.619"/>
                <ellipse cx="32.166" cy="30.14" rx="14.888" ry="14.619"/>
                <ellipse cx="32.534" cy="30.14" rx="14.888" ry="14.619"/>
                <ellipse cx="32.534" cy="30.14" rx="14.888" ry="14.619"/>
                <ellipse cx="32.718" cy="30.32" rx="15.072" ry="14.799"/>
                <ellipse cx="33.085" cy="30.32" rx="15.072" ry="14.799"/>
                <ellipse cx="33.085" cy="30.32" rx="15.072" ry="14.799"/>
                <ellipse cx="33.085" cy="30.32" rx="15.072" ry="14.799"/>
                <ellipse cx="33.637" cy="30.501" rx="15.256" ry="14.98"/>
                <ellipse cx="33.637" cy="30.501" rx="15.256" ry="14.98"/>
                <ellipse cx="33.637" cy="30.501" rx="15.256" ry="14.98"/>
                <ellipse cx="34.004" cy="30.501" rx="15.256" ry="14.98"/>
                <ellipse cx="34.188" cy="30.681" rx="15.44" ry="15.16"/>
                <ellipse cx="34.188" cy="30.681" rx="15.44" ry="15.16"/>
                <ellipse cx="34.556" cy="30.681" rx="15.44" ry="15.16"/>
                <ellipse cx="34.556" cy="30.681" rx="15.44" ry="15.16"/>
                <ellipse cx="34.74" cy="30.862" rx="15.624" ry="15.341"/>
                <ellipse cx="35.107" cy="30.862" rx="15.624" ry="15.341"/>
                <ellipse cx="35.107" cy="30.862" rx="15.624" ry="15.341"/>
                <ellipse cx="35.107" cy="30.862" rx="15.624" ry="15.341"/>
                <ellipse cx="35.659" cy="31.042" rx="15.807" ry="15.521"/>
                <ellipse cx="35.659" cy="31.042" rx="15.807" ry="15.521"/>
                <ellipse cx="35.659" cy="31.042" rx="15.807" ry="15.521"/>
                <ellipse cx="36.026" cy="31.042" rx="15.807" ry="15.521"/>
                <ellipse cx="36.21" cy="31.223" rx="15.991" ry="15.702"/>
                <ellipse cx="36.21" cy="31.223" rx="15.991" ry="15.702"/>
                <ellipse cx="36.578" cy="31.223" rx="15.991" ry="15.702"/>
                <ellipse cx="36.578" cy="31.223" rx="15.991" ry="15.702"/>
                <ellipse cx="36.761" cy="31.403" rx="16.175" ry="15.882"/>
                <ellipse cx="37.129" cy="31.403" rx="16.175" ry="15.882"/>
                <ellipse cx="37.129" cy="31.403" rx="16.175" ry="15.882"/>
                <ellipse cx="37.129" cy="31.403" rx="16.175" ry="15.882"/>
                <ellipse cx="37.68" cy="31.945" rx="16.359" ry="16.063"/>
                <ellipse cx="37.68" cy="31.945" rx="16.359" ry="16.063"/>
                <ellipse cx="37.68" cy="31.945" rx="16.359" ry="16.063"/>
                <ellipse cx="38.048" cy="31.945" rx="16.359" ry="16.063"/>
                <ellipse cx="38.232" cy="32.125" rx="16.543" ry="16.243"/>
                <ellipse cx="38.232" cy="32.125" rx="16.543" ry="16.243"/>
                <ellipse cx="38.6" cy="32.125" rx="16.543" ry="16.243"/>
                <ellipse cx="38.6" cy="32.125" rx="16.543" ry="16.243"/>
                <ellipse cx="38.783" cy="32.305" rx="16.726" ry="16.423"/>
                <ellipse cx="39.151" cy="32.305" rx="16.726" ry="16.423"/>
                <ellipse cx="39.151" cy="32.305" rx="16.726" ry="16.423"/>
                <ellipse cx="39.151" cy="32.305" rx="16.726" ry="16.423"/>
                <ellipse cx="39.702" cy="32.486" rx="16.91" ry="16.604"/>
                <ellipse cx="39.702" cy="32.486" rx="16.91" ry="16.604"/>
                <ellipse cx="39.702" cy="32.486" rx="16.91" ry="16.604"/>
                <ellipse cx="40.07" cy="32.486" rx="16.91" ry="16.604"/>
                <ellipse cx="40.254" cy="32.666" rx="17.094" ry="16.784"/>
                <ellipse cx="40.254" cy="32.666" rx="17.094" ry="16.784"/>
                <ellipse cx="40.621" cy="32.666" rx="17.094" ry="16.784"/>
                <ellipse cx="40.621" cy="32.666" rx="17.094" ry="16.784"/>
                <ellipse cx="40.254" cy="32.666" rx="17.094" ry="16.784"/>
                <ellipse cx="40.254" cy="33.027" rx="17.094" ry="16.784"/>
                <ellipse cx="39.886" cy="33.027" rx="17.094" ry="16.784"/>
                <ellipse cx="39.886" cy="33.027" rx="17.094" ry="16.784"/>
                <ellipse cx="39.519" cy="33.388" rx="17.094" ry="16.784"/>
                <ellipse cx="39.151" cy="33.388" rx="17.094" ry="16.784"/>
                <ellipse cx="39.151" cy="33.388" rx="17.094" ry="16.784"/>
                <ellipse cx="38.783" cy="33.749" rx="17.094" ry="16.784"/>
                <ellipse cx="38.783" cy="33.749" rx="17.094" ry="16.784"/>
                <ellipse cx="38.416" cy="33.749" rx="17.094" ry="16.784"/>
                <ellipse cx="38.416" cy="33.749" rx="17.094" ry="16.784"/>
                <ellipse cx="38.048" cy="34.11" rx="17.094" ry="16.784"/>
                <ellipse cx="37.68" cy="34.11" rx="17.094" ry="16.784"/>
                <ellipse cx="37.68" cy="34.11" rx="17.094" ry="16.784"/>
                <ellipse cx="37.313" cy="34.471" rx="17.094" ry="16.784"/>
                <ellipse cx="37.313" cy="34.471" rx="17.094" ry="16.784"/>
                <ellipse cx="36.945" cy="34.471" rx="17.094" ry="16.784"/>
                <ellipse cx="36.578" cy="34.832" rx="17.094" ry="16.784"/>
                <ellipse cx="36.578" cy="34.832" rx="17.094" ry="16.784"/>
                <ellipse cx="36.21" cy="34.832" rx="17.094" ry="16.784"/>
                <ellipse cx="36.21" cy="35.193" rx="17.094" ry="16.784"/>
                <ellipse cx="35.842" cy="35.193" rx="17.094" ry="16.784"/>
                <ellipse cx="35.842" cy="35.193" rx="17.094" ry="16.784"/>
                <ellipse cx="35.475" cy="35.554" rx="17.094" ry="16.784"/>
                <ellipse cx="35.107" cy="35.554" rx="17.094" ry="16.784"/>
                <ellipse cx="35.107" cy="35.554" rx="17.094" ry="16.784"/>
                <ellipse cx="34.74" cy="35.915" rx="17.094" ry="16.784"/>
                <ellipse cx="34.74" cy="35.915" rx="17.094" ry="16.784"/>
                <ellipse cx="34.372" cy="35.915" rx="17.094" ry="16.784"/>
                <ellipse cx="34.004" cy="36.276" rx="17.094" ry="16.784"/>
                <ellipse cx="34.004" cy="36.276" rx="17.094" ry="16.784"/>
                <ellipse cx="33.637" cy="36.276" rx="17.094" ry="16.784"/>
                <ellipse cx="33.637" cy="36.276" rx="17.094" ry="16.784"/>
                <ellipse cx="33.269" cy="36.637" rx="17.094" ry="16.784"/>
                <ellipse cx="33.269" cy="36.637" rx="17.094" ry="16.784"/>
                <ellipse cx="32.902" cy="36.637" rx="17.094" ry="16.784"/>
                <ellipse cx="32.534" cy="36.998" rx="17.094" ry="16.784"/>
                <ellipse cx="32.534" cy="36.998" rx="17.094" ry="16.784"/>
                <ellipse cx="32.166" cy="36.998" rx="17.094" ry="16.784"/>
                <ellipse cx="32.166" cy="37.359" rx="17.094" ry="16.784"/>
                <ellipse cx="31.799" cy="37.359" rx="17.094" ry="16.784"/>
                <ellipse cx="31.431" cy="37.359" rx="17.094" ry="16.784"/>
                <ellipse cx="31.431" cy="37.72" rx="17.094" ry="16.784"/>
                <ellipse cx="31.063" cy="37.72" rx="17.094" ry="16.784"/>
                <ellipse cx="31.063" cy="37.72" rx="17.094" ry="16.784"/>
                <ellipse cx="30.696" cy="38.081" rx="17.094" ry="16.784"/>
                <ellipse cx="30.696" cy="38.081" rx="17.094" ry="16.784"/>
                <ellipse cx="30.328" cy="38.081" rx="17.094" ry="16.784"/>
                <ellipse cx="29.961" cy="38.442" rx="17.094" ry="16.784"/>
                <ellipse cx="29.961" cy="38.442" rx="17.094" ry="16.784"/>
                <ellipse cx="29.593" cy="38.442" rx="17.094" ry="16.784"/>
                <ellipse cx="29.593" cy="38.442" rx="17.094" ry="16.784"/>
                <ellipse cx="29.225" cy="38.803" rx="17.094" ry="16.784"/>
                <ellipse cx="28.858" cy="38.803" rx="17.094" ry="16.784"/>
                <ellipse cx="28.858" cy="38.803" rx="17.094" ry="16.784"/>
                <ellipse cx="28.49" cy="39.164" rx="17.094" ry="16.784"/>
                <ellipse cx="28.49" cy="39.164" rx="17.094" ry="16.784"/>
                <ellipse cx="28.123" cy="39.164" rx="17.094" ry="16.784"/>
                <ellipse cx="28.123" cy="39.525" rx="17.094" ry="16.784"/>
                <ellipse cx="27.755" cy="39.525" rx="17.094" ry="16.784"/>
                <ellipse cx="27.387" cy="39.525" rx="17.094" ry="16.784"/>
                <ellipse cx="27.387" cy="39.886" rx="17.094" ry="16.784"/>
                <ellipse cx="27.02" cy="39.886" rx="17.094" ry="16.784"/>
                <ellipse cx="27.02" cy="39.886" rx="17.094" ry="16.784"/>
                <ellipse cx="26.652" cy="40.247" rx="17.094" ry="16.784"/>
                <ellipse cx="26.284" cy="40.247" rx="17.094" ry="16.784"/>
                <ellipse cx="26.284" cy="40.247" rx="17.094" ry="16.784"/>
                <ellipse cx="25.917" cy="40.607" rx="17.094" ry="16.784"/>
                <ellipse cx="25.917" cy="40.607" rx="17.094" ry="16.784"/>
                <ellipse cx="25.549" cy="40.607" rx="17.094" ry="16.784"/>
                <ellipse cx="25.549" cy="40.607" rx="17.094" ry="16.784"/>
                <ellipse cx="25.182" cy="40.968" rx="17.094" ry="16.784"/>
                <ellipse cx="24.814" cy="40.968" rx="17.094" ry="16.784"/>
                <ellipse cx="24.814" cy="40.968" rx="17.094" ry="16.784"/>
                <ellipse cx="24.446" cy="41.329" rx="17.094" ry="16.784"/>
                <ellipse cx="24.446" cy="41.329" rx="17.094" ry="16.784"/>
                <ellipse cx="24.079" cy="41.329" rx="17.094" ry="16.784"/>
                <ellipse cx="23.711" cy="41.69" rx="17.094" ry="16.784"/>
                <ellipse cx="23.711" cy="41.69" rx="17.094" ry="16.784"/>
                <ellipse cx="23.344" cy="41.69" rx="17.094" ry="16.784"/>
                <ellipse cx="23.344" cy="42.051" rx="17.094" ry="16.784"/>
                <ellipse cx="22.976" cy="42.051" rx="17.094" ry="16.784"/>
                <ellipse cx="22.976" cy="42.051" rx="17.094" ry="16.784"/>
                <ellipse cx="22.608" cy="42.412" rx="17.094" ry="16.784"/>
                <ellipse cx="22.241" cy="42.412" rx="17.094" ry="16.784"/>
                <ellipse cx="22.241" cy="42.412" rx="17.094" ry="16.784"/>
                <ellipse cx="21.873" cy="42.773" rx="17.094" ry="16.784"/>
                <ellipse cx="21.873" cy="42.773" rx="17.094" ry="16.784"/>
                <ellipse cx="21.505" cy="42.773" rx="17.094" ry="16.784"/>
                <ellipse cx="21.138" cy="43.134" rx="17.094" ry="16.784"/>
                <ellipse cx="21.138" cy="43.134" rx="17.094" ry="16.784"/>
                <ellipse cx="20.77" cy="43.134" rx="17.094" ry="16.784"/>
                <ellipse cx="20.77" cy="43.134" rx="17.094" ry="16.784"/>
                <ellipse cx="20.403" cy="43.495" rx="17.094" ry="16.784"/>
                <ellipse cx="20.403" cy="43.495" rx="17.094" ry="16.784"/>
                <ellipse cx="20.035" cy="43.495" rx="17.094" ry="16.784"/>
                <ellipse cx="19.667" cy="43.856" rx="17.094" ry="16.784"/>
                <ellipse cx="19.667" cy="43.856" rx="17.094" ry="16.784"/>
                <ellipse cx="19.3" cy="43.856" rx="17.094" ry="16.784"/>
                <ellipse cx="19.3" cy="44.217" rx="17.094" ry="16.784"/>
                <ellipse cx="18.932" cy="44.217" rx="17.094" ry="16.784"/>
            </g>
            <path d="M209.318 199.534v-5.071l-4.956-.791a12.004 12.004 0 0 0-1.062-2.51l2.886-4.022-3.67-3.584-4.061 2.855a12.479 12.479 0 0 0-2.586-1.052l-.865-4.82h-5.188l-.8 4.805a12.31 12.31 0 0 0-2.59 1.038l-4.054-2.829-3.666 3.584 2.85 3.984c-.46.806-.823 1.66-1.084 2.546l-4.895.796v5.071l4.887.845a11.84 11.84 0 0 0 1.083 2.549l-2.889 3.947 3.667 3.59 4.08-2.793c.823.443 1.693.793 2.594 1.046l.82 4.808h5.185l.875-4.821a12.52 12.52 0 0 0 2.584-1.057l4.107 2.817 3.669-3.59-2.934-3.98c.45-.797.804-1.637 1.06-2.51l4.953-.85zm-16.87 2.116c-2.605 0-4.725-2.072-4.725-4.618 0-2.546 2.12-4.618 4.724-4.618 2.605 0 4.724 2.072 4.724 4.618 0 2.546-2.12 4.618-4.724 4.618z" fill="#C16AD5" fill-rule="nonzero"/>
        </g>
        <path class="anim-base" fill="url(#a)" d="M262.757 221.339h53.159v44.056h-53.159z"/>
        <path d="M9.967 0C8.207 0 6.915.679 5.98 1.42c-.023.015-.039.046-.062.061a9.39 9.39 0 0 0-.747.68l-.125.123c-.008.015.008.046 0 .061l-3.55 3.95a8.72 8.72 0 0 1 2.49-.37h55.818c.88 0 1.713.13 2.492.37L58.62 2.16C57.624.84 55.794 0 54.01 0H9.967zm-5.98 9.875C1.674 9.875 0 11.533 0 13.825v80.971c0 2.291 1.674 3.95 3.987 3.95h55.817c2.313 0 3.987-1.659 3.987-3.95V13.824c0-2.29-1.674-3.95-3.987-3.95H3.987zm9.967 9.874h35.883c1.199 0 1.993.787 1.993 1.975V31.6c0 1.188-.794 1.975-1.993 1.975H13.954c-1.199 0-1.993-.787-1.993-1.975v-9.875c0-1.188.794-1.975 1.993-1.975zm0 17.775h35.883c1.199 0 1.993.786 1.993 1.974v9.875c0 1.188-.794 1.975-1.993 1.975H13.954c-1.199 0-1.993-.787-1.993-1.975v-9.875c0-1.188.794-1.974 1.993-1.974zm17.941 25.673c2.196 0 3.987 1.775 3.987 3.95 0 2.176-1.79 3.95-3.987 3.95-2.196 0-3.987-1.774-3.987-3.95 0-2.175 1.791-3.95 3.987-3.95zm0 13.825c2.196 0 3.987 1.774 3.987 3.95 0 2.175-1.79 3.95-3.987 3.95-2.196 0-3.987-1.775-3.987-3.95 0-2.176 1.791-3.95 3.987-3.95z" class="anim-base" transform="translate(255.163 204.628)" fill="url(#c)" fill-rule="nonzero"/>
    </g>
</svg>
