<svg width="437" viewBox="0 0 437 402" xmlns="http://www.w3.org/2000/svg">
    <title>
        heroConsulting
    </title>
    <defs>
        <linearGradient x1="50%" y1="0%" x2="50%" y2="100%" id="a">
            <stop stop-color="#B5EB45" offset="0%"/>
            <stop stop-color="#7ED321" offset="100%"/>
        </linearGradient>
        <linearGradient x1="50%" y1="0%" x2="50%" y2="100%" id="b">
            <stop stop-color="#B4EC51" offset="0%"/>
            <stop stop-color="#429321" offset="100%"/>
        </linearGradient>
        <linearGradient x1="2.704%" y1="2.677%" y2="76.208%" id="c">
            <stop stop-color="#3B3B3E" offset="0%"/>
            <stop stop-color="#28282A" offset="100%"/>
        </linearGradient>
        <linearGradient x1="2.704%" y1="2.677%" x2="97.625%" y2="74.413%" id="d">
            <stop stop-color="#292A2C" offset="0%"/>
            <stop stop-color="#5C5C61" offset="100%"/>
        </linearGradient>
        <linearGradient x1="2.704%" y1="2.677%" y2="76.208%" id="e">
            <stop stop-color="#292A2C" offset="0%"/>
            <stop stop-color="#28282A" offset="100%"/>
        </linearGradient>
        <linearGradient x1="-11.195%" y1="189.912%" x2="108.336%" y2="-73.391%" id="f">
            <stop stop-color="#3CAAC4" offset="0%"/>
            <stop stop-color="#7CD2E6" offset="55.79%"/>
            <stop stop-color="#B4EC51" offset="100%"/>
        </linearGradient>
    </defs>
    <g transform="translate(-34 -45)" fill="none" fill-rule="evenodd">
        <path d="M152.473 238.33l29.471 18.453c12.904 8.08 29.894 4.158 37.949-8.758 8.055-12.917 4.124-29.937-8.78-38.017l-29.47-18.452 232.313 145.458-18.054-11.305c-12.903-8.079-29.894-4.157-37.949 8.76-8.055 12.916-4.124 29.936 8.78 38.016l18.054 11.304L152.473 238.33zm30.732 178.189L71.416 346.525c-12.903-8.08-16.834-25.1-8.78-38.017 8.056-12.917 25.046-16.838 37.95-8.759l111.789 69.994c12.903 8.08 16.834 25.1 8.779 38.017-8.055 12.917-25.045 16.838-37.949 8.759zm245.017-200.651l-32.53-20.368c-12.904-8.08-16.834-25.1-8.78-38.017 8.056-12.916 25.046-16.838 37.95-8.758l32.53 20.368c12.903 8.08 16.834 25.1 8.78 38.016-8.056 12.917-25.046 16.838-37.95 8.759zm-101.421-63.503l-88.829-55.618c-12.903-8.079-16.834-25.1-8.779-38.016 8.055-12.917 25.045-16.838 37.949-8.759l88.828 55.618c12.904 8.08 16.835 25.1 8.78 38.017-8.055 12.916-25.045 16.838-37.95 8.758zm46.87 289.503l-255.04-159.472c-12.904-8.08-16.834-25.1-8.78-38.017 8.055-12.917 25.046-16.838 37.95-8.759l255.04 159.473c12.904 8.08 16.834 25.1 8.78 38.016-8.056 12.917-25.046 16.838-37.95 8.759zm20.05-117.524l-241.549-151.24c-12.903-8.08-16.834-25.1-8.779-38.017 8.055-12.917 25.045-16.838 37.949-8.759l241.548 151.24c12.904 8.08 16.834 25.1 8.78 38.017-8.056 12.917-25.046 16.838-37.95 8.759z" fill="#EAF4F7" opacity=".5"/>
        <circle fill="#EAF4F7" opacity=".5" cx="356.5" cy="247.5" r="16.5"/>
        <circle fill="#EAF4F7" opacity=".5" cx="356.5" cy="80.5" r="16.5"/>
        <circle fill="#EAF4F7" opacity=".5" cx="50.5" cy="137.5" r="16.5"/>
        <circle fill="#EAF4F7" opacity=".5" cx="50.5" cy="235.5" r="16.5"/>
        <circle stroke="url(#a)" stroke-width="2" cx="367" cy="97" r="14"/>
        <path stroke="url(#b)" stroke-width="2" d="M70 252l-30 15v-30z"/>
        <g fill-rule="nonzero">
            <path d="M121.938 128.176a2.107 2.107 0 0 1-2.102 2.11H2.102A2.107 2.107 0 0 1 0 128.177v-29.86c.048-7.549 4.37-14.412 11.143-17.69l29.58-14.209c5.361 6.777 12.425 11.611 20.246 11.611 7.821 0 14.885-4.834 20.246-11.61l29.58 14.207c6.793 3.29 11.12 10.183 11.143 17.755v29.796z" fill="url(#c)" transform="translate(281 194)"/>
            <path d="M364.137 270.053l-21.858 10.848-21.858-10.848a6.336 6.336 0 0 1-3.438-4.644 6.302 6.302 0 0 1 1.78-5.486l.127-.126h46.778l.127.126a6.302 6.302 0 0 1 1.78 5.486 6.336 6.336 0 0 1-3.438 4.644z" fill="#7B7F84"/>
            <path d="M315.668 242.75c-.652 0-2.752-1.728-3.844-5.838s-.105-6.892.399-7.019c0 0 3.99-.695 4.033-1.496.053-1.152.179-2.3.378-3.436a12.88 12.88 0 0 0-.168-3.646 47.416 47.416 0 0 1-.273-11.465c.714-7.124 4.873-11.36 11.153-11.36.477-.002.94-.157 1.323-.443A26.753 26.753 0 0 1 342.825 194h2.227c13.484 0 23.104 6.913 27.2 19.116-1.534-.168-1.03.907-2.1 1.96-1.072 1.054-3.74 1.476-2.731 4.216a27.056 27.056 0 0 1 2.1 9.084c0 .8 3.99-.611 4.033-.611.546.19 1.512 4.995.399 9.126-1.113 4.13-3.193 5.838-3.844 5.838a2.29 2.29 0 0 0-2.1 1.602c-3.739 12.646-13.527 25.397-25.037 25.397s-21.444-12.772-25.183-25.397a2.227 2.227 0 0 0-2.121-1.58z" fill="#F0E4D2"/>
            <path d="M315.561 221.312a15.656 15.656 0 0 0 13.723-10.505c6.285 2.101 8.38 8.404 37.71 6.303 2.912-.21 3.352.82 4.19 0 .838-.82-1.508-4.202 0-4.055-3.96-12.164-13.68-19.055-27.11-19.055h-2.22a26.698 26.698 0 0 0-14.142 3.992c-.381.285-.844.44-1.32.441-6.285 0-10.475 4.202-11.124 11.324a47.233 47.233 0 0 0 .272 11.429l.021.126z" fill="#CDA1A7"/>
            <g>
                <path d="M121.938 128.176a2.107 2.107 0 0 1-2.102 2.11H2.102A2.107 2.107 0 0 1 0 128.177v-29.86c.048-7.549 4.37-14.412 11.143-17.69l29.58-14.209c5.361 6.777 12.425 11.611 20.246 11.611 7.821 0 14.885-4.834 20.246-11.61l29.58 14.207c6.793 3.29 11.12 10.183 11.143 17.755v29.796z" fill="url(#d)" transform="translate(152 194)"/>
                <path d="M235.137 270.053l-21.858 10.848-21.858-10.848a6.336 6.336 0 0 1-3.438-4.644 6.302 6.302 0 0 1 1.78-5.486l.127-.126h46.778l.127.126a6.302 6.302 0 0 1 1.78 5.486 6.336 6.336 0 0 1-3.438 4.644z" fill="#7B7F84"/>
                <path d="M186.668 242.75c-.652 0-2.752-1.728-3.844-5.838s-.105-6.892.399-7.019c0 0 3.99-.695 4.033-1.496.053-1.152.179-2.3.378-3.436a12.88 12.88 0 0 0-.168-3.646 47.416 47.416 0 0 1-.273-11.465c.714-7.124 4.873-11.36 11.153-11.36.477-.002.94-.157 1.323-.443A26.753 26.753 0 0 1 213.825 194h2.227c13.484 0 23.104 6.913 27.2 19.116-1.534-.168-1.03.907-2.1 1.96-1.072 1.054-3.74 1.476-2.731 4.216a27.056 27.056 0 0 1 2.1 9.084c0 .8 3.99-.611 4.033-.611.546.19 1.512 4.995.399 9.126-1.113 4.13-3.193 5.838-3.844 5.838a2.29 2.29 0 0 0-2.1 1.602c-3.739 12.646-13.527 25.397-25.037 25.397s-21.444-12.772-25.183-25.397a2.227 2.227 0 0 0-2.121-1.58z" fill="#F0E4D2"/>
                <path d="M186.561 221.312a15.656 15.656 0 0 0 13.723-10.505c6.285 2.101 8.38 8.404 37.71 6.303 2.912-.21 3.352.82 4.19 0 .838-.82-1.508-4.202 0-4.055-3.96-12.164-13.68-19.055-27.11-19.055h-2.22a26.698 26.698 0 0 0-14.142 3.992c-.381.285-.844.44-1.32.441-6.285 0-10.475 4.202-11.124 11.324a47.233 47.233 0 0 0 .272 11.429l.021.126z" fill="#CDA1A7"/>
            </g>
            <g>
                <path d="M156.078 158.921a2.687 2.687 0 0 1-2.691 2.683H2.691A2.687 2.687 0 0 1 0 158.921V124.5c.062-9.593 5.595-18.315 14.262-22.482l37.863-18.055c6.862 8.612 15.903 14.755 25.914 14.755 10.01 0 19.052-6.143 25.914-14.755l37.863 18.055c8.693 4.18 14.231 12.94 14.262 22.563v34.341z" fill="url(#e)" transform="translate(199 162)"/>
                <path d="M305.624 258.64l-27.96 14.066-27.962-14.066a8.206 8.206 0 0 1-4.397-6.022 8.241 8.241 0 0 1 2.276-7.114l.163-.164h59.839l.163.164a8.241 8.241 0 0 1 2.276 7.114 8.206 8.206 0 0 1-4.398 6.022z" fill="#7B7F84"/>
                <path fill="url(#f)" d="M96.768 118.169l-18.729-5.39-18.73 5.39v-16.17l18.73 5.39 18.73-5.39z" transform="translate(199 162)"/>
                <path d="M242.66 224.058c-.838 0-3.538-2.2-4.942-7.432-1.404-5.232-.135-8.773.513-8.934 0 0 5.13-.886 5.184-1.905.068-1.467.23-2.927.486-4.373.151-1.55.078-3.113-.216-4.642a59.778 59.778 0 0 1-.35-14.596c.917-9.068 6.263-14.461 14.336-14.461.613-.002 1.21-.2 1.701-.564A34.641 34.641 0 0 1 277.57 162h2.862c17.334 0 29.7 8.8 34.966 24.335-1.971-.215-1.323 1.154-2.7 2.495-1.377 1.342-4.807 1.878-3.51 5.366a34.163 34.163 0 0 1 2.7 11.564c0 1.02 5.13-.778 5.184-.778.702.241 1.944 6.359.513 11.618-1.431 5.258-4.104 7.431-4.941 7.431a2.94 2.94 0 0 0-2.7 2.04c-4.807 16.098-17.389 32.33-32.185 32.33-14.796 0-27.567-16.26-32.373-32.33a2.86 2.86 0 0 0-2.727-2.013z" fill="#FAEFDE"/>
                <path d="M243.367 196.829c8.05-.544 14.994-5.816 17.643-13.396 8.081 2.68 10.775 10.717 48.485 8.038 3.744-.268 4.31 1.044 5.387 0 1.078-1.045-1.94-5.359 0-5.171-5.09-15.512-17.589-24.3-34.855-24.3h-2.855a34.536 34.536 0 0 0-18.182 5.09c-.49.364-1.085.561-1.697.563-8.08 0-13.468 5.358-14.303 14.44a59.746 59.746 0 0 0 .35 14.575l.027.16z" fill="#CDA1A7"/>
            </g>
        </g>
    </g>
</svg>
