<svg width="493" viewBox="0 0 493 440" xmlns="http://www.w3.org/2000/svg">
    <title>
        heroMarketing
    </title>
    <defs>
        <linearGradient x1="0%" y1="0%" x2="102%" y2="101%" id="a">
            <stop stop-color="#3023AE" offset="0%"/>
            <stop stop-color="#C86DD7" offset="100%"/>
        </linearGradient>
        <linearGradient x1="-11.195%" y1="189.912%" x2="108.336%" y2="-73.391%" id="b">
            <stop stop-color="#328CA1" offset="0%"/>
            <stop stop-color="#6DBCCF" offset="56.162%"/>
            <stop stop-color="#9ECC4D" offset="97.433%"/>
        </linearGradient>
        <linearGradient x1="-7.783%" y1="182.397%" x2="108.336%" y2="-73.391%" id="c">
            <stop stop-color="#61CDE6" offset="0%"/>
            <stop stop-color="#8DE2F6" offset="54.873%"/>
            <stop stop-color="#D9FFFC" offset="100%"/>
        </linearGradient>
        <linearGradient x1="-120.877%" y1="224.439%" x2="102.471%" y2="-65.77%" id="d">
            <stop stop-color="#61CDE6" offset="0%"/>
            <stop stop-color="#B2EEFD" offset="54.387%"/>
            <stop stop-color="#FFF" offset="100%"/>
        </linearGradient>
        <linearGradient x1="-11.195%" y1="189.912%" x2="118.292%" y2="-94.31%" id="e">
            <stop stop-color="#3CAAC4" offset="0%"/>
            <stop stop-color="#7CD2E6" offset="55.79%"/>
            <stop stop-color="#B4EC51" offset="100%"/>
        </linearGradient>
        <linearGradient x1="-7.783%" y1="182.397%" x2="138.06%" y2="-216.753%" id="f">
            <stop stop-color="#61CDE6" offset="0%"/>
            <stop stop-color="#8DE2F6" offset="54.873%"/>
            <stop stop-color="#FFF" offset="100%"/>
        </linearGradient>
        <linearGradient x1="-4.519%" y1="175.207%" x2="106.196%" y2="-68.675%" id="g">
            <stop stop-color="#317C8E" offset="0%"/>
            <stop stop-color="#87D8EB" offset="53.209%"/>
            <stop stop-color="#FFF" offset="100%"/>
        </linearGradient>
        <linearGradient x1="-11.195%" y1="189.912%" x2="253.181%" y2="-341.2%" id="h">
            <stop stop-color="#3CAAC4" offset="0%"/>
            <stop stop-color="#7CD2E6" offset="55.79%"/>
            <stop stop-color="#B4EC51" offset="100%"/>
        </linearGradient>
        <linearGradient x1="0%" y1="0%" x2="140.452%" y2="100%" id="i">
            <stop stop-color="#3023AE" offset="0%"/>
            <stop stop-color="#C86DD7" offset="100%"/>
        </linearGradient>
        <linearGradient x1="-254.215%" y1="89.71%" x2="108.336%" y2="-73.391%" id="j">
            <stop stop-color="#3CAAC4" offset="0%"/>
            <stop stop-color="#8DDDEF" offset="50.041%"/>
            <stop stop-color="#B4EC51" offset="100%"/>
        </linearGradient>
    </defs>
    <g transform="translate(-19)" fill="none" fill-rule="evenodd">
        <path class="fade" d="M289.175 330.195L91.31 207.314l25.1 15.588c10.991 6.826 25.485 3.477 32.373-7.48 6.89-10.957 3.564-25.372-7.426-32.197l-25.101-15.588 197.866 122.88-15.377-9.549c-10.99-6.825-25.484-3.476-32.372 7.48-6.889 10.957-3.564 25.372 7.426 32.198l15.377 9.55zm-112.741 95.338l-95.092-59.345c-10.976-6.85-14.31-21.296-7.447-32.265 6.863-10.97 21.324-14.309 32.3-7.459l95.093 59.345c10.976 6.85 14.31 21.296 7.447 32.265-6.863 10.97-21.325 14.309-32.301 7.459zM325.676 187.68l-27.594-17.18c-10.946-6.814-14.265-21.195-7.412-32.12 6.852-10.926 21.28-14.259 32.226-7.444l27.595 17.179c10.946 6.814 14.264 21.195 7.412 32.121-6.853 10.926-21.28 14.258-32.227 7.444zm-85.888-53.952l-75.383-46.946c-10.95-6.82-14.27-21.21-7.417-32.142 6.854-10.932 21.288-14.266 32.238-7.446L264.61 94.14c10.95 6.82 14.271 21.21 7.417 32.142-6.854 10.932-21.288 14.266-32.238 7.446zm39.456 245.015L62.21 243.514c-10.98-6.85-14.316-21.3-7.449-32.272 6.867-10.972 21.335-14.313 32.316-7.462L304.11 339.009c10.98 6.85 14.316 21.3 7.449 32.272-6.867 10.972-21.335 14.313-32.316 7.462zm17.307-99.432L91.185 151.754c-10.971-6.815-14.29-21.205-7.415-32.143 6.876-10.938 21.344-14.281 32.315-7.467L321.45 239.7c10.97 6.814 14.29 21.205 7.414 32.143-6.876 10.938-21.343 14.281-32.314 7.467z" fill-opacity=".121" fill="#F4F4F4"/>
        <circle class="move-1" fill-opacity=".15" fill="#F4F4F4" cx="386.5" cy="263.5" r="18.5"/>
        <circle class="move-1" fill-opacity=".15" fill="#F4F4F4" cx="321.5" cy="86.5" r="18.5"/>
        <circle class="move-1" fill-opacity=".15" fill="#F4F4F4" cx="43.5" cy="160.5" r="18.5"/>
        <circle class="move-1" fill-opacity=".15" fill="#F4F4F4" cx="456" cy="51" r="51"/>
        <ellipse class="move-1" fill-opacity=".15" fill="#F4F4F4" cx="449.5" cy="377" rx="62.5" ry="63"/>
        <circle class="move-1" fill-opacity=".15" fill="#F4F4F4" cx="55.5" cy="274.5" r="18.5"/>
        <circle class="move-1" stroke="url(#a)" stroke-width="2" cx="334.5" cy="101.5" r="15.5"/>
        <path class="move-1" stroke="url(#a)" stroke-width="2" d="M41.5 288.68L29.448 295l2.302-13.387-9.75-9.48 13.474-1.953L41.5 258l6.026 12.18L61 272.133l-9.75 9.48L53.552 295z"/>
        <g class="fade" transform="translate(94 143)" fill-rule="nonzero">
            <path d="M156.725 190.7H75.383c17.43 0 17.43-28.959 17.43-28.959h46.481s0 28.958 17.43 28.958z" fill="url(#b)"/>
            <path d="M219.83 0H11.57C5.206 0 0 5.191 0 11.536v126.898h231.4V11.536C231.4 5.191 226.193 0 219.83 0z" fill="url(#c)"/>
            <path fill="url(#d)" d="M11.322 11.301h208.755v115.126H11.322z"/>
            <path d="M95.645 47.802V101h28.7v.115c0 1.157 1.035 2.198 2.183 2.198.114 0 .344 0 .46-.115l16.186-8.096c.46-.23 1.836-.925 1.836-2.197 0-1.273-1.377-1.967-1.836-2.198l-6.2-3.101V62.373L122.51 47.802H95.645zm26.405 2.776l12.168 12.258H122.05V50.578zm-3.444 16.884c5.707 0 10.332 4.66 10.332 10.408h-10.332V67.462zm-4.592 4.626v10.408h10.332c0 5.75-4.626 10.409-10.332 10.409-5.707 0-10.333-4.66-10.333-10.409 0-5.749 4.626-10.408 10.333-10.408zm12.628 12.952l15.613 7.865c.114 0 .116.115.23.115-.114 0-.116.115-.23.115l-15.613 7.75V85.04z" fill="url(#e)"/>
            <path d="M0 138.434h231.4v11.557c0 6.357-5.207 11.558-11.57 11.558H11.57C5.206 161.549 0 156.348 0 149.99v-11.557zm161.98 52.008H69.42V202h92.56v-11.558z" fill="url(#f)"/>
            <ellipse fill="#B7F0FD" cx="115.346" cy="149.734" rx="5.661" ry="5.65"/>
            <path d="M185.512 173.859h-6.563v-10.794h10.939l1.094 4.048c.82 3.508-1.915 6.746-5.47 6.746z" fill="#90CAF9"/>
            <path d="M60.164 75.557s-32.27-18.89-49.225-18.89V18.89C26.8 18.89 60.164 0 60.164 0v75.557z" fill="url(#g)" transform="translate(178.949 106.397)"/>
            <g transform="translate(149.638 129.527)">
                <ellipse fill="url(#h)" cx="13.647" cy="13.641" rx="13.647" ry="13.641"/>
                <path d="M98.256 5.456h-8.188v16.369h8.188c4.64 0 8.188-3.547 8.188-8.184 0-4.638-3.548-8.185-8.188-8.185z" fill="url(#i)"/>
                <path d="M39.848 66.02c-2.456 1.638-6.823 3.274-12.555 3.82-1.637.273-3.275-.818-3.82-2.728l-12.01-37.375s24.018-16.915 24.018 3c0 15.005 4.094 22.917 6.005 25.918 1.364 1.91 1.364 4.365 0 6.274-.546.546-1.092.819-1.638 1.092z" fill="url(#h)"/>
            </g>
            <path d="M13.113 63.221h26.996v-38.55H13.113c-2.97 0-5.4 2.479-5.4 5.508v27.535c0 3.03 2.43 5.507 5.4 5.507z" fill="url(#g)" transform="translate(149.638 100.229)"/>
            <path d="M93.331 86.351c-2.97 0-5.4-2.428-5.4-5.397V5.397c0-2.968 2.43-5.397 5.4-5.397s5.4 2.429 5.4 5.397v75.557c0 2.969-2.43 5.397-5.4 5.397z" fill="url(#j)" transform="translate(149.638 100.229)"/>
        </g>
    </g>
</svg>
