<svg viewBox="0 0 1263 497" xmlns="http://www.w3.org/2000/svg" xmlns:xlink="http://www.w3.org/1999/xlink">
    <defs>
        <path id="a" d="M0 0h1363v560H0z"/>
    </defs>
    <g transform="translate(-36 -63)" fill="none" fill-rule="evenodd">
        <mask id="b" fill="#fff">
            <use xlink:href="#a"/>
        </mask>
        <g mask="url(#b)">
            <path d="M205.945 995.683l653.52-870.167c33.104-44.022 95.578-52.798 139.54-19.601 43.961 33.197 52.763 95.795 19.66 139.817L365.145 1115.9c-33.104 44.023-95.578 52.798-139.54 19.601-29.308-22.13-35.861-68.737-19.66-139.817z" fill="#FFF"/>
            <path d="M-274.055 973.683l653.52-870.167c33.104-44.022 95.578-52.798 139.54-19.601 43.961 33.197 52.763 95.795 19.66 139.817l-653.52 870.168c-33.104 44.022-95.578 52.797-139.54 19.6-29.308-22.13-35.861-68.737-19.66-139.817z" fill="#FFF"/>
            <path d="M-132.055 1110.683l653.52-870.167c33.104-44.022 95.578-52.798 139.54-19.601 43.961 33.197 52.763 95.795 19.66 139.817L27.145 1230.9c-33.104 44.023-95.578 52.798-139.54 19.601-29.308-22.13-35.861-68.737-19.66-139.817z" fill="#EAF4F7"/>
            <path d="M465.945 973.683l653.52-870.167c33.104-44.022 95.578-52.798 139.54-19.601 43.961 33.197 52.763 95.795 19.66 139.817L625.145 1093.9c-33.104 44.022-95.578 52.797-139.54 19.6-29.308-22.13-35.861-68.737-19.66-139.817z" fill="#EAF4F7"/>
        </g>
    </g>
</svg>
