<svg viewBox="0 0 169 50" xmlns="http://www.w3.org/2000/svg">
    <defs>
        <linearGradient x1="0%" y1="88.716%" x2="108.336%" y2="-73.391%" id="a">
            <stop stop-color="#3CAAC4" offset="0%"/>
            <stop stop-color="#7CD2E6" offset="55.79%"/>
            <stop stop-color="#B4EC51" offset="100%"/>
        </linearGradient>
    </defs>
    <g fill-rule="nonzero" fill="none">
        <g class="logo-letters" fill="#29292B">
            <path d="M63.16 4.571h5.471c3.954 0 5.794 1.665 5.794 4.448 0 1.963-1.194 3.256-3.01 3.53 2.363.396 3.706 2.013 3.706 4.2 0 3.105-2.437 5.218-6.664 5.218h-5.296V4.57h-.001zm3.432 2.86v3.8h1.914c1.194 0 2.486-.794 2.486-2.136 0-1.093-.745-1.59-2.237-1.665h-2.163zm2.462 11.677c1.64 0 2.636-.994 2.636-2.21 0-1.542-1.02-2.833-3.159-2.833h-1.939v5.043h2.462z"/>
            <path d="M82.208 22.115c-3.83 0-5.845-1.963-5.845-6.311 0-4.3 1.965-6.51 5.546-6.51 2.858 0 4.923 1.739 4.923 5.516 0 .547-.026 1.293-.1 1.913h-7.186c0 2.039 1.243 2.859 2.934 2.859 1.02 0 2.089-.199 3.556-.597l.547 2.211c-1.79.696-2.959.919-4.375.919zm1.516-7.852c0-1.416-.572-2.535-2.064-2.535-1.517 0-2.113 1.318-2.139 2.709h4.202v-.174z"/>
            <path d="M92.625 21.966h-3.258V9.542h2.587l.298 1.218c1.219-.994 1.99-1.466 3.158-1.466.671 0 1.069.149 1.093.149l-.297 2.957c-.224-.074-.697-.149-1.219-.149-.87 0-1.716.745-2.362 1.466v8.25z"/>
            <path d="M105.157 20.525c-1.616 1.218-2.636 1.59-3.68 1.59-2.412 0-4.078-2.062-4.078-6.261 0-4.498 1.989-6.56 4.55-6.56.921 0 1.841.347 2.985 1.266l.472-1.018h2.76v13.243c0 4.399-3.705 5.02-5.37 5.02-1.617 0-3.233-.173-4.898-.87l.472-2.286c1.442.448 2.486.596 3.73.596 1.243 0 3.057-.149 3.057-2.31v-2.41zm-.223-7.33c-.845-.697-1.666-1.094-2.312-1.094-1.17 0-1.99 1.143-1.99 3.654 0 2.335.723 3.478 1.89 3.478.646 0 1.541-.372 2.412-1.093v-4.946z"/>
            <path d="M111.698 21.966V9.542h2.734l.424 1.118c1.467-1.094 2.337-1.367 3.68-1.367 1.317 0 2.238.671 2.76 1.715 1.914-1.416 2.834-1.715 4.126-1.715 1.99 0 3.333 1.467 3.333 4.449v8.225h-3.259V14.61c0-1.267-.397-2.285-1.367-2.285-.67 0-1.441.373-2.337 1.142v8.5h-3.231V14.61c0-1.267-.375-2.286-1.344-2.286-.646 0-1.441.373-2.262 1.068v8.574h-3.257z"/>
            <path d="M138.402 20.724c-1.118 1.018-1.864 1.415-3.157 1.415-2.039 0-3.953-1.54-3.953-4 0-2.435 1.815-4 5.793-4h1.02c0-1.343-.597-2.362-2.064-2.362-.944 0-2.56.2-3.68.497l-.546-2.186a16.584 16.584 0 0 1 4.949-.796c3.331 0 4.525 1.666 4.525 4.224v8.45h-2.388l-.499-1.242zm-1.416-4.2c-1.965 0-2.388.572-2.388 1.49 0 .895.547 1.566 1.342 1.566.673 0 1.22-.397 2.115-1.341v-1.715h-1.07z"/>
            <path d="M151.605 21.966v-7.43c0-1.268-.472-2.287-1.615-2.287-.672 0-1.467.373-2.389 1.142v8.574h-3.256V9.542h2.735l.521 1.118c1.468-1.094 2.338-1.367 3.681-1.367 2.14 0 3.606 1.392 3.606 4.373v8.3h-3.283z"/>
            <path d="M165.705 21.966v-7.43c0-1.268-.472-2.287-1.616-2.287-.672 0-1.467.373-2.387 1.142v8.574h-3.259V9.542h2.736l.523 1.118c1.466-1.094 2.336-1.367 3.68-1.367 2.137 0 3.605 1.392 3.605 4.373v8.3h-3.282z"/>
            <g>
                <path d="M62.663 44.665V27.468h3.6v17.197z"/>
                <path d="M76.915 44.665V37.32c0-1.252-.472-2.26-1.614-2.26-.67 0-1.465.368-2.384 1.13v8.476h-3.253V32.38h2.73l.522 1.107c1.466-1.081 2.334-1.351 3.675-1.351 2.136 0 3.6 1.375 3.6 4.323v8.205h-3.276z"/>
                <path d="M89.976 29.729c-.497-.099-.671-.123-1.069-.123-.77 0-1.216.27-1.216 1.499v1.277h2.036v2.629H87.69v9.655h-3.204V35.01h-1.415v-2.629h1.44v-1.866c0-2.187 1.44-3.292 3.203-3.292 1.416 0 2.085.073 2.682.221l-.421 2.285z"/>
                <path d="M91.067 38.523c0-3.906 1.937-6.387 5.587-6.387 3.626 0 5.884 2.48 5.884 6.387 0 3.907-2.012 6.314-5.884 6.314-3.65 0-5.587-2.408-5.587-6.314zm5.737-3.783c-1.839 0-2.484 1.498-2.484 3.76 0 2.26.696 3.71 2.508 3.71 1.887 0 2.408-1.476 2.408-3.71 0-2.311-.62-3.76-2.432-3.76z"/>
                <path d="M105.245 35.084h-1.266v-2.703h1.291v-3.513h3.202v3.513h2.607v2.703h-2.632v5.355c0 1.229.373 1.647 1.018 1.647.372 0 .67-.025 1.216-.148l.522 2.556c-.696.195-1.291.319-2.085.319-1.838 0-3.874-.615-3.874-2.801v-6.928z"/>
                <path d="M118.627 44.813c-3.824 0-5.835-1.941-5.835-6.24 0-4.25 1.962-6.436 5.536-6.436 2.857 0 4.917 1.72 4.917 5.454 0 .54-.025 1.278-.1 1.891h-7.175c0 2.015 1.242 2.825 2.93 2.825 1.018 0 2.085-.196 3.55-.59l.545 2.187c-1.785.688-2.952.909-4.368.909zm1.516-7.763c0-1.402-.572-2.506-2.063-2.506-1.514 0-2.11 1.302-2.134 2.676h4.197v-.17z"/>
                <path d="M134.344 44.198c-1.39.394-2.21.615-3.427.615-4.269 0-5.809-2.335-5.809-6.29s1.887-6.387 5.537-6.387c1.564 0 2.78.343 3.624.59l-1.166 2.235c-.72-.222-1.166-.418-2.383-.418-2.186 0-2.383 2.162-2.383 3.882 0 2.997 1.117 3.88 3.128 3.88.843 0 1.687-.097 2.483-.32l.396 2.213z"/>
                <path d="M144.202 44.665V37.32c0-1.252-.472-2.26-1.614-2.26-.67 0-1.514.368-2.433 1.13v8.476h-3.228V27.468h3.228v6.02c1.464-1.082 2.334-1.352 3.675-1.352 2.135 0 3.6 1.375 3.6 4.323v8.206h-3.228z"/>
            </g>
        </g>
        <g class="logo-mark" fill="url(#a)">
            <path d="M24.636 49.739C11.114 49.739.112 38.737.112 25.216.112 11.693 11.114.691 24.636.691c2.548 0 5.062.391 7.469 1.158a4.083 4.083 0 0 1-2.484 7.778 16.402 16.402 0 0 0-4.984-.771c-9.021 0-16.36 7.339-16.36 16.36 0 9.019 7.339 16.358 16.36 16.358 9.02 0 16.358-7.34 16.358-16.358 0-2.833-.733-5.62-2.119-8.063a4.082 4.082 0 0 1 7.1-4.03 24.541 24.541 0 0 1 3.184 12.094c-.001 13.52-11.001 24.522-24.524 24.522z"/>
            <path d="M24.562 39.012c-6.602 0-12.454-4.768-13.594-11.492-1.271-7.499 3.796-14.636 11.295-15.907a13.768 13.768 0 0 1 7.282.732c.554.214.828.837.612 1.391a1.073 1.073 0 0 1-1.389.612 11.61 11.61 0 0 0-6.145-.617c-6.332 1.074-10.61 7.099-9.537 13.43.962 5.676 5.904 9.701 11.478 9.702.644 0 1.296-.055 1.953-.166 6.332-1.074 10.61-7.099 9.537-13.431a11.597 11.597 0 0 0-1.625-4.261 1.073 1.073 0 1 1 1.818-1.144 13.707 13.707 0 0 1 1.924 5.045c1.271 7.501-3.796 14.637-11.295 15.909a13.8 13.8 0 0 1-2.314.197z"/>
            <path d="M45.976 13.122a4.082 4.082 0 0 0-7.1 4.03 16.372 16.372 0 0 1 2.12 8.063c0 9.019-7.338 16.358-16.358 16.358-7.012 0-13.008-4.436-15.33-10.649-3.949-2.692-6.962-6.977-8.351-12.075a24.438 24.438 0 0 0-.843 6.366c0 13.522 11.002 24.523 24.524 24.523s24.523-11.001 24.523-24.523a24.563 24.563 0 0 0-3.185-12.093z"/>
        </g>
    </g>
</svg>
